<svg width="34" height="24" viewBox="0 0 34 24" fill="none" xmlns="http://www.w3.org/2000/svg">
<g clip-path="url(#clip0_215_25791)">
<path d="M0 21.5327C0 15.1548 0 8.77772 0 2.39976C0.0177083 2.38998 0.0495833 2.38287 0.0522396 2.36954C0.210729 1.55541 0.685312 0.957255 1.33875 0.487085C1.86823 0.107572 2.48359 0.00358333 3.11312 0.00269454C12.2825 -0.000860617 21.4519 -0.00174941 30.6221 0.00536091C31.0197 0.00536091 31.4305 0.0373574 31.8112 0.143123C32.8799 0.440868 33.5688 1.14923 33.8769 2.22467C33.9017 2.30999 33.9584 2.38643 34.0009 2.46642V21.5994C33.9593 21.6652 33.8973 21.7265 33.8778 21.7985C33.5387 23.0464 32.4001 23.9831 31.195 23.9858C21.76 24.008 12.3241 23.9983 2.88911 23.9956C1.86557 23.9956 1.08729 23.5085 0.528594 22.6855C0.293958 22.3415 0.172656 21.9194 0 21.5327ZM3.46286 2.01225C7.66505 6.26244 11.846 10.4789 16.0066 14.7166C16.5405 15.2606 17.4029 15.2561 17.9306 14.714C20.4505 12.1285 22.996 9.56697 25.5363 7.00103C27.0964 5.42609 28.6636 3.85738 30.2299 2.28866C30.3114 2.20778 30.4123 2.14646 30.5044 2.07624C30.4849 2.05491 30.4654 2.03358 30.4468 2.01225H3.46286ZM30.4778 21.9923C28.6131 20.0902 26.7785 18.2158 24.9395 16.3458C24.0461 15.4365 23.1386 14.5406 22.2496 13.627C22.0619 13.4341 21.9548 13.4465 21.7733 13.6323C20.9144 14.5131 20.0343 15.3734 19.1746 16.2542C18.5645 16.8782 17.8057 17.1643 16.9681 17.1883C16.1571 17.2115 15.4302 16.9057 14.8449 16.3307C13.9435 15.4454 13.059 14.5424 12.1656 13.6474C12.0974 13.5799 12.024 13.5176 12.0098 13.5043C9.17115 16.3591 6.35021 19.1943 3.56734 21.9923H30.4778ZM23.4804 11.9614C26.3279 14.8286 29.1647 17.6852 31.9821 20.5222V3.40943C29.124 6.28466 26.2871 9.13768 23.4804 11.9605V11.9614ZM2.01698 3.39165V20.6075C4.86625 17.7181 7.6863 14.8579 10.5046 12.0005C7.67479 9.13057 4.86094 6.27578 2.01698 3.39254V3.39165Z" fill="white"/>
</g>
<defs>
<clipPath id="clip0_215_25791">
<rect width="34" height="24" fill="white"/>
</clipPath>
</defs>
</svg>
