<svg width="44" height="44" viewBox="0 0 44 44" fill="none" xmlns="http://www.w3.org/2000/svg">
<g clip-path="url(#clip0_215_25840)">
<path d="M44 20.4127V23.9281C43.9737 23.9543 43.9278 23.9806 43.9212 24.0101C43.8031 24.7388 43.6882 25.4642 43.57 26.1929C43.2582 28.1032 42.6411 29.9217 41.7942 31.6548C40.3894 34.5301 38.4659 37.0017 35.9779 39.0368C34.7044 40.0773 33.3422 40.9734 31.8881 41.7283C30.1517 42.6277 28.3005 43.2218 26.3967 43.6485C25.8518 43.7699 25.2906 43.8257 24.7227 43.9111V26.7017H29.9646C30.2305 24.6338 30.4865 22.6184 30.7491 20.5702H24.7063C24.7063 19.8153 24.6964 19.0899 24.7063 18.3645C24.7227 17.429 24.6964 16.487 24.7982 15.5614C24.8901 14.7408 25.4054 14.0383 26.3048 13.8972C26.912 13.802 27.5258 13.7068 28.1396 13.6838C29.0751 13.6477 30.0139 13.674 30.969 13.674V8.26139C30.8016 8.222 30.6408 8.15964 30.4767 8.14979C29.5773 8.08415 28.6747 7.98239 27.772 7.98568C26.6133 7.99224 25.4481 8.01522 24.3026 8.16292C22.9305 8.33689 21.7029 8.92771 20.6887 9.88616C19.0705 11.4125 18.4436 13.3786 18.3615 15.5285C18.2991 17.0975 18.3615 18.6697 18.3681 20.242C18.3681 20.3503 18.3549 20.4586 18.3418 20.5965H13.1163V26.7214H18.3484V43.747C18.0431 43.7141 17.7477 43.7109 17.4687 43.6452C14.7673 42.9822 12.2136 41.9778 9.8963 40.4088C8.50786 39.47 7.19164 38.4558 6.09205 37.1822C5.4126 36.3945 4.72659 35.61 4.10622 34.7796C3.1051 33.4404 2.35344 31.9633 1.69697 30.4206C0.764783 28.2247 0.256018 25.9336 0.0984645 23.5703C0.0229703 22.428 0.075488 21.2628 0.183806 20.1206C0.292124 18.975 0.489065 17.8295 0.745089 16.7069C1.18492 14.7736 1.95628 12.9584 2.95083 11.2451C4.11279 9.23954 5.52748 7.44409 7.254 5.88497C8.9477 4.35867 10.8088 3.10809 12.8832 2.16277C15.1481 1.12883 17.5212 0.452665 19.9961 0.288547C22.0968 0.150688 24.2172 0.170382 26.2982 0.610218C28.1265 0.997536 29.9023 1.55554 31.5828 2.38597C33.3881 3.27877 35.0424 4.38493 36.5622 5.71757C37.6782 6.69243 38.6859 7.76248 39.5655 8.94084C40.6815 10.4343 41.6104 12.0427 42.3129 13.7856C43.0087 15.5154 43.5175 17.2846 43.7407 19.1391C43.7932 19.5691 43.9081 19.9925 43.9934 20.4192L44 20.4127Z" fill="white"/>
</g>
<defs>
<clipPath id="clip0_215_25840">
<rect width="44" height="44" fill="white"/>
</clipPath>
</defs>
</svg>
