<svg width="1450" height="501" viewBox="0 0 1450 501" fill="none" xmlns="http://www.w3.org/2000/svg">
<g opacity="0.23" filter="url(#filter0_d_305_2)">
<path d="M262.431 41.0611C240.652 41.1811 196.194 61.7599 193.974 88.3984C160.435 64.4597 115.017 70.8193 84.2982 96.3178C83.0983 97.2778 83.0983 98.5977 83.6983 99.6776C83.4583 100.338 83.3382 100.998 83.5182 101.718C85.7981 112.457 89.878 123.916 94.5578 134.776C79.6184 120.436 61.3192 107.657 43.6199 108.737C-29.0972 113.057 17.5209 269.348 33.1803 303.306C34.0202 305.166 35.8202 305.286 37.2601 304.566C45.9598 315.065 62.9991 314.105 72.7787 304.446C87.0581 290.287 85.1382 268.148 76.6185 251.529C77.1585 241.629 87.8981 234.37 97.3177 243.009C107.157 252.009 103.617 265.688 105.117 277.327C105.357 279.067 106.557 280.087 107.877 280.267C109.017 285.007 110.637 289.567 113.457 291.966C118.497 296.346 129.296 296.586 135.596 296.046C151.316 294.666 165.055 285.727 172.495 271.868C172.615 271.688 172.615 271.448 172.735 271.268C173.155 271.568 173.695 271.868 174.295 272.048C204.533 281.347 249.232 259.208 262.791 228.49C284.69 237.43 311.689 226.39 325.728 208.391C343.908 184.993 338.928 158.834 332.028 132.196C331.128 128.656 326.868 128.896 325.188 131.356C325.308 129.976 324.288 128.416 322.669 128.356C310.609 128.176 297.65 132.196 286.13 135.376C283.61 136.096 282.89 138.135 283.31 139.995C282.47 140.835 282.11 142.095 282.77 143.475C286.19 150.375 283.97 160.274 277.01 164.174C268.071 169.214 259.851 161.474 255.891 154.215C255.771 154.035 255.651 153.915 255.531 153.735C252.171 145.155 249.232 136.456 248.152 127.276C247.492 121.396 247.312 114.737 250.192 109.277C257.691 95.2379 275.93 101.238 278.03 115.697C278.09 116.117 278.27 116.477 278.45 116.837C277.01 119.057 278.69 122.596 281.99 121.816C295.49 118.577 313.069 112.577 322.309 101.658C323.029 100.818 323.209 99.7377 323.029 98.7178C324.709 98.0578 325.908 96.6179 325.668 94.578C321.349 63.6198 294.11 40.8211 262.731 41.0011L262.431 41.0611ZM133.736 286.927C127.496 287.467 120.897 287.287 117.357 281.707C115.437 278.647 114.117 274.807 112.737 271.088C115.077 254.049 108.357 231.73 88.798 230.71C77.9985 230.17 69.8988 239.53 69.5988 249.129C67.8589 250.149 66.7189 252.009 67.6189 254.229C72.4787 266.528 76.9185 280.027 69.9588 292.566C63.5391 304.086 49.0797 307.206 38.9401 299.226C32.1004 268.628 23.1607 239.11 19.5609 207.731C17.881 192.852 16.141 177.373 16.801 162.374C14.701 138.975 28.2605 125.656 57.5394 122.476C62.8191 125.116 67.6789 128.236 72.2387 131.956C118.317 164.714 141.656 219.191 161.935 269.948C155.695 279.667 145.376 286.027 133.736 286.987V286.927ZM252.531 224.29C239.812 250.629 203.753 267.068 176.095 263.888C174.295 263.708 172.915 264.428 172.015 265.508C157.375 228.01 141.296 190.212 115.977 158.534C113.457 155.414 110.577 151.875 107.337 148.275C103.977 132.256 98.2777 114.437 90.898 99.9177C116.697 85.2785 145.556 77.059 174.235 89.1183C192.534 96.8578 210.953 113.117 205.373 135.196C201.833 149.175 189.354 159.074 180.174 169.334C179.154 170.474 178.914 171.913 179.154 173.293C176.814 175.633 178.674 180.313 182.634 179.293C198.114 175.453 214.253 172.453 229.732 178.153C248.452 185.053 262.131 204.432 252.531 224.29ZM284.75 113.537C282.35 94.518 257.811 85.1585 245.032 101.778C233.392 116.837 239.932 140.655 249.651 157.274C251.571 170.294 268.071 177.553 279.59 171.973C290.15 166.874 294.11 153.615 289.19 143.475C300.709 141.075 313.489 138.615 323.869 133.096C324.169 132.916 324.228 132.676 324.468 132.436C324.348 132.736 324.289 133.036 324.229 133.396C323.569 155.174 334.788 173.533 323.209 194.952C310.489 218.591 288.65 222.551 264.591 223.39C265.311 221.111 265.851 218.831 266.211 216.491C272.451 174.733 229.132 162.554 195.834 168.254C217.913 145.815 226.432 115.397 198.714 92.0581C207.173 71.2994 236.452 53.1804 256.431 51.1405C285.71 48.1407 311.209 67.2195 316.369 96.1379C316.369 96.3779 316.549 96.5578 316.669 96.7978C311.389 99.3177 306.649 102.918 301.489 105.737C296.09 108.677 290.45 111.197 284.81 113.597L284.75 113.537Z" fill="#F2F2F2"/>
<path d="M72.4786 177.433C67.0788 177.493 59.2192 181.093 55.4393 186.373C55.4393 186.433 55.3194 186.493 55.2594 186.553C55.2594 186.613 55.2593 186.673 55.1393 186.733C53.9994 188.413 53.3395 190.212 53.2195 192.132C51.7795 200.292 56.5193 209.171 64.139 212.831C75.1185 218.171 86.3981 210.251 88.978 199.152C91.5579 188.113 84.2382 177.193 72.4786 177.373V177.433ZM80.9383 197.292C79.4984 204.072 72.8987 208.991 66.2389 205.272C62.9391 203.472 60.7192 200.412 59.6992 196.992C59.6992 196.932 59.7591 196.872 59.8191 196.812C61.1391 194.112 61.3191 191.472 63.599 189.313C65.4589 187.573 67.9188 186.313 70.4987 185.833C77.6984 184.573 82.3782 190.332 80.9383 197.292Z" fill="#F2F2F2"/>
<path d="M177.774 213.251C176.694 213.431 175.675 214.151 175.195 215.351C174.295 216.611 174.355 218.111 174.895 219.371C175.375 226.27 179.214 232.99 183.294 238.27C184.434 239.709 186.054 239.889 187.314 239.289C187.674 239.709 188.214 240.009 188.994 239.949C201.653 238.51 219.713 230.77 219.533 215.591C219.353 196.932 188.214 206.831 177.714 213.191L177.774 213.251ZM211.493 219.071C208.973 228.67 197.274 232.27 188.994 235.33C188.934 235.15 188.934 235.03 188.814 234.85C185.934 229.87 184.554 224.65 182.814 219.371C187.134 216.791 191.634 214.751 196.674 213.791C201.713 212.831 213.713 210.671 211.493 219.071Z" fill="#F2F2F2"/>
<path d="M138.416 118.937C136.976 118.817 135.296 120.137 135.896 121.757C136.016 122.117 136.196 122.537 136.316 122.897C136.076 124.276 136.616 125.476 137.516 126.256C138.536 129.076 139.556 131.956 140.636 134.776C142.076 138.676 143.276 142.995 145.736 146.355C146.576 147.495 148.376 147.675 149.516 147.015C161.515 150.315 174.355 134.896 169.915 123.316C165.175 111.017 146.216 109.037 138.356 118.937H138.416ZM159.415 137.236C156.535 140.116 153.415 141.015 149.756 140.835C148.196 135.736 145.436 130.576 142.856 125.716C142.976 125.596 143.096 125.536 143.156 125.356C147.176 118.937 159.535 118.277 162.655 126.076C164.215 130.096 162.235 134.416 159.355 137.236H159.415Z" fill="#F2F2F2"/>
<path d="M281.69 90.5585C279.35 86.8387 274.13 84.7389 270.171 83.059C265.731 81.1991 261.171 79.9991 256.431 79.3992C254.091 79.0992 253.131 82.579 255.531 83.059C259.851 83.8989 263.991 85.2188 267.891 87.3187C271.491 89.2385 274.49 92.7184 278.15 94.2783C280.43 95.2382 283.19 92.9584 281.63 90.5585H281.69Z" fill="#F2F2F2"/>
<path d="M262.911 72.0194C261.051 72.2594 260.271 75.3192 262.491 75.6792C271.011 76.9391 276.83 80.3589 281.39 87.7985C283.43 91.0983 288.17 87.9785 286.43 84.6187C282.35 76.6991 271.851 70.7595 262.851 72.0194H262.911Z" fill="#F2F2F2"/>
<path d="M227.992 215.351C226.792 219.131 226.492 222.611 224.033 225.91C221.573 229.27 218.273 231.49 214.313 232.63C211.673 233.41 212.933 237.19 215.513 236.65C224.692 234.73 234.892 225.31 233.092 215.171C232.612 212.351 228.712 213.071 227.992 215.291V215.351Z" fill="#F2F2F2"/>
<path d="M237.472 216.611C233.752 221.411 231.652 228.01 229.012 233.53C227.932 235.87 231.172 237.61 232.552 235.45C235.732 230.29 240.112 224.89 242.152 219.191C243.052 216.611 239.092 214.511 237.472 216.671V216.611Z" fill="#F2F2F2"/>
<path d="M50.1596 170.894C38.58 172.934 32.7003 188.953 39.0601 198.372C40.08 199.872 42.7799 198.852 42.06 196.992C38.7001 188.173 43.1999 179.593 51.8996 176.593C55.6194 175.333 53.8794 170.234 50.1596 170.894Z" fill="#F2F2F2"/>
<path d="M35.6401 162.374C33.4202 164.714 31.5003 167.294 29.4604 169.753C27.6004 172.033 25.5606 174.193 24.0606 176.713C23.1607 178.153 25.1405 180.073 26.5205 178.993C28.8604 177.253 30.8403 175.033 32.9402 172.993C33.1202 172.813 33.3002 172.633 33.4802 172.513C34.5601 172.933 35.9401 172.753 36.7201 171.433C37.8601 169.513 39 167.594 40.1399 165.614C41.7599 162.794 37.8001 160.094 35.5801 162.374H35.6401Z" fill="#F2F2F2"/>
</g>
<g opacity="0.23" filter="url(#filter1_d_305_2)">
<path d="M1432.25 399.835C1422.63 373.095 1413 346.294 1403.14 319.615C1382.06 262.42 1360.25 205.529 1336.5 149.43C1325.23 122.812 1313.53 96.377 1301.23 70.1853C1292.46 51.5466 1284.91 27.4261 1269.62 12.6248C1240.2 -15.8206 1191.83 10.5537 1161.92 25.9033C1156.38 28.7661 1159.55 36.0145 1164.54 36.5627C1164.06 37.5981 1163.93 38.8163 1164.54 40.1564C1218.08 154.547 1253.47 274.541 1296.66 392.891C1308.17 424.443 1319.69 476.948 1355.56 490.165C1379.81 499.058 1429.45 485.597 1442.12 462.025C1452.47 442.655 1438.77 418.108 1432.25 399.956V399.835ZM1418.06 467.263C1410.87 473.232 1396.13 478.653 1385.9 479.689C1354.41 482.978 1343.32 471.161 1331.62 449.538C1330.04 446.614 1328.64 443.629 1327.24 440.584C1331.5 439.914 1335.71 438.635 1339.73 436.747C1342.59 435.346 1340.09 430.899 1337.23 432.422C1333.39 434.432 1329.37 435.711 1325.29 436.381C1319.75 423.712 1315.24 410.311 1310.67 397.337C1316.52 396.058 1322.37 394.901 1328.21 393.5C1330.47 392.952 1329.49 389.541 1327.24 390.028C1321.39 391.307 1315.6 392.708 1309.76 394.109C1309.64 394.109 1309.64 394.231 1309.51 394.292C1308.97 392.769 1308.42 391.185 1307.87 389.723C1299.28 366.09 1291.12 342.335 1283.08 318.519C1288.74 317.544 1294.53 316.631 1299.83 314.742C1301.96 313.95 1301.84 310.174 1299.22 310.478C1293.37 311.088 1287.46 312.793 1281.68 314.377C1277.29 301.403 1272.91 288.368 1268.58 275.333C1272.24 276.003 1275.95 274.907 1279.61 274.236C1284.17 273.323 1288.86 272.653 1293.25 271.069C1295.38 270.277 1295.26 266.684 1292.7 266.805C1288.44 267.049 1284.3 268.085 1280.09 268.937C1276.13 269.729 1271.44 270.156 1268.09 272.47C1267.97 272.592 1267.85 272.714 1267.79 272.896C1267.06 270.765 1266.33 268.633 1265.66 266.501C1261.94 255.476 1258.16 244.451 1254.39 233.487C1260.72 234.766 1267.3 235.254 1273.7 234.096C1275.95 233.67 1275.46 229.833 1273.15 230.015C1266.27 230.564 1259.75 230.746 1252.99 229.406C1248.66 216.798 1244.22 204.25 1239.71 191.702C1239.95 191.763 1240.26 191.824 1240.56 191.824C1246.35 191.215 1252.2 190.545 1257.98 189.875C1261.64 189.449 1261.64 183.662 1257.98 184.15C1251.95 184.941 1245.92 185.733 1239.89 186.586C1239.1 186.708 1238.61 187.134 1238.31 187.743C1233.5 174.465 1228.62 161.247 1223.45 148.09C1229.17 147.664 1234.9 147.298 1240.56 146.568C1244.28 146.08 1244.46 140.294 1240.56 140.598C1234.17 141.146 1227.71 142.06 1221.37 142.974C1217.96 134.324 1214.55 125.614 1210.9 117.087C1219 116.904 1227.22 115.503 1234.65 112.884C1238.06 111.666 1236.66 106.306 1233.13 107.402C1224.97 109.96 1217.11 111.544 1208.83 112.457C1197.62 86.3876 1185.38 60.8052 1171.43 36.0145C1171.06 35.4054 1170.7 34.979 1170.21 34.6744C1194.02 22.4923 1215.95 12.4421 1242.75 17.4368C1263.65 21.335 1265.96 25.9641 1275.22 43.1409C1280.95 53.8003 1285.88 65.1297 1291.06 76.0937C1311.52 119.767 1330.41 164.11 1348.31 208.879C1364.15 248.471 1379.2 288.429 1393.88 328.447C1405.88 361.156 1450.59 440.218 1417.94 467.263H1418.06Z" fill="#F2F2F2"/>
<path d="M1244.64 35.71C1241.17 29.6798 1233.98 27.9743 1227.28 27.8524C1226.8 26.2078 1224.79 24.9287 1223.14 26.086C1222.11 26.756 1221.25 27.5479 1220.52 28.4006C1219.24 28.9488 1218.51 30.1062 1218.51 31.3244C1212.36 42.8974 1222.29 61.4751 1237.09 54.7749C1244.22 51.5466 1249.03 43.141 1244.76 35.7708L1244.64 35.71ZM1234.17 48.0139C1229.48 50.2067 1225.21 47.5875 1223.87 42.8364C1222.96 39.6691 1223.57 36.9281 1224.66 34.309C1228.56 34.309 1232.64 34.6745 1235.87 36.8063C1240.87 40.0955 1239.04 45.6993 1234.17 48.0139Z" fill="#F2F2F2"/>
<path d="M1223.2 59.7696C1214.06 59.6478 1206.33 54.9577 1201.76 47.0393C1200.97 45.6993 1198.59 46.6129 1199.2 48.1357C1202.98 58.0032 1212.6 64.5816 1223.2 64.5207C1226.25 64.5207 1226.25 59.8306 1223.2 59.7696Z" fill="#F2F2F2"/>
<path d="M1228.26 72.8656C1220.64 71.1601 1213.58 68.9673 1206.63 65.4345C1204.08 64.0944 1201.88 67.8101 1204.38 69.3328C1211.26 73.5357 1218.88 76.703 1226.86 78.043C1230.15 78.5912 1231.67 73.6575 1228.26 72.9265V72.8656Z" fill="#F2F2F2"/>
<path d="M1314.69 346.721C1312.99 346.964 1311.28 347.208 1309.57 347.452C1308.48 347.634 1307.93 348.365 1307.93 349.218C1305.19 349.888 1302.39 350.132 1299.34 350.193C1297.45 350.193 1296.9 353.177 1298.85 353.604C1304.58 354.822 1310.61 353.482 1315.85 351.045C1316.03 350.984 1316.21 350.924 1316.4 350.802C1318.89 349.583 1316.94 346.355 1314.69 346.66V346.721Z" fill="#F2F2F2"/>
<path d="M1408.5 409.154C1406.42 406.231 1402.22 408.728 1403.74 411.956C1409.23 423.773 1409.65 433.762 1403.5 445.518C1402.59 447.224 1404.96 449.355 1406.3 447.711C1414.65 437.478 1416.29 420.24 1408.5 409.215V409.154Z" fill="#F2F2F2"/>
<path d="M1401.43 433.396C1396.62 426.026 1393.02 418.595 1391.14 409.946C1390.28 406.108 1384.01 407.753 1385.23 411.59C1387.97 420.423 1392.11 428.889 1398.08 436.016C1399.66 437.904 1402.83 435.467 1401.49 433.396H1401.43Z" fill="#F2F2F2"/>
</g>
<g opacity="0.23" filter="url(#filter2_d_305_2)">
<path d="M884.799 153.642C885.634 154.633 887.024 155.219 888.487 154.488C901.228 148.034 914.981 139.106 913.227 122.908C911.829 110.292 902.735 98.2699 894.143 87.9085C894.159 87.6951 894.116 87.4686 894.014 87.2291C890.586 78.7525 881.785 75.2273 873.069 76.3708C861.58 77.8626 852.677 87.149 846.546 96.2415C846.474 96.2876 846.483 96.3828 846.47 96.4419C845.297 95.7178 844.111 95.0527 842.935 94.4829C842.265 94.1488 841.579 94.5863 841.235 95.1613C834.773 94.6637 827.615 99.2824 826.888 105.942C826.829 106.487 827.093 106.979 827.441 107.366C819.263 107.76 811.135 114.521 811.261 123.074C811.275 124.131 812.274 124.662 813.154 124.608C763.586 153.09 715.985 187.68 669.253 220.446C668 221.347 667.63 222.599 667.809 223.754C667.015 224.261 666.773 225.075 666.984 225.804C655.878 239.595 645.964 254.3 635.922 268.884C630.357 276.954 621.37 286.346 621.639 296.636C621.676 297.729 622.334 298.68 623.274 299.198C631.241 303.407 646.109 296.865 653.681 294.166C669.863 288.41 685.39 280.432 700.401 272.123C701.409 272.749 702.631 272.833 703.933 271.849C727.245 254.028 750.925 236.784 775.497 220.699C798.156 205.833 822.493 193.198 844.875 177.9C845.026 178.057 845.178 178.215 845.401 178.326C854.059 183.06 862.701 178.459 867.055 170.958C877.835 171.696 884.227 163.25 884.858 153.655L884.799 153.642ZM886.128 84.8978C892.112 94.435 899.353 103.475 904.222 113.572C912.797 131.307 900.243 142.112 885.402 149.652C885.149 149.814 884.969 149.929 884.798 150.139C884.698 148.629 884.407 147.139 883.998 145.622C879.245 128.545 865.191 109.227 849.694 98.5491L849.766 98.503C859.074 90.3292 874.181 75.4074 886.128 84.8978ZM829.46 107.347C829.46 107.347 829.631 107.137 829.729 106.973C832.407 100.744 838.636 98.6482 844.667 101.097C845.492 101.434 846.339 101.249 846.965 100.798C854.942 107.49 861.338 115.444 867.098 124.311C873.204 133.72 893.11 167.383 868.699 167.167C869.353 165.327 869.748 163.399 869.811 161.429C870.746 139.656 850.159 118.616 833.43 107.759C833.02 107.514 832.626 107.613 832.324 107.856C831.368 107.552 830.432 107.438 829.46 107.347ZM819.674 126.389C820.035 126.159 820.231 125.831 820.392 125.525C824.868 129.118 828.888 132.951 832.344 137.094C807.738 157.264 778.06 169.804 751.181 186.651C728.114 201.116 706.258 217.399 686.142 235.771C686.172 233.67 685.762 231.596 684.768 229.64C683.237 226.605 680.49 224.448 677.376 223.388C725.28 192.616 775.006 161.596 819.638 126.413L819.674 126.389ZM835.886 141.689C838.968 146.121 841.486 150.863 843.259 156.028C796.267 188.706 741.696 213.169 699.597 252.322C699.82 249.489 699.154 246.613 697.289 244.248C694.602 240.834 690.07 239.46 685.96 240.102C709.39 222.307 732.968 204.824 758.05 189.378C783.997 173.379 812.314 161.251 835.909 141.725L835.886 141.689ZM641.999 291.616C637.246 292.922 632.431 293.812 627.493 294.271C628.161 292.372 628.992 290.572 630.024 288.847C632.62 282.569 637.114 276.401 641.578 270.505C650.041 271.91 656.618 277.362 657.913 286.235C657.506 286.393 657.158 286.564 656.751 286.722C651.94 288.574 647.001 290.303 641.999 291.616ZM697.43 267.468C685.735 273.254 674.153 279.376 662.152 284.444C660.845 275.629 652.974 267.753 643.994 267.288C645.787 264.925 647.544 262.585 649.074 260.288C656.55 249.322 663.907 238.33 670.538 226.837C670.787 226.83 671.05 226.764 671.3 226.757C671.336 226.734 671.418 226.784 671.513 226.774C680.197 226.615 683.999 236.631 677.48 243.127C675.528 245.083 678.379 248.596 680.705 246.909C681.296 246.481 681.84 245.981 682.361 245.446C685.747 243.59 690.167 243.512 692.955 246.608C696.627 250.612 694.244 256.348 690.202 258.927C688.037 260.309 689.634 264.165 692.125 263.134C693.969 262.363 695.537 261.16 696.744 259.628C697.367 259.332 697.954 259.058 698.555 258.726C699.541 259.874 700.443 261.127 700.973 262.515C701.233 263.162 701.28 263.792 701.386 264.436C700.904 264.794 700.408 265.212 699.926 265.57C699.359 266.034 698.992 266.573 698.766 267.174C698.362 267.178 697.909 267.264 697.466 267.445L697.43 267.468ZM705.053 261.588C704.232 259.267 702.755 257.112 701.089 255.535C747.294 221.226 797.679 194.102 844.759 161.165C845.505 164.244 846.093 167.474 846.334 170.875C846.351 171.22 846.476 171.495 846.578 171.735C795.949 192.108 748.12 228.012 705.053 261.588ZM848.923 175.012C849.32 174.759 849.717 174.505 850.055 174.239C850.308 174.078 850.455 173.831 850.589 173.644C851.784 173.288 852.719 172.285 852.608 170.68C851.407 150.016 840.09 129.257 820.632 120.649C819.42 120.102 818.12 120.931 817.731 121.992C817.468 122.058 817.242 122.101 816.989 122.262C816.064 122.802 815.175 123.319 814.25 123.858C814.348 123.694 814.41 123.553 814.463 123.316C816.037 114.085 825.838 109.709 833.992 113.495C834.722 113.842 835.473 113.667 836.051 113.298C844.318 120.922 851.952 129.304 857.612 139.049C860.172 143.459 862.748 148.213 864.097 153.192C866.671 162.875 862.38 179.07 848.91 175.071L848.923 175.012Z" fill="#F2F2F2"/>
<path d="M897.761 134.403C901.117 129.874 902.091 123.92 901.001 118.471C900.839 117.661 899.457 117.882 899.547 118.739C900.023 124.021 898.39 128.466 895.418 132.8C894.536 134.124 896.761 135.701 897.761 134.403Z" fill="#F2F2F2"/>
<path d="M891.624 129.481C893.731 125.7 894.94 121.627 895.122 117.296C895.186 115.884 892.957 115.733 892.692 117.069C891.985 120.974 890.666 124.558 888.51 127.863C887.297 129.704 890.481 131.43 891.601 129.445L891.624 129.481Z" fill="#F2F2F2"/>
<path d="M659.711 253.958C660.814 251.629 661.964 249.372 662.986 246.993C663.385 246.027 662.127 245.409 661.563 246.276C660.19 248.422 658.945 250.689 657.677 252.92C656.521 254.927 655.174 256.955 654.382 259.136C653.98 260.256 655.744 261.111 656.439 260.21C657.819 258.314 658.683 256.087 659.675 253.981L659.711 253.958Z" fill="#F2F2F2"/>
<path d="M661.066 263.402C662.757 258.971 664.578 255.219 667.621 251.551C668.168 250.897 667.336 249.752 666.588 250.331C662.753 253.235 659.469 257.717 658.306 262.421C657.895 264.004 660.463 265.005 661.066 263.402Z" fill="#F2F2F2"/>
<path d="M769.587 189.075C763.818 191.334 758.204 194.713 752.949 198.016C751.649 198.845 752.614 201.073 754.098 200.533C759.831 198.297 765.961 195.807 771.144 192.55C772.913 191.422 771.609 188.343 769.574 189.134L769.587 189.075Z" fill="#F2F2F2"/>
</g>
<defs>
<filter id="filter0_d_305_2" x="0" y="41" width="342.289" height="279.071" filterUnits="userSpaceOnUse" color-interpolation-filters="sRGB">
<feFlood flood-opacity="0" result="BackgroundImageFix"/>
<feColorMatrix in="SourceAlpha" type="matrix" values="0 0 0 0 0 0 0 0 0 0 0 0 0 0 0 0 0 0 127 0" result="hardAlpha"/>
<feOffset dy="4"/>
<feGaussianBlur stdDeviation="2"/>
<feComposite in2="hardAlpha" operator="out"/>
<feColorMatrix type="matrix" values="0 0 0 0 0 0 0 0 0 0 0 0 0 0 0 0 0 0 0.25 0"/>
<feBlend mode="normal" in2="BackgroundImageFix" result="effect1_dropShadow_305_2"/>
<feBlend mode="normal" in="SourceGraphic" in2="effect1_dropShadow_305_2" result="shape"/>
</filter>
<filter id="filter1_d_305_2" x="1155" y="0" width="294.865" height="500.924" filterUnits="userSpaceOnUse" color-interpolation-filters="sRGB">
<feFlood flood-opacity="0" result="BackgroundImageFix"/>
<feColorMatrix in="SourceAlpha" type="matrix" values="0 0 0 0 0 0 0 0 0 0 0 0 0 0 0 0 0 0 127 0" result="hardAlpha"/>
<feOffset dy="4"/>
<feGaussianBlur stdDeviation="2"/>
<feComposite in2="hardAlpha" operator="out"/>
<feColorMatrix type="matrix" values="0 0 0 0 0 0 0 0 0 0 0 0 0 0 0 0 0 0 0.25 0"/>
<feBlend mode="normal" in2="BackgroundImageFix" result="effect1_dropShadow_305_2"/>
<feBlend mode="normal" in="SourceGraphic" in2="effect1_dropShadow_305_2" result="shape"/>
</filter>
<filter id="filter2_d_305_2" x="617.633" y="76.1611" width="299.746" height="232.413" filterUnits="userSpaceOnUse" color-interpolation-filters="sRGB">
<feFlood flood-opacity="0" result="BackgroundImageFix"/>
<feColorMatrix in="SourceAlpha" type="matrix" values="0 0 0 0 0 0 0 0 0 0 0 0 0 0 0 0 0 0 127 0" result="hardAlpha"/>
<feOffset dy="4"/>
<feGaussianBlur stdDeviation="2"/>
<feComposite in2="hardAlpha" operator="out"/>
<feColorMatrix type="matrix" values="0 0 0 0 0 0 0 0 0 0 0 0 0 0 0 0 0 0 0.25 0"/>
<feBlend mode="normal" in2="BackgroundImageFix" result="effect1_dropShadow_305_2"/>
<feBlend mode="normal" in="SourceGraphic" in2="effect1_dropShadow_305_2" result="shape"/>
</filter>
</defs>
</svg>
