<svg width="38" height="38" viewBox="0 0 38 38" fill="none" xmlns="http://www.w3.org/2000/svg">
<g clip-path="url(#clip0_215_25842)">
<path d="M28.7403 38.0004H9.18364C8.73647 37.9012 8.28837 37.8074 7.84306 37.7008C5.98388 37.2554 4.38725 36.3157 3.04853 34.9806C2.43808 34.3721 1.92968 33.6401 1.47695 32.9007C0.597456 31.4645 0.0853462 29.8846 0.0797798 28.1915C0.0602974 22.1798 0.0658638 16.168 0.0834907 10.1563C0.0853462 9.47166 0.159565 8.77215 0.310786 8.10418C0.845161 5.74588 2.0642 3.80135 3.95864 2.28543C5.72783 0.87156 7.7642 0.0969018 10.0038 0.0848413C16.0331 0.0532983 22.0624 0.116384 28.0918 0.137722C28.9184 0.140505 29.7135 0.280593 30.5132 0.497683C32.6024 1.06453 34.3002 2.22327 35.6677 3.8635C36.6112 4.99627 37.2773 6.29417 37.6308 7.73772C37.7597 8.2656 37.8766 8.7972 38 9.32693V28.8131C37.9508 28.942 37.872 29.0673 37.8571 29.1999C37.7476 30.1453 37.473 31.0471 37.0825 31.9061C36.3765 33.4582 35.3643 34.7803 33.9977 35.8184C32.8297 36.7062 31.555 37.3733 30.118 37.7054C29.6606 37.8112 29.1995 37.903 28.7403 38.0004ZM2.29428 19.0366C2.29428 22.1111 2.28593 25.1856 2.29985 28.2601C2.30356 29.1675 2.56332 30.033 2.91679 30.8615C3.51425 32.2633 4.42714 33.4258 5.67773 34.3025C6.91718 35.1708 8.29116 35.7562 9.81264 35.7646C15.4663 35.7961 21.1208 35.7785 26.7744 35.7766C27.768 35.7766 28.7477 35.7618 29.7348 35.503C31.4511 35.053 32.8418 34.1253 33.9532 32.8005C35.2743 31.2252 35.7781 29.3363 35.7781 27.2999C35.7781 21.7679 35.7855 16.2367 35.7679 10.7046C35.766 9.99397 35.6862 9.27127 35.5443 8.57454C35.1769 6.76731 34.2167 5.28201 32.813 4.12049C31.2572 2.83372 29.411 2.29099 27.4034 2.29007C23.0458 2.28728 18.6873 2.28264 14.3298 2.29285C12.7313 2.29656 11.1319 2.34016 9.53339 2.3615C8.65297 2.37263 7.83286 2.64539 7.04428 2.99051C5.69721 3.58054 4.58393 4.48601 3.74804 5.69856C2.88896 6.94451 2.32211 8.3222 2.30541 9.85017C2.27109 12.9117 2.29521 15.9741 2.29521 19.0366H2.29428Z" fill="white"/>
<path d="M19.4166 29.409C13.2712 29.3422 8.99717 24.8585 8.67988 19.8385C8.26519 13.2748 13.2731 9.14824 17.8914 8.74004C20.784 8.48398 23.4114 9.21133 25.6639 11.1048C27.8348 12.9297 29.0724 15.2666 29.322 18.0823C29.5919 21.1253 28.7004 23.8343 26.6121 26.0701C24.5302 28.2985 21.9149 29.4035 19.4166 29.41V29.409ZM18.9249 27.1788C23.172 27.2817 27.5593 23.5986 27.1205 18.2567C26.8375 14.8232 23.7027 10.4972 18.127 10.9518C14.6443 11.2356 10.5762 14.4382 10.8972 19.6446C11.1393 23.5662 14.4764 27.1528 18.9249 27.1778V27.1788Z" fill="white"/>
<path d="M29.6059 5.02878C31.1246 4.89982 32.852 6.30905 32.6739 8.35563C32.557 9.68971 31.3092 11.2251 29.3786 11.0989C27.9109 11.0025 26.7271 9.78249 26.5926 8.32502C26.4098 6.33688 28.1094 4.88962 29.6068 5.02878H29.6059ZM29.655 7.25163C29.1244 7.24885 28.8182 7.52531 28.8173 8.00773C28.8164 8.48644 29.1578 8.87795 29.5799 8.88166C30.0716 8.8863 30.4455 8.5319 30.4455 8.06247C30.4455 7.54479 30.1625 7.25348 29.655 7.2507V7.25163Z" fill="white"/>
</g>
<defs>
<clipPath id="clip0_215_25842">
<rect width="38" height="38" fill="white"/>
</clipPath>
</defs>
</svg>
