<svg width="35" height="35" viewBox="0 0 35 35" fill="none" xmlns="http://www.w3.org/2000/svg">
<g clip-path="url(#clip0_215_25846)">
<path d="M34.9999 15.6891V18.4285C34.9785 18.45 34.9414 18.47 34.9371 18.4943C34.8643 18.943 34.7915 19.3917 34.7272 19.8419C34.5302 21.2252 34.1219 22.5499 33.5594 23.8232C32.3744 26.5055 30.614 28.739 28.2869 30.5296C26.3167 32.0458 24.1308 33.1105 21.7123 33.6606C20.7515 33.8793 19.7649 34.0336 18.7827 34.0908C17.3778 34.1737 15.9601 34.1637 14.581 33.8236C13.5059 33.5578 12.4394 33.2405 11.3901 32.8875C10.4264 32.5646 9.54692 31.7772 8.44331 32.466C8.40762 32.4888 8.35765 32.4845 8.31482 32.4988C6.57445 33.0576 4.83266 33.6135 3.09373 34.1751C2.25995 34.4438 1.42903 34.7224 0.598114 34.9968H0.254039C0.164094 34.8553 0.00419211 34.7167 -9.09835e-05 34.5724C-0.00580177 34.3494 0.0784324 34.1179 0.152673 33.9007C1.05498 31.217 1.96299 28.5347 2.86244 25.8495C2.89385 25.7552 2.90527 25.6252 2.8653 25.5409C2.50552 24.7706 2.09862 24.0189 1.76883 23.2372C1.08353 21.6124 0.713758 19.8976 0.612391 18.147C0.53244 16.7651 0.586693 15.3818 0.8551 14.0042C1.11209 12.6881 1.48186 11.4162 2.01725 10.1944C2.79248 8.42526 3.85469 6.83474 5.15818 5.41285C6.04192 4.44825 7.04559 3.61512 8.13064 2.88631C9.64115 1.87455 11.2687 1.11145 13.0205 0.619857C14.1698 0.298323 15.3319 0.061103 16.5241 0.0139448C17.1394 -0.0103489 17.7562 0.0282352 18.3715 0.00537056C19.4451 -0.0332135 20.4959 0.141129 21.531 0.366917C23.0287 0.694167 24.4621 1.22148 25.8255 1.946C27.1176 2.63194 28.324 3.44078 29.3833 4.4411C30.12 5.13705 30.7953 5.90587 31.4364 6.69327C32.5742 8.08658 33.3995 9.66281 33.9962 11.3605C34.3817 12.4594 34.6758 13.5769 34.8 14.7373C34.8343 15.0589 34.9314 15.3732 34.9999 15.6905V15.6891ZM5.34949 29.7294C6.71009 29.2878 7.99501 28.8591 9.28851 28.4575C9.66685 28.3403 10.0438 28.1774 10.4706 28.4218C11.2159 28.8491 11.9769 29.2592 12.7621 29.6036C14.0028 30.1466 15.322 30.4582 16.6697 30.5339C17.8247 30.5982 18.984 30.5711 20.1404 30.3581C21.5853 30.0923 22.9616 29.6308 24.2379 28.9377C25.5171 28.2432 26.7164 27.4015 27.673 26.2739C28.2298 25.6166 28.798 24.9607 29.2748 24.2461C30.5169 22.3855 31.1851 20.3034 31.3607 18.087C31.4621 16.8094 31.3864 15.5233 31.1109 14.2529C30.7339 12.5237 30.0558 10.9232 29.075 9.46703C28.2797 8.28522 27.2861 7.26917 26.1567 6.38888C24.799 5.32997 23.2942 4.55829 21.6452 4.08242C20.7087 3.8109 19.7535 3.5894 18.7684 3.57225C18.1745 3.56225 17.582 3.58082 16.9881 3.56796C15.873 3.54224 14.8051 3.79947 13.7515 4.11671C12.2981 4.554 10.9546 5.23136 9.72538 6.12022C8.78025 6.8033 7.93077 7.60071 7.20121 8.50958C6.27321 9.66567 5.52938 10.9375 5.01541 12.3323C4.52143 13.6713 4.19306 15.0546 4.16593 16.485C4.15165 17.2481 4.19591 18.0213 4.30727 18.7758C4.43434 19.6361 4.59567 20.5021 4.8655 21.3252C5.2724 22.5685 5.86489 23.7345 6.64727 24.7963C6.83001 25.045 6.87142 25.3136 6.75863 25.6152C6.55304 26.1596 6.36316 26.7098 6.17613 27.2614C5.90486 28.0617 5.64074 28.8648 5.35235 29.7294H5.34949Z" fill="white"/>
<path d="M14.2784 15.8076C15.0251 16.8708 15.8474 17.8583 16.8383 18.7072C17.6364 19.3902 18.4758 19.989 19.4353 20.4206C19.9821 20.6649 20.0749 20.6464 20.4204 20.1805C20.7259 19.7675 21.0571 19.3731 21.3655 18.9615C21.7124 18.4985 22.1693 18.4657 22.6604 18.6328C23.053 18.7672 23.4357 18.9344 23.8097 19.1144C24.6349 19.5117 25.453 19.9247 26.2739 20.332C26.6137 20.5006 26.7394 20.7721 26.7308 21.1551C26.7137 21.9797 26.6066 22.7713 26.114 23.4673C25.6614 24.1075 25.0204 24.5176 24.3408 24.8563C23.6512 25.2007 22.8903 25.3165 22.1336 25.2579C21.5225 25.2107 20.9029 25.0892 20.3219 24.8992C19.2911 24.5619 18.256 24.209 17.2766 23.7474C16.1416 23.2129 15.1108 22.487 14.207 21.6024C13.6574 21.0651 13.0734 20.5549 12.5837 19.9676C11.2959 18.4228 9.9996 16.8766 9.40711 14.8916C9.14869 14.0242 9.09016 13.1596 9.26576 12.2551C9.43138 11.4033 9.76831 10.6588 10.2951 9.98574C10.692 9.47843 11.2788 9.32409 11.8599 9.18976C12.2482 9.09973 12.6537 9.08687 13.0534 9.04543C13.5731 8.99256 13.9243 9.27408 14.1271 9.69707C14.4797 10.433 14.7795 11.1933 15.0965 11.9449C15.2207 12.2379 15.2935 12.5594 15.4534 12.831C15.8689 13.5383 15.6176 14.1442 15.1993 14.7173C14.928 15.0888 14.6054 15.4232 14.2813 15.8048L14.2784 15.8076Z" fill="white"/>
</g>
<defs>
<clipPath id="clip0_215_25846">
<rect width="35" height="35" fill="white"/>
</clipPath>
</defs>
</svg>
