<svg width="1508" height="1701" viewBox="0 0 1508 1701" fill="none" xmlns="http://www.w3.org/2000/svg">
<path d="M1079.4 957.408C1070.62 946.12 1061.47 935.138 1052.05 924.401C1047.74 919.476 1040.76 908.035 1033.63 906.291C1029.72 905.312 1025.68 906.933 1021.92 909.197C1013.87 905.067 1001.24 906.352 997.902 915.407C990.01 914.428 981.475 918.925 979.027 926.726C979.027 926.726 979.027 926.756 979.027 926.787C971.441 927.001 964.16 931.62 962.661 939.941C962.661 939.972 962.661 940.033 962.661 940.063C955.533 939.849 948.191 944.071 946.264 951.137C945.407 951.015 944.52 950.984 943.602 951.015C938.035 951.321 932.222 954.441 929.683 959.55C929.041 960.835 928.888 963.129 929.377 964.873C927.817 964.23 926.165 963.771 924.452 963.618C918.365 963.098 911.91 965.76 908.881 971.235C906.679 975.212 906.893 981.116 910.686 983.869C910.564 983.961 910.472 984.022 910.35 984.114C905.577 981.33 899.581 980.382 893.983 982.309C888.263 984.267 883.093 989.223 883.001 995.616C882.94 999.868 885.938 1006.72 890.985 1005.8C889.762 1010.02 888.446 1014.22 886.825 1018.38C886.519 1019.2 886.825 1019.91 887.437 1020.39C887.467 1020.55 887.498 1020.67 887.59 1020.82C901.05 1045.94 916.774 1073.53 934.67 1095.77C950.241 1115.13 964.496 1107.03 983.28 1096.78C1011.21 1081.58 1039.14 1066.34 1067.07 1051.11C1085.15 1041.23 1107.14 1030.34 1103.29 1006.26C1108.83 988.825 1088.73 969.247 1079.46 957.378L1079.4 957.408ZM1017.27 912.348C1015.4 913.725 1013.69 915.04 1012.16 916.05C1010.38 917.212 1008.61 918.374 1006.83 919.537C1005.83 918.589 1004.69 917.763 1003.41 917.12C1002.74 916.753 1002.03 916.478 1001.33 916.233C1005.7 912.134 1011.7 910.298 1017.27 912.379V912.348ZM1001.6 921.525C1001.97 921.739 1002.28 922.045 1002.61 922.29C998.575 924.951 994.507 927.613 990.438 930.244C987.899 928.378 984.962 927.276 981.964 926.909C986.339 920.975 994.721 917.396 1001.6 921.525ZM986.094 933.119C982.607 935.414 979.089 937.677 975.601 940.002C974.133 940.981 972.695 941.96 971.257 942.939C970.401 942.327 969.483 941.776 968.473 941.348C967.403 940.889 966.24 940.553 965.108 940.339C969.575 932.875 977.834 928.225 986.125 933.15L986.094 933.119ZM966.577 945.753C966.577 945.753 966.73 945.845 966.791 945.906C962.508 948.782 958.256 951.627 953.973 954.502C952.474 953.279 950.73 952.33 948.864 951.749C952.872 946.304 959.877 942.48 966.577 945.753ZM935.343 959.427C936.536 958.357 938.004 957.5 939.503 956.95C942.409 955.848 945.652 955.756 948.528 957.011C948.864 957.164 949.14 957.378 949.476 957.561C944.398 960.987 939.259 964.383 934.18 967.84C933.783 967.503 933.354 967.228 932.926 966.953C933.11 966.861 933.293 966.769 933.477 966.647C934.547 965.943 934.119 964.322 932.834 964.261C931.488 964.2 935.067 959.733 935.373 959.458L935.343 959.427ZM914.418 971.664C917.692 968.666 922.464 968.054 926.563 969.339C927.726 969.706 928.766 970.226 929.745 970.838C924.146 974.662 918.518 978.486 912.95 982.371C911.39 978.608 910.992 974.815 914.418 971.664ZM912.613 1003.02C911.39 1006.29 916.529 1007.58 917.783 1004.46C920.567 997.605 918.487 991.364 914.143 987.082C920.567 982.86 926.991 978.608 933.416 974.356C933.936 975.121 934.364 975.946 934.731 976.834C936.383 981.086 935.22 984.42 934.211 988.58C933.691 990.691 936.658 992.924 938.218 990.905C942.96 984.787 941.859 977.139 937.729 971.511C942.929 968.085 948.099 964.658 953.3 961.232C955.503 964.964 955.472 969.981 953.361 973.958C951.801 976.956 955.992 979.373 957.858 976.589C961.682 970.868 960.978 963.741 957.522 958.448C962.019 955.481 966.546 952.514 971.043 949.547C973.888 953.554 973.949 959.121 971.961 963.863C970.859 966.524 975.173 968.207 976.549 965.79C979.976 959.917 979.027 952.269 975.142 946.855C980.159 943.551 985.176 940.278 990.163 936.974C993.497 941.899 992.579 948.568 987.042 952.177C984.87 953.585 986.216 957.225 988.847 956.46C998.514 953.676 998.851 941.807 994.17 934.373C997.596 932.11 1001.02 929.846 1004.48 927.613C1005.03 927.276 1005.58 926.879 1006.16 926.45C1008.61 931.1 1008.15 937.157 1005.15 941.623C1003.35 944.346 1007.57 946.64 1009.47 944.132C1013.93 938.197 1013.81 929.785 1010.08 923.544C1013.81 920.761 1018.06 917.64 1022.38 915.591C1027.67 920.76 1025.53 927.919 1020.2 932.538C1018.52 934.006 1020.3 937.096 1022.44 936.362C1031.71 933.058 1032.44 921.036 1027.36 913.847C1030.33 913.174 1033.27 913.266 1036.02 914.642C1043.45 918.374 1050.76 931.253 1056.15 937.708C1063.86 946.916 1071.35 956.307 1078.63 965.851C1082.33 970.685 1086.16 975.549 1089.62 980.596C1095.21 988.764 1095.31 989.498 1093.62 1000.97C1091.66 1014.28 1089.55 1014.43 1079.52 1021.53C1075.63 1024.28 1071.66 1026.97 1067.68 1029.6C1059.7 1034.86 1051.59 1039.91 1043.33 1044.75C1026.81 1054.38 1009.77 1063.1 992.273 1070.78C977.253 1077.36 963.365 1086.65 948.222 1072.37C940.696 1065.24 934.547 1055.18 928.766 1046.58C917.997 1030.52 908.973 1013.48 901.325 995.739C901.325 995.708 901.295 995.708 901.264 995.678C904.048 993.873 906.832 992.007 909.646 990.202C913.011 993.261 914.602 998.003 912.675 1003.14L912.613 1003.02ZM888.11 994.882C888.966 990.447 893.616 987.632 897.746 986.867C900.499 986.347 903.161 986.653 905.516 987.571C903.069 989.284 900.591 990.997 898.144 992.741C897.379 993.291 897.165 994.087 897.287 994.821C897.165 994.913 897.104 995.035 896.981 995.127C896.981 994.729 897.042 994.332 897.042 993.903C897.073 992.404 894.87 992.129 894.473 993.567C893.463 996.993 892.545 1000.42 891.567 1003.81C889.915 1000.88 887.314 998.89 888.11 994.882ZM1040.45 1059.55C1022.19 1069.49 1003.96 1079.47 985.696 1089.41C975.754 1094.82 965.261 1103.27 953.82 1101.58C940.207 1099.56 934.15 1085.98 927.205 1075.21C915.275 1056.65 903.834 1037.53 890.618 1019.87C893.371 1013.39 895.635 1006.48 896.583 999.44C906.832 1023.06 919.619 1045.3 935.343 1065.7C940.666 1072.61 946.539 1082.43 954.768 1086.23C963.762 1090.36 972.878 1085.06 981.261 1081.67C1004.51 1072.22 1027.09 1061.08 1048.71 1048.32C1060.25 1041.5 1071.47 1034.25 1082.43 1026.54C1087.32 1023.12 1093.65 1019.42 1098.18 1014.64C1094.97 1037.43 1057.49 1050.28 1040.42 1059.61L1040.45 1059.55Z" fill="#F2F2F2" fill-opacity="0.28"/>
<path d="M965.781 1047.96C965.598 1047.96 965.414 1047.9 965.261 1047.87C965.047 1047.84 964.833 1047.87 964.649 1047.87C962.324 1045.91 959.602 1040.62 958.164 1038.69C955.35 1034.99 952.535 1031.29 949.751 1027.58C945.01 1021.31 940.329 1014.98 935.404 1008.86C934.486 1007.73 932.59 1009.2 933.385 1010.42C939.595 1019.88 946.233 1029.05 952.719 1038.32C955.411 1042.18 959.632 1052.58 965.078 1052.85C966.362 1052.91 967.219 1051.78 967.311 1050.62C967.311 1050.4 967.341 1050.16 967.372 1049.95C967.433 1049.12 966.668 1048.05 965.842 1047.93L965.781 1047.96Z" fill="#F2F2F2" fill-opacity="0.28"/>
<path d="M980.955 1040.07C971.716 1024.74 958.439 1010.7 945.897 998.033C944.765 996.901 943.174 998.584 944.184 999.746C955.747 1013.7 965.995 1028.81 977.651 1042.6C979.211 1044.44 982.148 1042.08 980.955 1040.07Z" fill="#F2F2F2" fill-opacity="0.28"/>
<path d="M1076.43 975.182C1075.21 974.417 1073.74 976.253 1074.87 977.201C1077.56 979.434 1079.95 981.912 1081.88 984.849C1083.71 987.663 1084.57 990.783 1086.16 993.659C1086.98 995.127 1089.8 994.576 1089.55 992.741C1088.61 985.613 1082.27 978.883 1076.43 975.151V975.182Z" fill="#F2F2F2" fill-opacity="0.28"/>
<path d="M1086.01 1000.69C1083.93 994.576 1081.02 987.877 1077.78 982.309C1076.95 980.902 1074.84 981.85 1075.21 983.38C1076.74 989.651 1079.31 996.473 1082.06 1002.35C1083.1 1004.55 1086.77 1002.99 1086.01 1000.69Z" fill="#F2F2F2" fill-opacity="0.28"/>
<path d="M159.085 1534.39C117.863 1517.95 69.2941 1533.73 51.9904 1575.99C32.7022 1623.13 54.6016 1679.57 102.021 1698.86C103.135 1699.31 104.006 1698.4 104.145 1697.39C144.044 1708.47 190.037 1686.43 205.913 1647.99C224.017 1604.09 203.406 1552.04 159.12 1534.39H159.085ZM176.319 1551.86C187.495 1560.81 195.677 1572.61 200.516 1585.71C179.244 1589.29 134.574 1595.28 131.928 1623.06C127.228 1621.64 122.667 1619.89 118.35 1617.87C115.008 1616.31 111.909 1614.5 108.985 1612.51C120.996 1586.12 143.07 1564.92 174.822 1553.15C175.553 1552.87 176.041 1552.39 176.354 1551.83L176.319 1551.86ZM111.039 1539.92C112.605 1538.88 112.605 1537.14 111.77 1535.95C128.447 1532.89 146.447 1535.12 162.776 1543.2C165.909 1544.73 168.799 1546.54 171.619 1548.45C141.573 1558.31 117.027 1580.69 103.275 1608.2C101.012 1606.32 98.9575 1604.26 96.973 1602.1C98.8182 1598.13 100.106 1593.89 100.872 1589.54C103.727 1573.62 94.7795 1550.75 111.039 1539.92ZM104.389 1537.69C94.1528 1545.84 94.7447 1558.93 95.3018 1571.95C95.6499 1580.34 95.3018 1589.01 92.5165 1596.88C83.1509 1584.63 77.5803 1569.48 75.4565 1553.64C83.7428 1546.12 93.6654 1540.79 104.389 1537.69ZM55.9595 1583.83C59.4759 1573.28 65.0117 1564.33 71.9401 1557.09C72.2883 1574.01 78.9033 1590.2 89.6616 1603.04C88.5474 1604.99 87.294 1606.87 85.7273 1608.65C76.7447 1618.85 62.9923 1620.87 51.3289 1614.88C50.9807 1604.78 52.4082 1594.37 55.9246 1583.83H55.9595ZM96.6596 1691.44C71.5223 1674.31 54.2883 1648.51 51.7119 1619.51C63.062 1626.75 78.4855 1624.04 88.4082 1614.43C90.532 1612.37 92.3076 1610.11 93.9091 1607.67C96.0329 1609.83 98.2612 1611.89 100.629 1613.8C90.1838 1637.75 87.8163 1665.08 96.7989 1691.2C96.7641 1691.27 96.6944 1691.34 96.6596 1691.44ZM100.698 1689.87C96.1374 1664.28 98.1915 1639.7 106.582 1618.22C109.368 1620.07 112.257 1621.74 115.251 1623.2C120.369 1625.71 126.044 1627.83 132.033 1629.54C134.818 1651.47 161.174 1669.09 182.447 1670.66C161.557 1690.78 129.979 1697.08 100.698 1689.87ZM199.402 1645.76C195.955 1653.98 191.29 1661.05 185.789 1667.1C168.903 1662.65 142.025 1649.87 139.309 1631.38C161.278 1636.29 186.172 1635.63 204.834 1625.99C203.894 1632.71 202.083 1639.36 199.402 1645.76ZM205.495 1619.44C186.033 1628.91 161.418 1630.2 139.344 1625.08C139.692 1622.89 140.354 1620.66 141.398 1618.33C150.729 1598.13 182.969 1597.61 202.188 1590.72C204.938 1599.94 206.087 1609.69 205.495 1619.41V1619.44Z" fill="#F2F2F2" fill-opacity="0.28"/>
<path d="M107.313 1669.02C107.139 1667.45 104.737 1666.79 104.319 1668.6C102.996 1674.31 104.598 1681.13 106.095 1686.67C106.478 1688.13 108.567 1687.51 108.323 1686.04C107.313 1680.3 107.94 1674.66 107.313 1668.98V1669.02Z" fill="#F2F2F2" fill-opacity="0.28"/>
<path d="M113.546 1662.82C113.302 1660.7 109.994 1660.59 110.134 1662.82C110.517 1668.71 111.143 1674.73 112.188 1680.54C112.431 1681.9 114.555 1681.55 114.555 1680.23C114.59 1674.48 114.172 1668.57 113.546 1662.86V1662.82Z" fill="#F2F2F2" fill-opacity="0.28"/>
<path d="M113.232 1547.13C109.054 1551.03 107.836 1558.34 109.75 1563.6C110.203 1564.82 112.362 1564.75 112.188 1563.25C111.526 1557.64 112.988 1553.88 116.017 1549.25C117.132 1547.51 114.66 1545.77 113.232 1547.09V1547.13Z" fill="#F2F2F2" fill-opacity="0.28"/>
<path d="M123.224 1549.67C119.673 1552.7 116.818 1557.19 115.321 1561.58C114.764 1563.18 117.166 1564.12 118.002 1562.73C120.265 1558.83 122.772 1555.59 125.801 1552.28C127.402 1550.54 125 1548.17 123.224 1549.71V1549.67Z" fill="#F2F2F2" fill-opacity="0.28"/>
<path d="M1431.65 116.497C1432.52 111.826 1426.87 108.103 1422.7 105.457C1438.3 77.926 1429.06 42.6095 1399.74 28.8001C1373.46 16.4243 1339.64 27.8602 1328.74 55.2658C1326.9 54.0682 1325.05 52.8922 1323.18 51.7379C1322.3 51.1746 1321.11 51.5876 1320.6 52.44C1316.68 58.87 1311.17 65.6446 1309.09 72.9262C1308.9 73.6182 1309.15 74.391 1309.63 74.8982C1314.97 80.3109 1323.04 83.4673 1329.59 87.2743C1339.3 92.9229 1349.01 98.5715 1358.77 104.189C1377.5 115.001 1396.21 125.799 1414.96 136.568C1416.5 137.447 1417.9 136.41 1418.28 135.081C1421.1 132.562 1423.51 129.663 1425.71 126.618C1427.61 124.002 1431.06 119.834 1431.68 116.51L1431.65 116.497ZM1425.04 120.431C1422.59 124.6 1419.71 128.433 1416.92 132.348C1406.52 126.337 1396.1 120.37 1385.66 114.39C1387.44 112.683 1389.53 111.038 1390.93 108.997C1391.56 108.095 1390.26 106.715 1389.35 107.401C1387.35 108.928 1385.79 111.105 1384.13 112.998C1384.04 113.115 1383.96 113.245 1383.91 113.387C1380.19 111.258 1376.45 109.116 1372.73 106.986C1373.83 105.921 1375.09 104.832 1375.85 103.491C1376.62 102.151 1374.92 101.117 1373.84 101.938C1372.61 102.895 1371.67 104.427 1370.73 105.668C1370.71 105.711 1370.69 105.733 1370.67 105.776C1365.96 103.077 1361.26 100.391 1356.56 97.67C1357.55 96.6542 1358.67 95.8024 1359.93 95.0589C1361.28 94.2536 1360.12 92.3583 1358.74 92.9719C1357.03 93.7459 1355.64 95.0178 1354.65 96.5465C1351.11 94.516 1347.58 92.498 1344.04 90.4675C1345.03 89.5414 1345.83 88.3926 1346.13 87.0703C1346.48 85.4947 1344.31 85.026 1343.77 86.4686C1343.34 87.5714 1342.84 88.5474 1342.11 89.3656C1339.11 87.6447 1336.12 85.9362 1333.12 84.2153C1334.78 82.4678 1336.36 80.504 1337.77 78.5523C1338.42 77.6073 1336.94 76.4965 1336.18 77.324C1334.53 79.1395 1332.96 81.1374 1331.57 83.157C1331.55 83.2003 1331.52 83.2435 1331.5 83.2867C1330.09 82.482 1328.67 81.6648 1327.26 80.8601C1326.68 80.5258 1326.07 80.1791 1325.47 79.8665C1325.51 79.8016 1325.58 79.7832 1325.6 79.7399C1327.17 77.1611 1329.02 74.5764 1330.12 71.7592C1330.46 70.8634 1329.07 70.071 1328.47 70.8183C1326.58 73.1774 1325.31 76.0963 1323.88 78.7494C1323.84 78.8143 1323.82 78.8915 1323.81 78.9688C1319.49 76.5823 1315.56 73.816 1316.14 67.834C1316.71 62.2754 1322.42 55.5226 1327.68 58.0181C1327.85 58.1172 1328.04 58.139 1328.21 58.1484C1328.72 58.9585 1330.2 59.1762 1330.79 58.1601C1345 33.8879 1372.21 19.7573 1399.29 33.6852C1425.12 46.9845 1432.51 78.6592 1418.51 103.2C1418.36 103.46 1418.32 103.692 1418.26 103.945C1417.38 104.732 1417.1 106.413 1418.39 107.323C1420.76 108.997 1423.41 110.686 1425.45 112.743C1428.28 115.626 1427.01 117.027 1425.07 120.366L1425.04 120.431Z" fill="#F2F2F2" fill-opacity="0.28"/>
<path d="M1398.84 50.7668C1379.52 36.1726 1358.49 43.0192 1349.37 64.2647C1348.06 63.9452 1347.2 65.6378 1348.43 66.5104C1364.61 78.3051 1382.88 87.9078 1400.56 97.2535C1401.66 97.8293 1402.67 97.4284 1403.27 96.6812C1404.02 97.1701 1405.01 97.2483 1405.82 96.39C1419.47 82.1294 1413.46 61.7814 1398.83 50.7328L1398.84 50.7668ZM1351.91 65.4352C1361.54 49.4743 1375.67 41.1997 1393.34 52.1522C1407.47 60.9074 1415.72 79.8423 1402.76 93.3495C1402.76 93.3495 1402.75 93.3711 1402.74 93.3928C1385.99 83.9429 1369.29 73.7484 1351.91 65.4352Z" fill="#F2F2F2" fill-opacity="0.28"/>
<path d="M1413.64 61.6244C1412.48 55.9343 1407.33 50.2313 1402.65 47.0658C1401.96 46.58 1401.12 47.6823 1401.75 48.2422C1404.04 50.3024 1406.22 52.3779 1407.98 54.966C1409.59 57.3222 1410.5 59.9404 1411.9 62.352C1412.47 63.3105 1413.85 62.6629 1413.64 61.6244Z" fill="#F2F2F2" fill-opacity="0.28"/>
<path d="M1418.69 60.5816C1418.23 56.2704 1416.12 52.3347 1412.79 49.569C1411.96 48.8637 1410.76 50.012 1411.57 50.7946C1414.34 53.4733 1415.99 56.8245 1416.51 60.6259C1416.7 61.9981 1418.86 62.031 1418.7 60.6156L1418.69 60.5816Z" fill="#F2F2F2" fill-opacity="0.28"/>
<path d="M1404.39 114.667C1405.07 113.132 1403.13 112.018 1402.12 113.367C1400.77 115.232 1399.84 117.602 1398.82 119.686C1398.23 120.869 1399.87 121.81 1400.59 120.702C1401.86 118.787 1403.45 116.768 1404.37 114.655L1404.39 114.667Z" fill="#F2F2F2" fill-opacity="0.28"/>
<path d="M1412.88 121.854C1411.04 123.066 1409.82 124.839 1409.08 126.884C1408.67 127.999 1410.42 128.656 1410.99 127.661C1411.82 126.213 1412.88 125.123 1414.19 124.126C1415.51 123.129 1414.32 120.897 1412.88 121.854Z" fill="#F2F2F2" fill-opacity="0.28"/>
<path d="M1421.97 114.198C1419.38 111.507 1415.98 109.474 1412.51 108.173C1411.61 107.832 1411.02 109.306 1411.87 109.733C1415.09 111.321 1417.77 113.314 1420.44 115.73C1421.46 116.658 1422.94 115.213 1421.97 114.198Z" fill="#F2F2F2" fill-opacity="0.28"/>
<path d="M1419.57 116.696C1417.05 114.277 1414.11 112.191 1410.8 111.045C1409.68 110.658 1409.02 112.406 1410.03 112.954C1412.88 114.533 1415.42 116.216 1417.69 118.576C1418.87 119.826 1420.81 117.893 1419.57 116.696Z" fill="#F2F2F2" fill-opacity="0.28"/>
<path d="M441.081 1468.53C441.461 1467.98 441.577 1467.25 441.344 1466.4C434.507 1442.38 424.573 1419.27 411.658 1397.88C401.052 1380.3 386.297 1355.05 367.86 1344.71C368.211 1343.31 367.188 1341.61 365.348 1342.08C346.239 1347.02 327.51 1353.21 308.986 1360.05C298.906 1363.79 281.813 1367 275.327 1376.29C274.363 1377.7 275.707 1379.04 277.08 1379.01C294.611 1426.66 312.521 1472.86 323.303 1522.7C323.712 1524.63 325.874 1525.07 327.423 1524.37C365.114 1507.22 403.769 1491.32 440.642 1472.54C442.249 1471.72 442.074 1469.61 441.052 1468.5L441.081 1468.53ZM280.031 1377.17C291.222 1368.67 311.616 1364.55 324.355 1360.11C338.35 1355.26 352.433 1350.73 366.516 1346.14C366.604 1346.11 366.662 1346.05 366.779 1345.99C371.571 1354.76 379.402 1361.83 385.567 1369.66C393.368 1379.51 400.497 1389.85 406.925 1400.66C419.518 1421.81 428.926 1444.31 436.055 1467.86C436.172 1468.27 436.377 1468.59 436.581 1468.85C399.854 1483.78 364.062 1501.49 328.036 1517.97C317.547 1470.05 303.493 1420.41 280.031 1377.14V1377.17Z" fill="#F2F2F2" fill-opacity="0.28"/>
<path d="M357.167 1372.76C339.198 1375.8 321.082 1381.46 304.136 1388.1C303.259 1388.45 303.581 1389.82 304.545 1389.53C322.222 1384.15 339.957 1379.77 357.839 1375.15C359.416 1374.74 358.744 1372.47 357.167 1372.73V1372.76Z" fill="#F2F2F2" fill-opacity="0.28"/>
<path d="M378.233 1383.8C357.839 1390.29 337.561 1397.77 317.518 1405.22C316.466 1405.6 316.875 1407.26 317.985 1406.94C338.438 1400.86 359.095 1394.2 378.934 1386.37C380.483 1385.76 379.898 1383.28 378.233 1383.8Z" fill="#F2F2F2" fill-opacity="0.28"/>
<path d="M381.271 1409.66C362.893 1415.5 344.544 1423.13 326.838 1430.78C325.962 1431.16 326.575 1432.62 327.481 1432.3C345.772 1426.2 364.53 1419.59 382.119 1411.68C383.258 1411.15 382.44 1409.28 381.271 1409.66Z" fill="#F2F2F2" fill-opacity="0.28"/>
<path d="M398.831 1429.97C379.431 1436.66 360.176 1444.28 341.506 1452.81C340.717 1453.16 341.272 1454.54 342.09 1454.22C361.228 1446.97 380.366 1439.78 399.62 1432.83C401.403 1432.19 400.643 1429.32 398.831 1429.97Z" fill="#F2F2F2" fill-opacity="0.28"/>
<path d="M355.852 1495.15C350.213 1497.87 344.661 1500.32 338.613 1502.02C337.561 1502.31 338 1503.91 339.051 1503.65C345.216 1502.19 351.44 1500.2 357.05 1497.22C358.423 1496.49 357.225 1494.51 355.852 1495.18V1495.15Z" fill="#F2F2F2" fill-opacity="0.28"/>
<path d="M359.65 1487.7C352.725 1488.08 345.304 1490.94 339.256 1494.27C338.233 1494.83 338.935 1496.7 340.074 1496.23C346.736 1493.46 353.076 1492.14 360.03 1490.48C361.549 1490.1 361.257 1487.61 359.65 1487.7Z" fill="#F2F2F2" fill-opacity="0.28"/>
<path d="M587.352 157.128C586.129 150.905 577.64 149.861 572.783 148.818C562.998 146.696 553.106 145.473 543.141 145.868C543.321 134.609 544.4 122.45 542.997 111.334C542.314 106.046 539.256 101.73 533.392 103.348C526.341 105.291 520.514 112.989 516.449 118.565C511.125 125.903 506.628 133.781 501.16 140.976C491.663 139.501 481.95 139.177 472.345 139.609C467.561 139.825 458.603 139.069 456.409 144.825C454.358 150.257 460.546 157.236 463.352 161.193C468.532 168.459 474.611 174.898 481.95 179.971C477.166 189.144 473.388 198.784 469.539 208.353C467.74 212.778 464.179 220.332 470.582 223.03C476.05 225.332 482.813 219.361 487.022 216.843C495.836 211.591 506.124 206.914 513.787 200.115C513.859 200.044 513.894 199.972 513.966 199.9C521.125 207.31 529.939 213.389 538.105 219.649C542.421 222.958 549.868 230.656 555.983 226.304C560.768 222.922 560.372 213.066 560.3 208.065C560.192 199.144 558.358 190.007 554.329 182.021C562.315 178.388 570.013 173.891 577.46 169.287C581.633 166.733 588.576 163.207 587.388 157.092L587.352 157.128ZM564.437 169.467C558.789 172.56 552.926 175.294 547.35 178.532C544.832 179.971 545.983 184.072 548.465 184.287C550.659 190.906 559.041 222.203 548.789 219.757C544.256 218.677 537.205 211.231 533.392 208.461C527.708 204.36 522.132 199.936 515.909 196.662C515.225 196.302 514.506 196.374 513.966 196.734C513.355 195.835 512.312 195.259 511.124 195.655C499.325 199.936 489.972 209.828 478.353 214.397C474 216.123 474.144 216.159 475.115 211.627C475.763 208.569 477.561 205.439 478.712 202.49C481.446 195.403 484.072 188.244 486.123 180.906C486.375 180.043 486.015 179.287 485.475 178.82C485.547 178.28 485.403 177.704 484.972 177.273C481.015 173.064 477.022 168.927 473.388 164.394C471.302 161.804 461.841 150.617 463.244 147.415C464.323 144.933 478.928 145.904 481.554 145.94C488.245 146.048 494.864 146.696 501.556 147.199C503.534 147.343 504.613 145.473 504.505 143.782C513.031 136.192 517.852 125.58 525.514 117.126C527.456 115.004 530.514 111.262 533.32 110.471C538.177 109.14 536.63 115.687 536.666 119.176C536.666 128.386 536.666 137.559 536.774 146.768C536.81 149.322 539.292 150.257 541.126 149.609C546.918 150.437 552.71 151.156 558.502 152.056C561.703 152.559 564.869 153.099 568.035 153.782C569.546 154.106 576.38 154.969 577.46 156.085C582.928 161.768 567.999 167.524 564.401 169.503L564.437 169.467Z" fill="#F2F2F2" fill-opacity="0.28"/>
<path d="M559.941 156.984C554.904 154.322 548.069 154.07 542.493 154.358C540.731 154.43 540.731 157.092 542.493 157.092C545.407 157.092 548.285 157.272 551.163 157.776C553.753 158.243 556.271 159.178 558.861 159.574C560.3 159.79 561.487 157.811 559.941 156.984Z" fill="#F2F2F2" fill-opacity="0.28"/>
<path d="M557.099 162.883C552.854 161.768 548.177 161.121 543.825 160.689C542.35 160.545 542.098 162.847 543.465 163.207C547.746 164.322 552.314 165.294 556.703 165.761C558.358 165.941 558.646 163.279 557.099 162.883Z" fill="#F2F2F2" fill-opacity="0.28"/>
<path d="M493.893 183.388C491.123 187.489 488.713 191.95 486.303 196.302C485.691 197.417 487.31 198.353 487.994 197.31C490.8 193.209 493.749 189.072 496.196 184.755C497.059 183.244 494.829 181.985 493.893 183.388Z" fill="#F2F2F2" fill-opacity="0.28"/>
<path d="M499.253 183.82C496.34 185.835 494.181 189.108 493.282 192.526C492.85 194.108 495.224 195.187 495.98 193.677C497.383 190.835 499.181 188.856 501.52 186.77C503.067 185.367 501.016 182.633 499.253 183.82Z" fill="#F2F2F2" fill-opacity="0.28"/>
<path d="M47.6805 543.73C46.0143 543.436 44.691 544.171 43.8579 545.25C43.7109 545.348 43.5639 545.446 43.4168 545.593C43.3678 545.201 43.3188 544.808 43.2698 544.416C42.8287 542.162 39.4962 542.799 39.4472 544.956C38.222 591.17 -7.15977 628.562 0.975615 675.462C5.28835 700.309 24.9407 719.226 44.054 733.928C48.4157 737.261 52.1403 739.515 55.7179 740.74C51.4052 752.551 46.2103 764.264 39.8882 775.683C37.0948 780.73 44.6911 785.19 47.6316 780.191C54.8848 767.988 60.8148 755.1 65.6667 741.72C71.0086 740.887 76.7425 737.947 84.1918 733.34C163.83 683.892 140.649 559.266 47.7296 543.681L47.6805 543.73ZM49.935 728.047C31.5078 716.776 13.5218 695.212 9.74815 674.286C6.07252 654.046 14.6 635.913 23.2254 618.173C33.8112 596.364 46.3574 574.752 44.054 550.15C44.054 550.15 44.0539 550.199 44.103 550.199C71.6456 608.91 77.8207 671.885 58.9035 731.478C55.914 730.939 52.8755 729.861 49.935 728.047ZM69.1462 731.135C87.2793 672.032 82.0354 605.48 50.033 552.16C91.102 563.48 124.967 597.786 125.947 642.333C126.388 660.809 120.801 679.187 111.097 694.82C102.668 708.395 86.3971 727.361 69.1462 731.135Z" fill="#F2F2F2" fill-opacity="0.28"/>
<path d="M91.6409 582.299C88.5044 579.555 85.0248 577.251 81.9373 574.458C78.8498 571.616 76.3014 568.332 73.4589 565.343C72.3317 564.166 70.5674 565.637 71.3025 567.009C75.0271 573.968 82.4764 581.515 89.6806 584.847C91.2489 585.583 93.1602 583.622 91.6409 582.299Z" fill="#F2F2F2" fill-opacity="0.28"/>
<path d="M87.1322 592.836C84.1427 587.984 80.124 583.72 75.4192 580.535C74.096 579.653 72.5278 581.662 73.704 582.74C77.6247 586.367 80.9572 590.238 83.8487 594.747C85.1719 596.805 88.4064 594.943 87.1322 592.836Z" fill="#F2F2F2" fill-opacity="0.28"/>
<path d="M39.2512 706.533C35.3305 703.201 31.7529 700.064 29.3514 695.409C26.95 690.753 26.656 686.048 25.6758 681.049C25.4308 679.873 23.7155 679.971 23.4214 681.049C20.3829 691.292 27.7342 704.867 36.7027 709.817C38.712 710.895 41.1135 708.151 39.2512 706.533Z" fill="#F2F2F2" fill-opacity="0.28"/>
<path d="M44.299 700.701C40.8684 698.055 37.9769 694.967 35.6245 691.292C34.5463 689.577 31.9978 691.096 32.929 692.86C35.1834 697.32 38.3689 701.044 42.3386 704.083C44.3479 705.602 46.3083 702.171 44.348 700.652L44.299 700.701Z" fill="#F2F2F2" fill-opacity="0.28"/>
<path d="M1485.8 572.352C1485.34 571.66 1484.65 571.106 1483.58 570.968C1462.78 568.384 1441.09 574.059 1425.17 587.808C1394.72 561.14 1349.09 555.927 1313.52 582.548C1281.5 606.494 1269.82 651.386 1284.96 686.635C1270.05 694.294 1252.15 710.304 1248.55 727.237C1246.11 738.818 1251.83 751.782 1264.38 753.351C1264.56 753.351 1264.7 753.259 1264.84 753.213C1292.52 765.439 1320.67 761.471 1347.71 749.937C1372.44 759.903 1399.43 757.365 1423.47 745.369C1435.92 739.14 1449.26 729.913 1457.7 718.563C1468.54 703.983 1466.65 689.035 1469.28 671.733C1469.56 669.841 1468.64 668.365 1467.34 667.534C1483.91 654.247 1499.46 638.975 1505.36 618.167C1510.53 599.804 1505.5 577.935 1485.8 572.306V572.352ZM1320.25 586.931C1363.21 557.08 1419.41 576.32 1441.14 622.181C1441.18 622.319 1441.28 622.365 1441.37 622.504C1424.11 639.021 1404.87 652.863 1384.99 666.612C1373.41 674.594 1361.73 682.483 1349.69 689.727C1343.69 693.325 1337.6 696.878 1331.37 700.108C1328.88 701.353 1326.34 702.599 1323.85 703.891C1317.76 709.243 1311.81 711.135 1306.09 709.797C1279.01 670.026 1276.56 617.382 1320.25 586.978V586.931ZM1437.31 600.45C1441.32 599.204 1445.7 598.42 1449.44 599.942C1452.99 601.373 1456.45 606.494 1453.5 610.047C1453.46 610.093 1453.46 610.185 1453.41 610.231C1451.47 612.4 1449.49 614.43 1447.46 616.506C1444.55 610.739 1441.14 605.34 1437.31 600.45ZM1454.98 708.274C1449.49 720.362 1433.71 730.836 1422.68 736.695C1401.18 748.137 1378.2 751.69 1355.09 746.615C1391.58 729.129 1425.73 699.093 1453.41 678.285C1455.99 676.347 1458.62 674.363 1461.25 672.333C1459.68 684.236 1459.78 697.57 1454.93 708.274H1454.98ZM1493.27 628.04C1487.64 637.96 1479.57 646.449 1471.17 654.062C1452.53 670.949 1431.03 685.113 1410.82 700.062C1366.35 733.05 1321.36 763.686 1263.41 749.844C1263.27 749.844 1263.13 749.844 1263 749.891C1236.42 734.019 1273.01 703.337 1286.48 690.234C1287.63 692.587 1288.88 694.848 1290.26 697.063C1282.51 699.693 1279.28 707.305 1285 714.595C1294.23 726.314 1313.61 716.118 1323.48 711.688C1351.67 699.047 1377.05 681.237 1402.24 663.613C1422.17 649.633 1441.74 635.284 1457.05 616.183C1457.61 615.998 1458.12 615.721 1458.62 615.214C1463.93 609.493 1462.08 600.819 1456.5 595.974C1449.76 590.161 1440.68 592.145 1433.39 595.882C1431.82 594.129 1430.16 592.468 1428.45 590.853C1445.24 579.918 1462.82 574.613 1483.26 576.827C1492.49 579.918 1500.75 595.236 1500.56 604.648C1500.38 612.538 1497.06 621.258 1493.23 628.04H1493.27Z" fill="#F2F2F2" fill-opacity="0.28"/>
<path d="M1396.47 586.47C1387.62 578.719 1374.19 576.504 1362.93 578.857C1361.27 579.226 1361.64 581.902 1363.35 581.81C1375.07 581.164 1383.65 584.394 1393.71 590.069C1395.92 591.314 1398.5 588.223 1396.47 586.47Z" fill="#F2F2F2" fill-opacity="0.28"/>
<path d="M1394.86 598.051C1388.82 592.791 1379.59 589.561 1371.61 590.161C1370.04 590.253 1369.53 592.653 1371.24 593.022C1374.93 593.852 1378.62 594.637 1382.17 596.067C1385.77 597.543 1388.77 599.712 1392 601.788C1394.26 603.264 1396.98 599.804 1394.91 598.005L1394.86 598.051Z" fill="#F2F2F2" fill-opacity="0.28"/>
<path d="M1292.48 743.247C1283.57 742.555 1276.47 741.124 1268.25 737.526C1266.59 736.788 1265.26 738.91 1266.82 739.971C1273.88 744.816 1283.94 747.722 1292.52 746.753C1294.78 746.523 1294.83 743.385 1292.52 743.201L1292.48 743.247Z" fill="#F2F2F2" fill-opacity="0.28"/>
<path d="M1300.74 734.573C1293.35 733.65 1286.76 732.912 1279.79 730.005C1277.81 729.175 1276.42 732.496 1278.31 733.465C1284.96 736.88 1293.12 739.648 1300.74 738.91C1303.55 738.633 1303.5 734.896 1300.74 734.573Z" fill="#F2F2F2" fill-opacity="0.28"/>
<path d="M1203.71 1409.14C1177.44 1433.11 1176.81 1472.48 1200.22 1498.79C1227.51 1529.46 1271.73 1531.98 1308.14 1518.67C1307.77 1521.2 1307.01 1523.69 1307.47 1526.26C1307.99 1529.29 1310.11 1532.42 1313.4 1532.68C1315.53 1532.84 1317.33 1531.76 1318.5 1530.16C1320.55 1535.97 1324.12 1540.92 1330.44 1543.43C1326.02 1545.24 1320.12 1549.16 1320.03 1553.51C1319.94 1558.61 1329.91 1562.68 1333.71 1564.08C1337.45 1565.46 1343.63 1565.83 1344.03 1560.39C1344.38 1555.71 1341.25 1549.31 1338.11 1545.02C1340.59 1545.27 1343.09 1545.41 1345.55 1545.86C1360.29 1548.52 1370.69 1556.9 1370.3 1572.87C1370.23 1575.16 1373.85 1575.41 1374.27 1573.17C1376.14 1563.2 1372.87 1553.84 1364.48 1547.71C1357.33 1542.47 1350.28 1541.54 1343.76 1540.59C1347.86 1538.92 1351.47 1535.84 1353.81 1532.26C1354.13 1531.77 1354.09 1530.82 1353.72 1530.41C1349.81 1525.7 1341.98 1520.03 1335.46 1522.65C1332.59 1523.78 1331.76 1526.22 1331.97 1529.11C1332.21 1532.15 1332.73 1535.21 1333.31 1538.21C1328.01 1536.09 1323.33 1531.94 1319.58 1522.46C1325.63 1522.71 1332.82 1518.89 1330.46 1512.68C1327.8 1505.68 1320.65 1506.39 1315.22 1509.53C1325.57 1478.16 1319.09 1443.06 1297.83 1417.44C1272.05 1386.37 1234.16 1381.27 1203.66 1409.1L1203.71 1409.14ZM1332.8 1554.15C1333.66 1552.03 1334.5 1549.84 1335.34 1547.65C1336.75 1550.34 1338.2 1552.99 1339.19 1555.93C1339.66 1557.33 1341.09 1560.43 1338.51 1561.2C1336.79 1561.72 1333.85 1559.97 1332.31 1559.24C1330.37 1558.31 1328.5 1557.21 1326.75 1555.94C1325.12 1554.74 1323.8 1554.38 1325 1551.88C1326.54 1548.65 1331.02 1546.57 1333.96 1544.88C1332.95 1547.73 1332.07 1550.66 1331.22 1553.55C1330.94 1554.47 1332.45 1555.01 1332.84 1554.11L1332.8 1554.15ZM1335.72 1526.97C1338.67 1522.26 1346.49 1528.03 1349.73 1531.51C1346.18 1535.84 1341.81 1537.46 1336.34 1538.08C1338.46 1535.61 1340.94 1534.12 1344.14 1532.58C1345.49 1531.91 1344.38 1529.97 1343.08 1530.28C1340.14 1531.01 1337.47 1533.1 1335.49 1535.59C1335.48 1535.43 1335.45 1535.24 1335.44 1535.08C1335.19 1532.41 1334.27 1529.26 1335.72 1526.97ZM1326.2 1513.45C1328.1 1516.16 1324.97 1517.76 1322.63 1518.39C1320.66 1518.92 1318.87 1518.64 1317.03 1518.47C1316.72 1518.11 1316.38 1517.8 1316.03 1517.49C1314.64 1516.34 1312.23 1517.62 1312.92 1519.5C1313.71 1521.66 1316.02 1523.71 1315.63 1526.22C1315.22 1528.76 1312.96 1528.87 1311.82 1526.66C1310.43 1523.99 1311.22 1520.63 1311.21 1517.52C1311.39 1517.45 1311.6 1517.36 1311.8 1517.31C1312.16 1517.17 1312.4 1516.95 1312.61 1516.71C1312.82 1516.66 1312.98 1516.61 1313.18 1516.48C1316.61 1514.28 1322.53 1508.17 1326.22 1513.47L1326.2 1513.45ZM1297.53 1426.16C1315 1450.62 1319.64 1482.68 1309.02 1510.83C1308.57 1512.03 1308.95 1513.17 1309.67 1513.89C1309.36 1513.89 1309.04 1513.99 1308.78 1514.14C1277.45 1523.53 1242.15 1525.29 1214.69 1504.58C1185.04 1482.2 1178.96 1439.42 1207.36 1413.42C1221.04 1400.91 1240.02 1391.54 1258.87 1396.69C1274.45 1400.94 1288.31 1413.27 1297.51 1426.14L1297.53 1426.16Z" fill="#F2F2F2" fill-opacity="0.28"/>
<path d="M1252.06 1395.72C1245.46 1396.42 1238.64 1398.85 1232.78 1401.98C1231.71 1402.55 1232.54 1404.33 1233.68 1403.9C1239.93 1401.62 1246.1 1400.1 1252.57 1398.58C1254.2 1398.21 1253.72 1395.53 1252.06 1395.72Z" fill="#F2F2F2" fill-opacity="0.28"/>
<path d="M1253.78 1402.89C1249.66 1400.93 1244.81 1401.52 1240.9 1403.64C1239.83 1404.21 1240.67 1406.1 1241.8 1405.59C1245.46 1403.92 1249.14 1404.11 1252.91 1405.28C1254.31 1405.72 1255.05 1403.48 1253.76 1402.87L1253.78 1402.89Z" fill="#F2F2F2" fill-opacity="0.28"/>
<path d="M1283.77 1514.45C1280.51 1514.41 1277.24 1515.34 1273.95 1515.42C1270.39 1515.5 1266.92 1515.03 1263.43 1514.47C1262.27 1514.28 1261.96 1515.88 1263.07 1516.26C1266.44 1517.34 1270.05 1517.86 1273.6 1517.97C1276.99 1518.09 1281.07 1518.17 1284.2 1516.76C1285.39 1516.23 1285.2 1514.48 1283.79 1514.47L1283.77 1514.45Z" fill="#F2F2F2" fill-opacity="0.28"/>
<path d="M1287.55 1509.19C1285.09 1508.62 1282.01 1509.64 1279.48 1509.79C1276.93 1509.96 1274.02 1509.48 1271.56 1510.12C1270.93 1510.3 1270.86 1511.25 1271.45 1511.51C1273.79 1512.57 1277.07 1512.36 1279.61 1512.38C1282.21 1512.41 1285.63 1512.79 1287.97 1511.54C1289.02 1511 1288.57 1509.41 1287.55 1509.15L1287.55 1509.19Z" fill="#F2F2F2" fill-opacity="0.28"/>
</svg>
