<svg width="344" height="246" viewBox="0 0 344 246" fill="none" xmlns="http://www.w3.org/2000/svg">
<g clip-path="url(#clip0_379_3)">
<path d="M329.509 198.734C329.866 198.621 330.222 198.528 330.579 198.397C346.985 192.206 345.671 167.927 329.941 161.867C325.999 160.352 321.813 159.997 317.646 160.763C317.233 160.838 315.638 161.268 313.798 161.886C315.694 151.654 310.382 140.637 298.538 138.374C285.473 135.886 274.005 146.417 276.238 157.827C275.469 157.939 274.699 158.07 273.948 158.22C268.58 144.378 248.42 141.105 237.759 152.047C226.102 163.999 232.972 182.217 247.2 186.744C247.163 187.735 247.182 188.727 247.238 189.737C246.281 189.419 245.229 189.4 244.16 189.812C232.785 194.188 223.249 205.486 226.665 218.373C229.875 230.513 243.221 232.645 252.869 226.454C254.615 225.331 256.454 223.798 258.144 222.002C258.369 224.06 258.406 226.267 259.101 228.118C261.184 233.655 265.445 238.387 270.551 241.361C281.438 247.702 296.342 245.607 303.437 234.628C304.451 233.075 305.164 231.41 305.652 229.727C307.998 230.139 310.42 230.326 312.954 230.307C323.765 230.251 338.031 226.603 337.336 213.099C337.074 208.03 333.939 202.718 329.528 198.734L329.509 198.734ZM294.746 203.559C294.202 203.877 293.639 204.177 293.057 204.438C292.287 204.102 291.48 203.803 290.598 203.616C285.267 202.437 281.044 203.485 277.778 205.897C274.868 205.224 272.09 204.046 269.687 202.344C259.683 195.329 259.495 184.425 266.459 175.259C266.534 175.147 266.59 175.054 266.665 174.941C277.646 172.173 289.321 167.609 298.144 178.215C304.788 186.202 304.113 198.042 294.765 203.559L294.746 203.559ZM320.068 213.585C319.336 211.958 318.322 210.555 317.102 209.433C317.346 208.759 319.974 211.153 320.068 212.556C320.086 213.005 320.086 213.323 320.068 213.585Z" fill="#D266AD"/>
<path d="M342.442 175.054C337.111 162.69 325.286 160.333 314.624 163.794C315.412 153.843 310.213 143.836 299.045 140.319C286.656 136.429 275.3 143.574 271.658 154.067C259.908 143.088 242.095 137.476 232.09 153.899C224.206 166.805 230.438 180.721 241.607 187.38C236.201 189.213 231.302 192.206 227.904 197.125C223.268 203.84 222.273 212.93 227.454 219.664C234.699 229.091 244.685 229.203 253.564 225.07C253.507 236.161 260.527 245.626 275.769 246C284.76 246.206 295.535 243.905 300.603 235.731C302.329 232.944 303.118 230.026 303.249 227.052C310.983 232.121 319.88 234.029 328.74 227.314C334.896 222.657 336.604 215.025 333.676 207.974C332.55 205.243 330.898 203.017 328.946 201.147C332.212 200.062 335.272 198.397 337.937 195.909C343.812 190.41 345.596 182.442 342.423 175.054L342.442 175.054ZM308.561 192.131C302.536 191.626 301.485 200.997 307.153 202.493C312.109 203.784 318.04 204.906 321.776 208.722C327.125 214.184 323.878 220.655 316.895 221.216C308.261 221.909 301.86 212.986 297.261 206.982C293.263 201.764 284.741 206.197 288.158 212.294C291.011 217.401 294.371 222.9 292.325 228.736C290.054 235.264 282.076 236.105 275.807 235.675C260.696 234.628 262.93 221.534 268.993 212.351C269.425 211.771 269.838 211.191 270.232 210.611C274.155 204.663 264.995 199.837 260.884 205.168C260.377 205.841 259.889 206.515 259.439 207.207C254.408 213.735 244.591 221.778 237.402 213.903C227.454 202.998 248.308 196.901 255.29 195.573C257.731 195.105 258.932 193.122 259.12 191.009C262.104 189.681 262.724 184.78 258.838 183.901C248.289 181.525 234.793 173.333 240.443 160.614C247.989 143.667 267.341 160.614 272.409 170.452C274.831 175.147 283.015 171.874 281.1 166.805C277.271 156.611 285.924 145.669 296.98 149.933C306.741 153.712 307.21 164.804 301.353 171.893C300.771 172.454 300.227 173.052 299.702 173.651C295.722 178.29 301.879 184.593 306.478 180.403C307.116 179.823 307.679 179.206 308.242 178.57C315 172.211 327.576 167.011 333.094 177.785C340.865 192.991 316.952 192.823 308.599 192.112L308.561 192.131Z" fill="#EDCAE2"/>
<path d="M305.596 187.586C304.957 183.302 302.761 179.318 298.801 176.681C291.443 169.854 280.03 166.824 270.964 171.406C259.063 177.429 257.656 192.15 266.44 201.577C274.455 210.162 288.796 212.519 298.481 205.299C299.533 204.513 300.471 203.597 301.316 202.605C305.126 198.715 307.078 193.44 305.614 187.586L305.596 187.586Z" fill="#F1CE30"/>
<path d="M337.074 177.878C336.454 171.93 332.437 167.217 326.712 165.552C320.499 163.756 314.343 165.72 308.824 168.675C315.056 158.93 313.348 142.676 301.184 139.253C285.004 134.708 274.906 152.72 280.124 166.431C280.124 166.468 280.161 166.487 280.18 166.524C280.124 166.637 280.105 166.768 280.086 166.88C279.523 166.917 278.96 166.992 278.416 167.067C278.603 166.805 278.697 166.45 278.622 166.057C275.45 147.913 246.581 143.78 235.919 157.471C224.826 171.724 237.046 188.614 252.606 189.793C245.192 191.046 237.665 193.646 232.747 199.482C228.017 205.112 226.985 212.837 231.527 218.878C240.875 231.336 255.76 226.173 264.695 216.69C260.79 228.474 268.862 242.297 283.033 241.997C290.466 241.848 297.224 237.695 300.19 230.831C301.616 227.52 302.236 223.087 301.56 219.028C305.014 222.657 309.031 225.687 314.023 226.847C320.105 228.249 326.956 226.585 330.241 220.936C336.623 209.975 327.857 198.416 317.271 194.693C327.538 194.001 338.388 190.186 337.092 177.859L337.074 177.878ZM298.481 141.61C312.559 143.499 312.447 164.635 302.442 171.462C302.142 171.163 301.804 170.901 301.485 170.621C306.421 163.981 309.706 152.346 300.283 147.951C296.642 146.249 292.55 147.502 289.734 150.158C285.68 153.992 285.023 159.847 285.323 165.122C284.122 165.196 282.902 165.346 281.663 165.627C279.748 154.479 284.441 139.74 298.481 141.61ZM299.645 169.162C296.023 166.581 291.63 165.084 286.919 165.065C287.182 161.549 287.369 157.771 289.096 154.591C291.386 150.345 296.698 147.539 300.903 151.093C306.985 156.256 303.23 163.7 299.645 169.162ZM283.371 168.769C283.765 168.769 284.028 168.545 284.16 168.283C296.698 166.786 306.834 176.905 306.346 189.755C305.896 201.577 294.878 212.051 283.071 212.145C272.109 212.238 261.71 202.961 260.847 192.037C259.833 179.169 270.945 169.218 283.371 168.769ZM307.473 198.135C311.227 199.089 314.831 200.473 318.097 202.587C322.301 205.299 329.697 213.267 322.038 216.989C314.493 220.655 306.008 212.257 301.71 206.889C304.169 204.364 306.121 201.39 307.473 198.135ZM281.288 232.776C270.57 232.776 273.704 220.693 276.257 214.184C279.279 215.081 282.47 215.418 285.68 215.044C287.369 214.838 289.002 214.464 290.598 213.94C290.598 214.09 290.598 214.24 290.654 214.427C293.076 221.834 291.03 232.795 281.288 232.795L281.288 232.776ZM263.568 205.86C263.568 205.86 263.474 205.897 263.437 205.916C260.152 208.366 256.905 210.929 253.507 213.267C251.461 214.67 249.228 216.185 246.731 216.653C243.071 217.363 236.97 215.848 238.059 210.256C238.866 206.066 245.361 202.867 248.589 200.903C251.705 198.996 254.971 197.368 258.294 195.834C259.232 199.538 261.091 202.961 263.587 205.841L263.568 205.86ZM238.341 159.342C248.402 146.529 271.414 152.103 276.126 166.749C276.22 167.048 276.407 167.254 276.595 167.404C275.056 167.74 273.554 168.245 272.128 168.863C269.087 157.752 251.893 153.487 243.259 160.838C239.317 164.186 238.735 169.461 240.893 174.025C243.953 180.403 251.349 183.059 258.012 183.228C258.744 183.228 258.876 182.161 258.181 181.956C253.808 180.665 249.059 179.711 245.624 176.475C239.993 171.163 241.382 162.952 249.059 160.558C257.036 158.07 267.604 161.399 269.969 169.929C262.986 173.8 257.956 181.002 257.58 189.325C257.43 189.25 257.261 189.213 257.055 189.213C257.355 188.577 257.092 187.679 256.173 187.717C241.55 188.24 227.698 172.903 238.322 159.361L238.341 159.342ZM236.313 219.365C228.768 213.005 231.339 203.784 238.453 198.378C243.991 194.188 250.786 193.347 257.318 191.663C257.43 191.626 257.524 191.57 257.599 191.514C257.599 191.757 257.599 192 257.618 192.262C257.674 192.898 257.787 193.534 257.9 194.151C249.697 196.938 231.396 204.757 236.088 214.445C242.283 227.183 258.613 212.538 264.676 208.049C264.882 207.88 265.014 207.693 265.089 207.487C265.971 208.348 266.872 209.171 267.867 209.919C260.696 219.383 247.576 228.867 236.313 219.346L236.313 219.365ZM298.519 227.576C296.623 234.347 290.729 238.78 283.765 239.154C268.993 239.977 261.128 222.675 270.739 211.846C272.015 212.575 273.348 213.174 274.718 213.679C272.315 217.868 270.344 223.124 271.64 227.894C272.785 232.14 276.464 234.908 280.837 235.095C292.381 235.582 295.891 222.825 292.982 213.772C292.888 213.51 292.738 213.323 292.55 213.192C293.564 212.762 294.558 212.294 295.516 211.752C295.985 212.388 296.473 213.005 296.98 213.641C298.669 218.224 300.002 222.283 298.519 227.557L298.519 227.576ZM327.013 220.805C317.44 232.551 303.869 217.999 297.806 210.293C298.763 209.601 299.664 208.853 300.527 208.049C304.976 214.95 318.622 226.154 325.962 217.045C334.052 207.001 316.22 198.098 308.336 195.741C308.449 195.367 308.58 194.993 308.674 194.619C308.73 194.619 308.749 194.656 308.805 194.656C308.843 194.656 308.88 194.656 308.918 194.656C309.031 194.937 309.293 195.18 309.687 195.217C320.537 196.265 336.792 208.778 326.994 220.786L327.013 220.805ZM309.218 191.85C309.387 190.578 309.443 189.269 309.425 187.96C309.425 187.96 309.425 187.96 309.443 187.96C316.295 189.737 334.54 190.092 332.625 178.308C330.879 167.591 312.447 171.837 306.384 174.829C305.483 175.278 306.121 176.812 307.078 176.457C312.822 174.324 322.02 171.649 327.651 175.428C334.446 180.01 326.994 185.397 322.376 186.239C318.284 186.968 314.117 186.426 310.119 185.472C309.781 185.397 309.5 185.453 309.256 185.566C308.711 180.964 306.909 176.831 304.263 173.501C305.032 172.959 305.746 172.342 306.421 171.668C311.977 168.881 318.003 166.281 324.366 167.497C330.879 168.75 335.272 174.193 334.408 180.815C332.888 192.692 318.359 192.486 309.199 191.794L309.218 191.85Z" fill="#222221"/>
</g>
<g clip-path="url(#clip1_379_3)">
<path d="M177.193 93.9745C164.001 93.184 149.789 93.5445 136.34 94.7054C136.356 89.5582 135.403 84.6326 133.626 80.1259C135.671 78.8338 137.724 77.5638 139.878 76.4698C144.752 74.0171 151.188 73.053 155.407 69.6862C158.561 67.1743 158.366 60.3681 153.307 60.1288C147.048 59.8191 141.041 63.4252 135.736 66.5186C133.373 67.8993 130.903 69.4309 128.57 71.1377C126.764 68.7632 124.673 66.6399 122.336 64.8042C126.855 57.8362 130.637 49.9336 133.723 42.8037C136.618 36.0789 126.748 31.4063 123.394 37.933C120.225 44.1067 116.943 51.1073 114.487 58.1493C111.494 56.261 108.308 55.0156 105.04 54.3364C105.374 50.9351 105.529 47.5228 105.728 44.0946C106.058 38.3613 106.897 32.4833 105.473 26.8772C104.115 21.5222 97.2459 23.6394 96.0045 27.6769C94.3635 33.0302 95.1332 39.2818 95.1942 44.8506C95.2151 47.8506 95.2138 50.8585 95.3462 53.8561C90.8624 54.3099 86.4373 55.6537 82.3049 57.7041C80.9355 54.9488 79.4777 52.225 78.0127 49.5163C76.4468 46.6315 74.8879 43.7318 73.3219 40.847C72.909 40.0836 70.7186 36.9227 69.7668 35.1163C69.9595 34.4734 70.0398 33.7958 69.9802 33.1807C69.9597 32.9509 69.9242 32.714 69.9108 32.4692C69.7027 30.6467 68.5329 28.4441 66.6572 27.8164C66.4473 27.7541 66.2595 27.6839 66.0496 27.6216C63.2812 26.7013 59.3703 27.1502 58.2144 30.4208C55.8215 37.2906 61.3218 42.526 64.9761 48.0466C68.1669 52.8716 71.279 57.8246 74.6751 62.5264C71.8568 64.7562 69.337 67.3286 67.2176 70.1449C60.8202 62.9089 53.0764 56.3036 45.6205 50.2195C45.2793 49.655 44.7823 49.1088 44.056 48.6195C43.2234 48.0434 42.3988 47.4895 41.5591 46.9284C35.6413 42.8904 28.3176 50.8104 34.1409 55.5561C43.4189 63.1232 52.5549 71.8891 62.3842 78.8724C61.2221 81.8833 60.4531 84.841 60.0913 87.7156C53.5463 86.6471 46.8368 86.1615 40.3415 85.6118C34.6291 85.1194 23.9533 82.1947 18.9983 86.2236C17.0279 87.826 15.6886 90.5882 16.77 93.1344C16.8799 93.3697 16.9677 93.6129 17.0776 93.8482C18.0013 96.0265 20.5569 98.2956 23.1706 97.7487C23.3778 97.6997 23.5779 97.6656 23.7851 97.6165C24.6218 97.4424 25.3433 97.1222 25.9665 96.7374C26.4269 96.6977 26.9467 96.6493 27.6072 96.5755C29.6535 96.5682 31.7078 96.583 33.7551 96.6129C37.8566 96.6575 41.9511 96.7172 46.0394 96.8289C50.7458 96.957 55.4939 97.2699 60.2516 97.3671C60.4789 98.7584 60.7726 100.126 61.185 101.476C59.4082 102.161 57.6614 102.86 55.9218 103.544C48.8454 106.334 40.3372 108.999 34.334 113.69C29.6745 117.326 33.2703 124.727 39.0756 122.915C46.0628 120.743 52.6742 115.973 59.1623 112.556C61.0506 111.557 62.992 110.602 64.9334 109.646C68.4336 115.259 73.53 120.102 79.6504 123.906C75.5689 130.805 71.723 137.907 68.3313 145.021C65.5412 150.86 74.3163 154.888 77.3802 149.288C81.1067 142.478 84.5488 135.296 87.7217 128.06C88.1654 128.251 88.6242 128.449 89.075 128.625C92.0206 129.794 94.9182 130.518 97.7564 130.939C96.0617 140.817 95.7917 150.834 96.3153 161.042C96.6584 167.808 107.912 166.658 106.682 160.134C104.87 150.474 104.829 140.842 105.726 131.212C109.632 130.89 113.33 129.918 116.714 128.322C119.726 136.493 124.23 144.543 128.41 151.485C131.908 157.299 141.024 151.159 137.129 145.525C133.765 140.637 130.462 135.777 127.545 130.605C126.254 128.308 125.139 125.911 124.009 123.507C126.683 121.154 129.019 118.348 130.912 115.113C138.116 121.262 145.473 127.245 151.931 134.197C156.959 139.614 165.402 129.36 157.848 125.082C149.397 120.29 141.757 114.284 133.923 108.572C134.39 107.269 134.782 105.932 135.12 104.55C148.762 105.791 163.323 106.292 176.698 105.482C183.104 105.091 183.87 94.3717 177.155 93.9753L177.193 93.9745Z" fill="#FFF964"/>
<path d="M176.567 100.375C165.189 98.862 152.39 97.7064 140.837 98.4771C140.867 98.1794 140.904 97.8667 140.919 97.5618C141.341 91.0467 139.832 84.373 136.909 78.3538C143.023 76.0822 149.112 73.6699 155.123 71.148C156.567 70.5448 155.759 68.2377 154.293 68.8488C148.169 71.3361 142.079 73.9489 136.058 76.6864C132.708 70.5205 127.852 65.1672 121.975 61.5887C125.883 56.112 129.495 49.8173 131.717 43.5453C132.233 42.1007 130.327 41.184 129.549 42.5229C126.192 48.3145 123.166 54.5371 120.217 60.5946C115.611 58.1471 110.464 56.766 105.006 56.9068C104.062 56.6822 103.113 56.5097 102.157 56.3522C103.294 46.7988 103.693 36.2737 102.807 26.7939C102.684 25.4152 100.47 25.233 100.297 26.6925C99.2156 36.0887 99.3585 46.5575 100.275 56.0886C94.6695 55.4081 88.9247 55.7259 83.554 57.0457C82.3768 54.2342 81.0376 51.493 79.6249 48.7906C78.72 47.0798 77.793 45.3768 76.8227 43.7269C76.3335 42.8908 75.8373 42.0698 75.326 41.2416C75.1868 41.0293 74.1954 39.7362 73.2324 38.6951C73.6228 38.5307 73.9583 38.2486 73.9767 37.7803C74.01 37.0072 73.9195 36.6526 73.5535 35.9847C73.3346 35.5513 72.7651 35.3928 72.3189 35.4025C72.1852 35.4129 72.0435 35.4011 71.9098 35.4114C71.4263 35.4219 71.0183 35.7798 70.79 36.1858C69.3028 38.9883 72.9339 42.3333 74.3047 44.5391C76.9303 48.7674 79.1806 53.1672 81.4317 57.6042C73.7486 59.9248 67.0113 64.4158 62.9022 71.1C58.5999 67.6954 54.0374 64.6083 49.6049 61.3624C47.4454 59.7754 45.0355 56.7678 42.1368 57.5288C41.5897 57.6744 41.1304 58.3751 41.2334 58.9373L41.3027 59.3368C41.4154 59.9954 41.7884 60.3363 42.4109 60.5382C42.5535 60.5871 42.6961 60.636 42.8458 60.6699C43.1982 60.7811 43.6258 60.6158 43.9321 60.3566C46.8059 61.3266 51.9704 65.9083 53.446 66.916C56.284 68.8597 59.0998 70.8112 62.0165 72.6269C60.1808 76.0906 59.0129 80.0893 58.7068 84.6412C58.5221 87.4526 58.6775 90.1674 59.0975 92.7503C49.897 92.044 40.3613 91.9316 31.2109 92.3679C30.2892 92.4102 30.2137 93.8972 31.1391 94.0034C40.4442 95.0342 50.2271 95.52 59.63 95.3679C60.5951 99.2535 62.2084 102.858 64.3129 106.161C58.8926 107.586 53.2283 111.519 49.8901 115.632C49.0662 116.638 50.3704 118.243 51.4582 117.38C53.9411 115.433 56.1733 113.275 58.7944 111.502C60.8959 110.09 63.1604 108.957 65.3088 107.64C69.6868 113.85 75.8459 118.938 82.7845 122.724C79.5356 128.364 76.7438 134.441 73.9767 140.308C73.6795 140.939 73.9517 141.728 74.5991 142.033C75.9914 142.671 77.183 142.096 77.4435 140.567C77.5088 140.195 77.375 139.893 77.1384 139.653C79.6517 134.363 82.1923 128.975 84.2698 123.516C88.5955 125.739 93.1848 127.481 97.7828 128.659C98.5692 128.865 99.3547 129.033 100.132 129.18C99.1111 132.789 100.038 136.95 100.203 140.66C100.426 145.847 100.136 151.067 100.537 156.227C100.627 157.48 102.625 157.615 102.772 156.327C103.314 151.391 102.989 146.303 102.765 141.355C102.598 137.533 102.933 132.959 101.336 129.399C108.389 130.56 115.124 129.664 120.972 127.138C124.706 133.503 127.955 140.117 131.653 146.483C132.282 147.569 134.045 146.639 133.593 145.491C130.922 138.783 126.746 132.301 122.48 126.437C126.9 124.246 130.76 121.095 133.781 117.108C139.322 121.556 145.073 125.79 150.758 130.049C152.039 131.001 153.667 129.109 152.379 128.172C146.605 123.908 140.837 119.592 134.926 115.539C137.828 111.22 139.794 106.075 140.576 100.28C151.956 102.491 164.879 102.954 176.397 102.882C177.818 102.873 177.897 100.599 176.5 100.399L176.567 100.375ZM125.792 121.523C116.844 128.475 106.328 128.139 95.9446 124.985C80.8451 120.396 66.275 109.728 62.6499 94.3888C62.7294 93.986 62.6592 93.5494 62.3917 93.2581C61.8734 90.6105 61.6277 87.8531 61.8026 84.9453C62.6455 71.2542 72.0783 63.1546 83.6138 60.1191C83.6953 60.1025 83.7767 60.0859 83.8502 60.0471C91.0536 58.1974 99.0487 58.2987 106.263 60.2513C106.914 60.4303 107.392 60.16 107.664 59.7382C114.868 61.2825 121.416 63.673 127.211 69.1025C134.347 75.7878 138.187 85.2851 138.155 94.9927C138.115 104.99 133.782 115.311 125.792 121.523Z" fill="#222221"/>
<path d="M78.3557 86.881C78.6301 84.6989 76.8509 82.2273 74.7326 81.7237C74.4032 81.6417 74.0756 81.6339 73.7338 81.6562C72.8304 81.2302 71.7713 81.1344 70.7329 81.5802C68.8481 82.4158 68.0487 84.7355 68.5339 86.6337C69.0998 88.7901 71.1716 90.1339 73.318 90.2656C75.5017 90.3964 78.0416 89.2644 78.3477 86.8589L78.3557 86.881Z" fill="#222221"/>
<path d="M131.988 96.3223C130.787 94.655 128.543 94.1839 126.72 95.1221C126.646 95.1608 126.581 95.2217 126.507 95.2604C126.213 95.3782 125.926 95.5181 125.67 95.7093C124.39 96.6283 123.969 97.9892 124.121 99.345C124.061 99.6285 124.016 99.9191 124.023 100.216C124.025 100.602 124.349 101.048 124.694 101.174L124.709 101.182C125.457 102.562 126.772 103.677 128.347 103.888C132.453 104.43 134.09 99.2029 131.988 96.3223Z" fill="#222221"/>
<path d="M116.221 95.1792C116.168 93.3014 113.43 93.643 113.377 95.434C113.242 99.7 112.646 103.931 110.678 107.792C107.738 113.596 101.686 114.723 96.3228 111.772C89.4436 107.978 87.0924 99.7329 88.4642 92.4916C88.6621 91.4476 86.9803 90.8379 86.6195 91.9152C83.3794 101.284 88.5833 112.69 98.3302 115.672C111.121 119.576 116.489 105.578 116.221 95.1792Z" fill="#222221"/>
</g>
<defs>
<clipPath id="clip0_379_3">
<rect width="120" height="108" fill="white" transform="translate(224 138)"/>
</clipPath>
<clipPath id="clip1_379_3">
<rect width="157.076" height="130.897" fill="white" transform="translate(55.8301) rotate(25.2469)"/>
</clipPath>
</defs>
</svg>
