<svg width="283" height="235" viewBox="0 0 283 235" fill="none" xmlns="http://www.w3.org/2000/svg">
<g clip-path="url(#clip0_379_2)">
<path d="M268.509 60.7336C268.866 60.6214 269.222 60.5279 269.579 60.3969C285.985 54.2057 284.671 29.9272 268.941 23.867C264.999 22.3519 260.813 21.9965 256.646 22.7634C256.233 22.8382 254.638 23.2684 252.798 23.8857C254.694 13.6543 249.382 2.63732 237.538 0.374066C224.473 -2.11364 213.005 8.41702 215.238 19.8268C214.469 19.939 213.699 20.0699 212.948 20.2196C207.58 6.37822 187.42 3.10493 176.759 14.0471C165.102 25.9993 171.972 44.2175 186.2 48.744C186.163 49.7353 186.182 50.7267 186.238 51.7367C185.281 51.4187 184.229 51.4 183.16 51.8115C171.785 56.1884 162.249 67.486 165.665 80.3734C168.875 92.5126 182.221 94.6449 191.869 88.4537C193.615 87.3315 195.454 85.7977 197.144 84.0021C197.369 86.0596 197.406 88.2667 198.101 90.1184C200.184 95.655 204.445 100.387 209.551 103.361C220.438 109.702 235.342 107.607 242.437 96.6276C243.451 95.0751 244.164 93.4104 244.652 91.727C246.998 92.1385 249.42 92.3256 251.954 92.3069C262.765 92.2508 277.031 88.6034 276.336 75.0987C276.074 70.0298 272.939 64.7177 268.528 60.7336L268.509 60.7336ZM233.746 65.5594C233.202 65.8774 232.639 66.1766 232.057 66.4385C231.287 66.1018 230.48 65.8025 229.598 65.6155C224.267 64.4371 220.044 65.4846 216.778 67.8974C213.868 67.2241 211.09 66.0457 208.687 64.3436C198.683 57.3294 198.495 46.4246 205.459 37.2594C205.534 37.1472 205.59 37.0537 205.665 36.9414C216.646 34.1732 228.321 29.6093 237.144 40.2147C243.788 48.2016 243.113 60.0415 233.765 65.5594L233.746 65.5594ZM259.068 75.585C258.336 73.9577 257.322 72.5549 256.102 71.4326C256.346 70.7592 258.974 73.1534 259.068 74.5563C259.086 75.0052 259.086 75.3232 259.068 75.585Z" fill="#D266AD"/>
<path d="M281.442 37.0537C276.111 24.69 264.286 22.3332 253.624 25.7936C254.412 15.8427 249.213 5.83582 238.045 2.31937C225.656 -1.57118 214.3 5.57396 210.658 16.0672C198.908 5.08764 181.095 -0.523723 171.09 15.8989C163.206 28.805 169.438 42.7212 180.607 49.38C175.201 51.213 170.302 54.2058 166.904 59.1251C162.268 65.84 161.273 74.9304 166.454 81.664C173.699 91.0911 183.685 91.2033 192.564 87.0696C192.507 98.1614 199.527 107.626 214.769 108C223.76 108.206 234.534 105.905 239.602 97.7312C241.329 94.9442 242.118 92.0263 242.249 89.0523C249.983 94.1212 258.88 96.0291 267.74 89.3142C273.896 84.6567 275.604 77.0253 272.676 69.9737C271.55 67.2428 269.898 65.017 267.946 63.1465C271.212 62.0617 274.272 60.397 276.937 57.9093C282.812 52.4101 284.595 44.442 281.423 37.0537L281.442 37.0537ZM247.561 54.1309C241.536 53.6259 240.485 62.9969 246.153 64.4932C251.109 65.7839 257.04 66.9061 260.776 70.7219C266.125 76.1836 262.878 82.6554 255.895 83.2165C247.261 83.9086 240.86 74.9865 236.261 68.9823C232.263 63.7638 223.741 68.1968 227.158 74.2944C230.011 79.4008 233.371 84.8999 231.325 90.7357C229.053 97.2636 221.076 98.1053 214.807 97.6751C199.696 96.6276 201.93 83.5345 207.993 74.3505C208.425 73.7707 208.838 73.1909 209.232 72.611C213.155 66.663 203.995 61.8372 199.884 67.168C199.377 67.8414 198.889 68.5147 198.439 69.2068C193.408 75.7347 183.591 83.7776 176.402 75.903C166.454 64.9983 187.308 58.9006 194.29 57.5726C196.731 57.105 197.932 55.1223 198.12 53.0087C201.104 51.6806 201.724 46.7801 197.838 45.9009C187.289 43.5255 173.793 35.3329 179.443 22.6138C186.989 5.66748 206.341 22.6138 211.409 32.4524C213.831 37.1472 222.015 33.8739 220.1 28.805C216.271 18.611 224.924 7.66886 235.98 11.9335C245.74 15.7118 246.21 26.8036 240.353 33.8926C239.771 34.4538 239.227 35.0523 238.701 35.6509C234.722 40.2896 240.879 46.593 245.478 42.4032C246.116 41.8234 246.679 41.2061 247.242 40.5701C253.999 34.2106 266.576 29.0107 272.094 39.7846C279.865 54.9913 255.952 54.823 247.599 54.1122L247.561 54.1309Z" fill="#EDCAE2"/>
<path d="M244.595 49.5858C243.957 45.3024 241.761 41.3183 237.801 38.681C230.443 31.8539 219.03 28.8237 209.964 33.4063C198.063 39.4292 196.656 54.1497 205.44 63.5767C213.455 72.1621 227.796 74.5189 237.481 67.299C238.533 66.5134 239.471 65.5968 240.316 64.6055C244.126 60.715 246.078 55.4403 244.614 49.5858L244.595 49.5858Z" fill="#F1CE30"/>
<path d="M276.074 39.8781C275.454 33.93 271.437 29.2165 265.712 27.5518C259.499 25.7562 253.343 27.7201 247.824 30.6755C254.056 20.9304 252.348 4.67615 240.184 1.25322C224.004 -3.29198 213.906 14.7205 219.124 28.4309C219.124 28.4683 219.161 28.487 219.18 28.5244C219.124 28.6367 219.105 28.7676 219.086 28.8798C218.523 28.9172 217.96 28.9921 217.416 29.0669C217.603 28.805 217.697 28.4496 217.622 28.0568C214.45 9.91342 185.581 5.77972 174.919 19.4714C163.826 33.7243 176.046 50.6145 191.606 51.7929C184.192 53.0461 176.665 55.646 171.747 61.4818C167.017 67.1119 165.985 74.8369 170.527 80.8784C179.875 93.3357 194.76 88.1732 203.694 78.69C199.79 90.4739 207.862 104.297 222.033 103.997C229.466 103.848 236.224 99.6952 239.19 92.8306C240.616 89.5199 241.236 85.087 240.56 81.0281C244.014 84.6568 248.03 87.6869 253.023 88.8466C259.105 90.2494 265.956 88.5847 269.241 82.9359C275.623 71.9751 266.857 60.4157 256.271 56.6935C266.538 56.0014 277.388 52.1857 276.092 39.8594L276.074 39.8781ZM237.481 3.60999C251.559 5.49915 251.447 26.6353 241.442 33.4624C241.142 33.1632 240.804 32.9013 240.485 32.6207C245.421 25.9806 248.706 14.3464 239.283 9.95083C235.642 8.24872 231.55 9.50192 228.734 12.158C224.68 15.9924 224.023 21.8469 224.323 27.1216C223.122 27.1964 221.902 27.3461 220.663 27.6266C218.748 16.4787 223.441 1.73954 237.481 3.60999ZM238.645 31.1618C235.023 28.5805 230.63 27.0842 225.919 27.0655C226.182 23.549 226.369 19.7707 228.096 16.5909C230.386 12.345 235.698 9.53933 239.903 13.0932C245.984 18.2556 242.23 25.7001 238.645 31.1618ZM222.371 30.769C222.765 30.769 223.028 30.5445 223.16 30.2827C235.698 28.7863 245.834 38.9055 245.346 51.7555C244.896 63.5767 233.878 74.0513 222.071 74.1448C211.109 74.2383 200.71 64.9609 199.847 54.0374C198.833 41.1687 209.945 31.2179 222.371 30.769ZM246.473 60.1351C250.227 61.089 253.831 62.4732 257.097 64.5868C261.301 67.2989 268.697 75.2671 261.038 78.9893C253.493 82.6554 245.008 74.257 240.71 68.8888C243.169 66.3637 245.121 63.3897 246.473 60.1351ZM220.288 94.7759C209.57 94.7759 212.704 82.6928 215.257 76.1836C218.279 77.0814 221.47 77.4181 224.68 77.044C226.369 76.8383 228.002 76.4642 229.598 75.9404C229.598 76.0901 229.598 76.2397 229.654 76.4268C232.076 83.8338 230.03 94.7946 220.288 94.7946L220.288 94.7759ZM202.568 67.8601C202.568 67.8601 202.474 67.8975 202.437 67.9162C199.152 70.3665 195.905 72.929 192.507 75.2671C190.461 76.6699 188.228 78.185 185.731 78.6526C182.071 79.3634 175.97 77.8483 177.059 72.2556C177.866 68.0658 184.361 64.8674 187.589 62.9034C190.705 60.9955 193.971 59.3682 197.294 57.8344C198.232 61.5379 200.091 64.9609 202.587 67.8414L202.568 67.8601ZM177.341 21.3419C187.402 8.52929 210.414 14.1032 215.126 28.7489C215.22 29.0482 215.407 29.2539 215.595 29.4036C214.056 29.7402 212.554 30.2453 211.128 30.8625C208.087 19.752 190.893 15.4874 182.259 22.8383C178.317 26.1864 177.735 31.4611 179.893 36.025C182.953 42.4032 190.349 45.0592 197.012 45.2276C197.744 45.2276 197.876 44.1614 197.181 43.9557C192.808 42.6651 188.059 41.7111 184.624 38.4753C178.992 33.1632 180.381 24.9519 188.059 22.5577C196.036 20.07 206.604 23.3994 208.969 31.9287C201.986 35.8005 196.956 43.0018 196.58 51.3253C196.43 51.2505 196.261 51.213 196.055 51.213C196.355 50.5771 196.092 49.6793 195.173 49.7167C180.55 50.2404 166.698 34.9027 177.322 21.3606L177.341 21.3419ZM175.313 81.3648C167.768 75.0052 170.339 65.7839 177.453 60.3783C182.991 56.1884 189.786 55.3467 196.318 53.6633C196.43 53.6259 196.524 53.5698 196.599 53.5137C196.599 53.7569 196.599 54 196.618 54.2619C196.674 54.8978 196.787 55.5338 196.9 56.151C188.697 58.938 170.396 66.7565 175.088 76.4455C181.282 89.1833 197.613 74.5376 203.676 70.0485C203.882 69.8802 204.014 69.6931 204.089 69.4874C204.971 70.3478 205.872 71.1708 206.867 71.919C199.696 81.3835 186.576 90.8667 175.313 81.3461L175.313 81.3648ZM237.519 89.576C235.623 96.3471 229.729 100.78 222.765 101.154C207.993 101.977 200.128 84.6755 209.739 73.8455C211.015 74.575 212.348 75.1736 213.718 75.6786C211.315 79.8684 209.344 85.1244 210.64 89.894C211.785 94.14 215.464 96.9082 219.837 97.0953C231.381 97.5816 234.891 84.8251 231.982 75.7721C231.888 75.5102 231.738 75.3232 231.55 75.1923C232.564 74.7621 233.558 74.2944 234.516 73.752C234.985 74.388 235.473 75.0052 235.98 75.6412C237.669 80.2238 239.002 84.2827 237.519 89.5573L237.519 89.576ZM266.013 82.805C256.44 94.5515 242.869 79.9993 236.806 72.2931C237.763 71.601 238.664 70.8528 239.527 70.0485C243.976 76.9505 257.622 88.1545 264.962 79.0454C273.052 69.0011 255.22 60.0977 247.336 57.7409C247.449 57.3668 247.58 56.9927 247.674 56.6187C247.73 56.6187 247.749 56.6561 247.805 56.6561C247.843 56.6561 247.88 56.6561 247.918 56.6561C248.03 56.9366 248.293 57.1798 248.687 57.2172C259.537 58.2647 275.792 70.778 265.994 82.7863L266.013 82.805ZM248.218 53.8504C248.387 52.5785 248.443 51.2692 248.425 49.9598C248.425 49.9598 248.425 49.9598 248.443 49.9598C255.295 51.7368 273.54 52.0922 271.625 40.3083C269.879 29.5906 251.447 33.8365 245.384 36.8293C244.483 37.2782 245.121 38.8119 246.078 38.4565C251.822 36.3242 261.02 33.6495 266.651 37.4278C273.446 42.0104 265.994 47.3973 261.376 48.239C257.284 48.9685 253.117 48.4261 249.119 47.4721C248.781 47.3973 248.5 47.4534 248.256 47.5657C247.711 42.9643 245.909 38.8306 243.263 35.5012C244.032 34.9588 244.746 34.3415 245.421 33.6682C250.977 30.8812 257.003 28.2813 263.366 29.4971C269.879 30.7503 274.272 36.1933 273.408 42.8147C271.888 54.6921 257.359 54.4863 248.199 53.7943L248.218 53.8504Z" fill="#222221"/>
</g>
<g clip-path="url(#clip1_379_2)">
<path d="M100.526 187.204C102.515 183.997 102.418 179.688 100.085 176.674C99.3007 175.661 98.3087 174.933 97.2143 174.406C95.5705 173.159 93.3586 172.613 91.2601 173.011C87.4007 173.732 84.6541 177.164 84.2423 180.964C84.2393 181.008 84.2356 181.063 84.2326 181.107C84.0806 182.045 84.1035 183.017 84.2926 183.989C84.6606 185.757 85.6065 187.332 86.8909 188.489C87.8247 189.423 88.9602 190.162 90.2575 190.635C93.9995 191.98 98.4137 190.591 100.526 187.204Z" fill="#D266AD"/>
<path d="M72.5926 142.708C75.6159 140.1 76.2627 135.61 74.2225 132.197C71.674 127.943 66.2805 126.939 62.2764 129.801C62.2411 129.832 62.2058 129.863 62.1704 129.893C60.9289 130.725 59.9055 131.935 59.2701 133.469C57.8167 136.945 58.9977 141.271 62.1555 143.393C65.2596 145.489 69.7805 145.143 72.6044 142.698L72.5926 142.708Z" fill="#D266AD"/>
<path d="M58.6323 218.477C60.1991 218.241 61.6368 217.622 62.893 216.736C67.3528 215.328 70.5389 210.965 70.4904 206.109C70.4281 199.983 65.32 195.248 59.2289 195.223C52.7725 195.194 47.9564 200.891 47.6166 207.067C47.2953 213.134 52.0502 219.488 58.6212 218.477L58.6323 218.477Z" fill="#D266AD"/>
<path d="M101.64 189.563C103.302 187.27 103.922 184.323 103.397 181.608C103.587 176.988 100.103 173.3 95.4178 172.796C90.4806 172.253 85.5087 175.501 83.9509 180.194C80.5421 190.475 95.1034 198.596 101.64 189.574L101.64 189.563Z" fill="#EDCAE2"/>
<path d="M40.1373 165.95C43.1612 163.496 44.0174 159.186 42.6029 155.693C42.331 151.847 39.6855 148.702 35.7874 147.699C31.5093 146.583 27.0439 148.73 24.8941 152.511C22.3792 156.941 23.5162 162.246 27.4196 165.465C30.9452 168.373 36.4566 168.944 40.1476 165.961L40.1373 165.95Z" fill="#EDCAE2"/>
<path d="M39.8528 189.667C55.5132 177.589 73.7657 169.281 89.258 156.905C91.9751 154.728 88.9728 150.797 85.9967 152.052C76.3375 156.142 67.2399 161.428 58.149 166.616C49.8068 171.379 40.7817 176.086 33.744 182.691C29.3678 186.796 35.1431 193.297 39.8535 189.656L39.8528 189.667Z" fill="#EDCAE2"/>
<path d="M38.4405 177.78C41.3413 176.984 43.7399 175.094 46.1384 173.37C50.0852 170.538 54.0885 167.852 58.2777 165.367C65.5014 161.09 72.9286 156.915 80.3689 153.039C80.9543 152.737 81.3075 152.264 81.4872 151.736C82.6301 151.052 83.5381 149.911 83.7935 148.263C85.1613 139.333 83.4247 129.951 78.8008 122.149C74.6138 115.094 67.6955 107.148 58.5895 110.592C46.8693 115.017 43.5608 125.944 44.6002 136.956C38.872 132.709 32.3209 129.983 24.5782 130.629C10.9978 131.762 2.34682 143.719 6.69836 156.863C8.82275 163.293 13.627 168.427 19.2026 172.146C24.6819 175.814 31.691 179.63 38.4522 177.77L38.4405 177.78ZM29.8741 164.55C26.6643 163.363 24.1416 160.203 23.41 156.768C24.2558 156.218 24.9408 155.426 25.2715 154.467C27.3345 148.363 38.3969 150.721 41.5242 154.606C47.3821 161.851 35.5801 166.668 29.8624 164.561L29.8741 164.55ZM51.9996 159.913C52.0941 159.335 52.1444 158.754 52.1514 158.158C52.6136 158.532 53.1163 158.797 53.6382 158.943C53.0851 159.258 52.5424 159.586 51.9996 159.913ZM74.4813 149.84C72.1628 150.543 69.9053 151.328 67.6874 152.182C67.6853 152.05 67.6729 151.906 67.6487 151.772C69.9252 151.197 72.1778 150.158 74.2202 148.785C74.2612 149.163 74.3484 149.511 74.4703 149.839L74.4813 149.84ZM69.3062 126.261C69.4826 126.273 69.6503 126.251 69.8282 126.241C70.6391 127.521 71.3455 128.87 71.9497 130.256C73.3805 133.507 74.1497 136.879 74.4049 140.316C70.6462 143.316 65.8122 145.835 61.5678 142.581C60.8094 142 60.2696 141.136 59.9173 140.12C59.5685 133.644 63.3558 125.958 69.2952 126.261L69.3062 126.261Z" fill="#E7BC3D"/>
<path d="M60.6089 228.405C76.1759 225.906 81.088 209.936 80.6635 195.072C82.8584 196.853 85.3196 198.298 88.1503 199.196C95.991 201.689 104.54 199.432 108.728 192.06C117.315 176.945 103.883 158.831 87.7888 158.482C86.3287 158.45 85.3795 159.709 85.3531 160.921C72.8932 167.766 61.0884 175.903 49.1838 183.713C47.6308 182.924 45.6913 183.102 44.5292 185.052C43.7042 186.442 43.0167 187.763 42.299 189.203C41.8507 190.1 41.8965 191.062 42.2473 191.935C38.3923 198.657 37.4109 206.786 39.9317 214.236C42.9037 223.04 50.8652 229.975 60.6089 228.405ZM102.028 186.115C99.853 192.078 93.4175 192.724 88.3289 189.832C86.9207 189.031 85.6708 188.02 84.518 186.883C84.6331 186.163 84.5866 185.377 84.2761 184.562C81.219 176.524 90.4571 172.273 96.6535 170.74C97.1491 170.619 97.5955 170.406 97.9904 170.135C101.956 174.561 104.146 180.357 102.028 186.115ZM49.1852 211.067C47.915 207.242 48.1225 203.351 49.4275 199.777C51.65 197.38 54.5956 195.428 57.8916 195.176C62.4912 194.814 66.882 198.034 66.5989 202.879C66.454 205.351 68.4247 207.006 70.5183 207.335C69.3028 211.389 67.1597 214.906 63.7213 217.266C57.471 221.564 51.3375 217.576 49.1852 211.067Z" fill="#E7BC3D"/>
<path d="M76.133 216.869C80.5026 208.109 79.8008 198.003 76.1561 189.153C80.6894 193.706 86.0193 197.618 92.5208 198.454C99.22 199.315 106.046 196.655 108.926 190.276C115.898 174.809 100.112 159.072 84.7728 161.311C87.6025 159.109 89.8191 156.634 89.964 154.162C90.1044 154.216 90.2595 154.215 90.4206 154.127C96.1879 150.91 102.123 148.167 108.717 147.135C112.221 146.589 115.876 146.273 118.94 148.311C121.686 150.129 122.814 153.602 121.662 156.723C121.005 157.749 120.349 158.774 119.692 159.811C114.679 163.167 112.257 161.139 112.427 153.706C113.136 152.893 111.736 151.64 110.995 152.44C107.78 155.917 108.663 161.536 113.582 163.005C119.176 164.651 123.924 159.634 124.094 154.329C124.651 136.752 96.9384 147.673 89.8876 152.999C89.7277 152.249 89.368 151.508 88.7641 150.772C96.5609 148.177 104.582 143.249 108.606 135.998C111.632 130.555 112.695 121.881 105.564 119.215C99.2432 116.846 93.2851 121.738 92.1175 127.869C91.0819 133.358 94.5053 139.909 100.79 137.566C101.971 137.127 101.092 135.38 99.9115 135.808C94.7184 137.74 93.5245 131.637 94.1177 128.269C94.6401 125.293 96.1089 123.065 98.7851 121.658C107.365 117.153 110.423 127.297 107.579 133.657C103.612 142.521 94.476 145.588 86.8609 150.412C86.7572 150.471 86.6947 150.577 86.6659 150.674C84.9486 150.514 83.4031 150.763 81.9192 151.247C81.9317 151.226 81.9552 151.205 81.9567 151.183C85.0543 142.558 84.3366 132.031 79.5452 124.085C75.61 117.566 67.6149 112.768 59.9223 115.623C48.9 119.72 47.2336 133.56 50.3343 144.723C45.8488 138.971 40.0696 134.003 33.4001 132.703C24.9045 131.048 15.3947 134.729 10.7115 142.067C6.12751 149.246 6.85224 159.013 11.6708 165.901C18.3772 175.509 31.4933 176.164 42.3195 177.59C38.7962 180.385 35.4588 183.381 32.53 186.723C32.1056 186.937 31.6703 187.15 31.2459 187.364C30.7061 187.648 30.6896 188.22 30.9518 188.602C30.879 188.696 30.8069 188.78 30.7348 188.863C30.1778 189.564 31.2748 190.543 31.9163 189.902C32.5335 189.293 33.1507 188.684 33.7782 188.087C38.284 185.998 42.8031 183.877 47.3133 181.722C36.3234 195.34 28.7388 226.759 53.2186 230.068C63.0436 231.394 71.8688 225.383 76.1478 216.815L76.133 216.869ZM14.4113 166.329C8.95733 159.828 7.77696 149.755 12.7123 142.621C17.549 135.635 27.4282 132.553 35.4511 135.301C43.4086 138.034 48.4119 145.795 53.4497 152.389C54.2025 153.709 55.0398 154.923 55.9339 155.954C56.7663 156.915 58.2492 155.625 57.4169 154.665C49.8234 145.89 46.8054 124.487 59.3716 118.034C67.6687 113.775 76.0978 120.676 79.2935 127.973C82.5084 135.316 82.1704 143.267 80.8291 150.986C80.7767 151.269 80.9523 151.457 81.1801 151.528C79.3483 152.242 77.6148 153.305 75.818 154.485C69.9415 158.335 64.1538 162.345 58.3375 166.286C53.7524 169.385 48.9872 172.526 44.4577 175.948C34.7071 174.506 21.27 174.502 14.4113 166.329ZM38.4103 183.801C43.8354 178.928 49.4976 174.48 55.6317 170.262C60.1043 167.189 64.6181 164.163 69.1112 161.113C74.4171 157.512 80.3249 151.889 87.0916 151.916C87.59 151.917 87.7866 151.467 87.6662 151.117C87.7001 151.108 87.7457 151.089 87.7795 151.08C87.7868 151.136 87.8051 151.192 87.8345 151.25C92.2578 158.905 65.9515 170.33 61.0456 172.767C53.5377 176.495 45.9403 180.074 38.4221 183.79L38.4103 183.801ZM38.8799 206.686C39.6489 197.275 43.7734 188.862 49.8269 181.737C50.1396 181.373 50.0149 180.923 49.7372 180.606C57.6392 176.784 65.4633 172.801 73.0127 168.458C74.9955 167.313 79.3962 165.139 83.2106 162.463C83.331 162.648 83.5545 162.784 83.8331 162.759C91.3905 162.067 99.1381 164.301 103.927 170.481C108.176 175.963 110.336 184.481 106.454 190.781C97.6461 205.065 80.8686 191.545 73.6172 183.61C72.7819 182.693 71.3578 183.932 72.1696 184.869C72.4877 185.243 72.8176 185.607 73.1467 185.983C76.9185 195.083 79.1266 205.193 75.0662 214.624C71.4799 222.941 63.4779 229.228 54.0615 228.25C42.7197 227.075 38.0199 217.117 38.8674 206.707L38.8799 206.686Z" fill="#222221"/>
<path d="M43.5212 163.906C47.0097 159.168 44.9351 151.836 39.4181 149.709C39.202 149.629 39.0013 149.648 38.8306 149.714C35.6661 147.857 31.4621 148.102 28.5277 150.871C24.3266 154.844 24.5769 161.468 28.7562 165.357C33.1024 169.401 40.0092 168.665 43.5212 163.906ZM30.5595 164.409C27.044 161.679 26.3737 156.681 28.9961 153.119C32.1056 148.906 38.1624 149.602 41.0367 153.624C41.1682 153.809 41.3535 153.855 41.5329 153.823C43.3789 156.176 44.0814 159.223 42.335 162.117C39.8519 166.239 34.3909 167.381 30.5485 164.408L30.5595 164.409Z" fill="#222221"/>
<path d="M63.9115 217.566C69.1282 214.466 72.6158 205.15 68.532 200.01C68.3895 199.823 68.1955 199.744 67.9867 199.719C65.2782 195.047 59.1848 192.925 54.1361 195.507C47.8019 198.752 47.0123 206.011 49.6655 211.992C52.2036 217.712 58.061 221.031 63.9115 217.566ZM51.0166 210.032C49.272 205.194 50.012 199.817 54.9739 197.207C59.4417 194.862 64.1331 196.911 66.8635 200.603C66.8539 200.745 66.8883 200.891 66.9787 201.03C69.7838 205.256 67.6422 212.358 63.7652 215.306C58.2185 219.519 52.9563 215.425 51.0173 210.021L51.0166 210.032Z" fill="#222221"/>
<path d="M72.6771 140.475C75.1468 136.715 75.7732 128.265 70.0924 127.087C69.8631 127.038 69.6491 127.09 69.4873 127.189C66.9018 125.779 63.2106 126.632 61.0712 128.948C57.7842 132.509 57.8288 138.733 61.68 141.905C64.9125 144.561 70.3304 144.055 72.6882 140.476L72.6771 140.475ZM62.2464 140.244C59.7887 137.762 59.5788 133.656 61.5002 130.796C63.9138 127.209 68.7296 126.763 71.271 130.464C71.4635 130.731 71.7606 130.596 71.8762 130.362C73.3869 132.923 72.6725 137.265 71.2463 139.518C69.3374 142.521 64.6409 142.678 62.2457 140.255L62.2464 140.244Z" fill="#222221"/>
<path d="M96.9773 190.373C101.572 188.279 103.545 182.191 101.229 177.777C101.024 177.377 100.666 177.265 100.329 177.33C98.21 174.099 93.8536 172.337 90.0621 173.691C85.5441 175.305 82.8977 180.862 84.6211 185.357C86.4114 190.012 92.4164 192.458 96.9655 190.383L96.9773 190.373ZM86.5231 185.243C84.838 181.82 86.6258 177.331 89.9639 175.637C94.0933 173.545 98.521 176.381 100.157 180.208C100.791 183.439 99.6342 186.956 96.4998 188.587C93.044 190.383 88.2274 188.711 86.5231 185.243Z" fill="#222221"/>
</g>
<defs>
<clipPath id="clip0_379_2">
<rect width="120" height="108" fill="white" transform="translate(163)"/>
</clipPath>
<clipPath id="clip1_379_2">
<rect width="120.799" height="118.616" fill="white" transform="translate(126.816 114.055) rotate(93.8661)"/>
</clipPath>
</defs>
</svg>
