<svg width="1440" height="2549" viewBox="0 0 1440 2549" fill="none" xmlns="http://www.w3.org/2000/svg">
<path d="M2008.26 2198.18C1350.52 2678.74 -180.304 2544.83 -863.497 2417.81L-1185 1597.48C-1185 1597.48 -1131.5 -71.5891 -90 262.82C951.5 597.23 2413.46 137.785 2413.46 137.785L4965.42 0C5122.82 838.161 5343.18 2442.4 4965.42 2154.07C4493.21 1793.65 2830.44 1597.48 2008.26 2198.18Z" fill="#1A8FCE" fill-opacity="0.6"/>
<g opacity="0.25">
<path d="M353.762 592.012C353.965 561.719 349.47 531.077 346.636 500.94C343.762 470.57 341.413 440.083 337.486 409.829C337.405 409.245 337.162 408.817 336.879 408.389C338.66 407.026 339.227 404.262 336.595 402.977C293.475 381.562 237.885 380.121 195.008 403.016C194.684 402.782 194.319 402.587 193.874 402.47C143.183 387.13 79.616 397.72 44.3102 438.409C43.2575 439.616 43.9054 440.978 44.9986 441.407C44.9986 441.601 44.9175 441.757 44.9175 441.952C45.1604 445.339 45.3629 448.688 45.6059 452.075C41.719 454.723 37.7511 457.721 34.5525 460.992C33.6618 461.887 33.9452 463.25 34.7145 464.029C34.9574 497.475 38.1155 531.077 40.0185 564.484C41.7595 594.62 42.1643 625.107 52.5293 653.92C53.3391 656.179 56.7806 655.478 56.6996 653.414C58.805 651.156 60.9915 648.897 63.2588 646.639C63.2588 647.652 63.2588 648.664 63.2183 649.676C63.2183 651.74 65.4856 652.713 67.2266 651.896C104.314 634.608 142.494 624.679 183.752 622.616C183.954 622.616 184.076 622.538 184.238 622.499C186.707 629.741 195.736 633.751 203.348 632.155C212.579 630.247 218.653 621.331 219.139 612.57C219.463 613.349 220.232 614.011 221.406 614.05C258.21 615.763 296.107 615.179 332.708 611.168C334.935 610.935 335.866 608.949 335.502 607.353C338.053 608.053 340.644 608.754 343.235 609.494C345.3 610.078 347.325 608.482 347.365 606.457C347.406 603.07 347.487 599.682 347.527 596.295C348.661 596.489 349.794 596.723 350.928 596.918C354.248 597.502 355.827 593.764 353.762 591.973V592.012ZM185.857 407.649C190.19 440.394 193.267 473.256 194.765 506.274C196.02 534.815 193.51 564.328 197.113 592.713C172.537 580.603 138.122 584.692 112.978 592.985C94.1919 599.176 68.7247 610.623 58.1167 628.69C62.0846 601.434 58.9266 571.648 58.1978 544.704C57.2666 510.44 55.5659 476.138 52.5293 441.991C52.4079 440.394 51.3957 439.382 50.1811 438.876C90.143 409.245 136.219 394.839 185.898 407.649H185.857ZM55.3636 648.781C46.2132 618.995 46.1728 587.534 44.1483 556.697C42.1239 525.859 41.1926 494.71 37.6297 463.951C40.5043 461.77 43.3385 459.2 45.9297 456.553C47.9136 485.911 49.6142 515.269 50.424 544.704C51.2742 575.698 47.3468 609.222 53.1772 639.709C53.2986 640.293 53.7845 640.565 54.3108 640.643C55.5255 643.174 59.9387 643.641 61.1128 640.215C69.1295 616.113 104.638 601.668 128.04 596.567C129.781 596.178 131.441 595.983 133.142 595.672C101.925 605.172 72.7735 625.886 55.4445 648.742L55.3636 648.781ZM221.406 609.144C220.191 609.183 219.422 609.883 219.098 610.701C218.329 607.314 212.984 607.703 212.579 611.441C211.932 617.398 209.219 623.745 202.781 625.808C196.425 627.833 190.473 624.212 187.922 618.683C187.639 618.021 187.193 617.671 186.667 617.554C186.181 616.619 185.25 615.957 183.792 615.996C161.645 616.97 139.782 620.046 118.485 625.964C109.618 628.456 100.832 631.337 92.2888 634.686C85.9727 637.178 71.7613 647.496 67.8744 642.317C101.034 611.597 151.402 585.198 196.425 601.24C195.858 601.59 195.291 601.902 194.724 602.213C193.55 602.953 194.279 604.978 195.736 604.51C241.569 588.897 283.434 593.881 328.255 605.445C292.706 606.029 256.914 607.586 221.406 609.144ZM330.32 599.293C322.87 597.969 315.541 595.36 308.132 593.686C294.325 590.61 280.316 588.235 266.186 587.417C244.039 586.132 221.082 588.508 201.364 598.514C201.324 597.891 201.121 597.268 200.676 596.762C201.324 596.528 201.81 596.1 201.931 595.36C201.931 595.321 201.931 595.243 201.931 595.205C202.012 595.205 202.093 595.205 202.134 595.127C222.135 582.628 251.327 584.809 274.446 585.86C297.2 586.872 319.064 590.999 341.211 595.127C340.806 604.432 337.567 600.539 330.279 599.254L330.32 599.293ZM262.745 578.929C242.581 578.812 219.948 578.306 202.7 589.364C205.939 562.148 203.713 533.452 202.498 506.313C201.081 473.879 198.085 441.562 193.834 409.362C194.765 409.129 195.453 408.467 195.898 407.688C241.488 390.829 285.985 389.271 331.575 408.389C331.332 408.817 331.21 409.284 331.251 409.907C333.68 441.679 337.567 473.412 340.604 505.184C343.316 533.491 344.45 562.42 349.349 590.454C321.857 582.044 291.37 579.124 262.704 579.007L262.745 578.929Z" fill="#F2F2F2"/>
<path d="M150.552 602.797C140.551 603.809 131.117 608.599 123.343 614.556C122.088 615.529 123.748 617.593 125.044 616.697C133.182 611.246 141.563 608.754 151.037 606.574C153.143 606.068 152.778 602.602 150.511 602.836L150.552 602.797Z" fill="#F2F2F2"/>
<path d="M154.519 608.949C149.701 610.39 144.883 611.791 140.106 613.232C138.769 613.621 139.336 615.607 140.673 615.257C145.531 613.972 150.39 612.687 155.208 611.402C156.827 610.974 156.139 608.482 154.519 608.988V608.949Z" fill="#F2F2F2"/>
<path d="M334.895 550.623C299.71 541.395 261.044 544.51 226.953 556.385C225.252 556.969 225.9 559.5 227.722 559.033C263.919 549.571 296.876 549.299 333.721 554.711C336.474 555.1 337.729 551.362 334.895 550.623Z" fill="#F2F2F2"/>
<path d="M321.696 519.279C290.155 512.426 256.995 514.061 226.71 525.236C225.131 525.82 225.738 528.195 227.439 527.728C258.777 519.357 288.414 517.644 320.359 523.873C323.437 524.457 324.773 519.98 321.655 519.279H321.696Z" fill="#F2F2F2"/>
<path d="M312.869 490.583C282.948 483.224 251.084 485.015 222.175 495.489C220.556 496.073 221.204 498.487 222.904 498.02C252.906 489.648 281.126 488.519 311.816 494.165C314.246 494.593 315.298 491.167 312.829 490.583H312.869Z" fill="#F2F2F2"/>
<path d="M318.861 415.864C300.966 414.073 283.029 413.295 265.012 413.84C252.744 414.229 227.155 411.971 216.386 418.824C204.077 426.689 216.386 454.372 222.175 463.834C223.269 465.664 225.495 465.313 226.629 464.145C226.791 464.223 226.953 464.223 227.155 464.223C257.562 460.991 287.807 459.707 318.376 461.108C320.117 461.186 321.372 459.395 320.967 457.838C317.201 444.483 317.404 432.451 321.534 419.252C322.1 417.422 320.562 416.02 318.861 415.864ZM313.396 449.35C310.399 459.317 298.577 455.501 287.928 455.774C267.522 456.28 247.238 458.305 227.115 461.614C227.074 461.459 227.034 461.342 226.953 461.186C223.754 455.93 221.406 450.518 219.827 444.677C217.519 439.109 217.155 433.58 218.815 428.051C218.208 422.756 220.961 420.848 227.034 422.328C236.954 419.057 250.76 419.836 261.206 419.408C272.745 418.94 284.325 418.979 295.864 419.524C298.82 419.68 309.023 418.785 311.25 420.576C315.744 424.197 312.991 426.066 312.95 431.439C312.95 435.994 314.732 445.067 313.436 449.388L313.396 449.35Z" fill="#F2F2F2"/>
<path d="M246.995 425.131C240.274 426.689 233.593 428.363 226.953 430.076C225.536 430.427 226.143 432.451 227.56 432.179C234.322 430.855 241.083 429.492 247.804 427.974C249.707 427.545 248.898 424.703 246.995 425.131Z" fill="#F2F2F2"/>
<path d="M254.647 431.906C248.25 432.529 241.853 432.996 235.496 433.931C234.038 434.126 234.403 436.384 235.86 436.384C242.136 436.306 248.412 435.8 254.647 435.41C256.995 435.294 256.955 431.673 254.647 431.906Z" fill="#F2F2F2"/>
<path d="M180.108 558.332C178.367 547.001 177.112 535.243 173.832 524.185C174.197 523.134 173.954 521.966 172.577 521.265C160.026 514.684 141.806 518.383 128.283 520.33C110.873 522.822 93.5441 527.494 77.9561 535.437C76.9034 532.907 72.2878 533.179 72.3283 536.45C72.7332 555.412 71.559 574.529 72.6117 593.452C72.6117 593.803 72.8546 594.036 73.0976 594.192C72.8546 594.348 72.6117 594.504 72.3688 594.659C70.9922 595.594 72.2068 597.774 73.7049 596.879C105.286 578.579 139.336 571.025 175.978 575.152C176.181 575.503 176.464 575.814 176.829 576.048C177.071 576.204 177.274 576.359 177.517 576.515C178.408 577.099 180.068 576.943 180.756 576.126C184.359 571.804 180.756 563.16 180.027 558.41L180.108 558.332ZM74.7171 593.102C78.604 575.503 78.7659 556.969 78.2395 539.02C91.8841 534.659 105.205 530.025 119.376 527.378C132.656 524.886 156.503 520.097 169.703 525.937C170.067 526.093 170.431 526.171 170.796 526.21C171.039 533.997 172.253 541.784 173.346 549.493C173.954 554.01 173.751 566.353 177.274 570.363C177.031 570.285 176.829 570.169 176.545 570.13C140.389 565.613 104.84 573.4 74.7576 593.102H74.7171Z" fill="#F2F2F2"/>
<path d="M126.947 562.771C119.254 564.25 111.359 566.469 103.99 568.961C102.573 569.429 103.14 571.337 104.597 571.064C112.29 569.74 120.307 567.949 127.797 565.652C129.7 565.068 128.931 562.381 126.987 562.771H126.947Z" fill="#F2F2F2"/>
<path d="M130.308 557.242C123.506 557.553 116.42 559.266 109.78 560.59C108.525 560.863 108.768 562.888 110.104 562.771C116.865 562.187 124.194 561.797 130.753 560.201C132.453 559.773 132.129 557.125 130.348 557.203L130.308 557.242Z" fill="#F2F2F2"/>
<path d="M166.382 485.794C134.478 486.495 100.468 492.179 71.5589 505.495C70.5872 505.924 71.2755 507.403 72.2877 507.131C103.828 499.032 133.627 492.296 166.382 490.388C169.419 490.194 169.5 485.716 166.382 485.794Z" fill="#F2F2F2"/>
<path d="M162.131 466.871C128.081 464.379 93.7465 469.012 61.5988 479.953C59.8578 480.537 60.5461 483.185 62.3681 482.679C95.3661 473.568 127.838 470.025 162.091 471.271C165.046 471.387 164.965 467.104 162.091 466.91L162.131 466.871Z" fill="#F2F2F2"/>
<path d="M162.091 432.607C127.757 432.062 92.8962 439.382 62.5705 455.112C61.2344 455.813 62.1656 458.11 63.6232 457.526C95.8519 444.716 127.028 437.785 162.05 437.591C165.37 437.591 165.37 432.685 162.05 432.646L162.091 432.607Z" fill="#F2F2F2"/>
<path d="M170.836 410.141C160.917 409.012 150.349 409.051 140.389 410.141C138.81 410.336 138.729 412.555 140.389 412.594C150.552 412.75 160.674 413.061 170.836 413.489C173.104 413.567 172.982 410.374 170.836 410.141Z" fill="#F2F2F2"/>
<path d="M169.743 419.447C162.172 417.5 153.912 416.799 146.138 415.825C144.762 415.631 144.478 417.889 145.814 418.162C153.507 419.758 161.483 421.744 169.338 422.367C171.079 422.523 171.403 419.875 169.743 419.447Z" fill="#F2F2F2"/>
<path d="M775.1 840.638C773.787 840.118 772.396 839.672 771.083 839.152C770.387 838.112 769.228 837.369 767.451 837.369C767.065 837.369 766.756 837.369 766.37 837.369C657.121 795.761 537.52 771.762 422.555 749.472C421.396 746.797 418.615 744.643 414.906 745.163C411.352 745.683 407.721 746.129 404.167 746.649C398.835 747.392 397.831 753.856 400.613 757.496C412.743 783.799 416.219 809.432 419.387 837.815C419.387 837.963 419.465 838.186 419.542 838.335C419.233 838.409 418.924 838.632 418.692 838.781C417.301 839.226 416.683 840.415 416.76 841.678C404.398 861.219 395.05 882.989 384.928 903.644C384.233 905.056 384.388 906.765 385.083 908.251C384.31 909.366 384.465 911.149 386.165 911.446C395.204 913.303 405.016 915.681 414.288 915.83C417.996 915.904 418.846 910.331 415.138 909.588C409.111 908.251 402.467 907.879 396.054 907.657C403.24 902.678 410.734 898.295 418.228 893.837C416.219 927.866 417.147 963.233 419.464 997.04C419.464 997.04 419.464 997.188 419.464 997.262C416.065 999.343 419.233 1003.95 422.864 1002.46C541.306 953.425 657.353 899.855 777.186 853.715C784.758 850.817 782.131 839.672 775.1 840.638ZM423.637 880.314C416.065 882.989 408.957 886.853 402.081 891.236C409.42 876.079 416.683 860.625 422.091 844.873C501.825 851.635 583.259 854.086 664.075 851.783C584.882 858.544 505.302 868.129 427.963 881.355C426.959 880.24 425.491 879.72 423.559 880.389L423.637 880.314ZM425.954 993.844C428.272 959.295 429.122 923.334 426.804 888.859C527.09 881.131 628.148 870.284 728.28 858.47C625.367 898.592 522.532 941.537 426.032 993.844H425.954ZM426.032 838.706C429.74 812.85 423.405 785.805 412.975 761.657C519.518 783.204 623.59 813.519 729.129 838.112C627.994 839.969 527.322 840.564 426.032 838.706Z" fill="#F2F2F2"/>
<path d="M493.713 946.879C478.492 951.932 463.581 959.436 449.055 966.049C446.583 967.163 448.36 971.324 450.91 970.358C465.976 964.86 481.892 959.733 496.262 952.601C499.507 950.966 497.267 945.691 493.713 946.879Z" fill="#F2F2F2"/>
<path d="M485.369 936.031C482.278 937.74 479.188 939.598 476.174 941.381C476.174 941.381 476.174 941.381 476.097 941.381C471.848 943.759 467.521 946.062 463.195 948.291C460.799 949.554 462.422 953.641 465.126 952.675C469.453 951.04 473.702 949.108 477.952 947.028C478.415 947.028 478.879 946.879 479.42 946.656C482.51 944.947 485.6 943.239 488.691 941.455C492.322 939.449 489 934.025 485.446 936.031H485.369Z" fill="#F2F2F2"/>
<path d="M534.121 793.599C528.094 790.552 521.141 789.438 514.573 787.803C507.234 785.946 499.816 783.717 492.322 782.379C490.004 782.008 489.232 784.906 491.395 785.723C498.503 788.472 505.92 790.404 513.26 792.558C519.75 794.49 526.24 797.165 533.039 797.685C535.28 797.834 536.129 794.565 534.198 793.599H534.121Z" fill="#F2F2F2"/>
<path d="M536.593 803.109C524 798.502 510.324 795.159 497.267 791.964C494.795 791.37 493.945 794.713 496.263 795.605C508.856 800.36 521.991 805.264 535.048 808.607C538.756 809.573 540.07 804.446 536.593 803.183V803.109Z" fill="#F2F2F2"/>
<path d="M346.916 896.801C271.663 881.198 180.417 925.258 148.585 993.688C145.494 1000.38 143.485 1007.58 142.558 1015.01C138.541 1015.38 134.678 1015.9 131.278 1016.57C67.6145 1028.91 -10.5744 1118.96 38.3323 1178.25C42.2727 1183.08 50.2304 1176.91 47.0627 1171.79C21.7208 1130.55 49.9987 1084.63 82.9122 1055.8C99.678 1041.09 119.457 1030.76 141.94 1027.87C143.022 1071.18 176.862 1113.68 226.464 1087.45C228.55 1086.34 228.164 1083.44 226.542 1082.25C241.067 1073.86 243.539 1055.8 231.564 1039.9C217.116 1020.73 183.662 1014.05 155.847 1014.34C156.234 1012.71 156.543 1011 157.006 1009.37C164.578 984.995 184.048 964.34 203.904 948.291C244.08 915.748 293.759 900.442 345.834 904.9C350.701 905.346 351.706 897.693 346.993 896.727L346.916 896.801ZM185.361 1030.47C208.694 1032.25 217.657 1049.12 212.248 1081.06C210.008 1081.88 209.699 1083.96 210.703 1085.37C177.094 1089.83 154.07 1058.92 154.302 1027.27C164.732 1027.27 175.086 1028.39 185.361 1030.54V1030.47Z" fill="#F2F2F2"/>
<path d="M1547.83 557.287C1539.66 510.851 1526.9 453.602 1476.36 433.311C1447.72 421.771 1414.33 431.248 1400.59 455.497C1399.84 430.077 1383.43 406.219 1353.29 403.041C1335.38 401.146 1317.47 408.058 1307.5 422.608C1307.03 420.991 1305.64 419.765 1303.32 419.932C1254.75 423.945 1214.93 464.472 1222.52 512.579C1207.45 525.01 1195.51 541.901 1187.51 564.533C1179.33 568.212 1174.35 575.738 1173.19 583.988C1155.1 633.266 1146.47 686.948 1139.22 738.568C1134.53 771.847 1119.4 824.693 1134.64 857.192C1147.51 884.619 1185.48 892.813 1212.37 899.837C1257.13 911.488 1305.76 919.236 1352.25 916.505C1386.39 914.498 1421.4 905.356 1447.14 882.556C1462.44 869.01 1471.78 851.953 1477.8 833.613C1522.73 840.413 1547.65 779.484 1554.49 745.48C1566.73 684.496 1558.55 617.825 1547.94 557.175L1547.83 557.287ZM1396.83 478.408C1397.46 478.297 1398.04 477.851 1398.22 477.126C1410.16 415.417 1482.85 435.485 1510.21 473.056C1489.75 466.702 1467.95 471.217 1450.97 484.428C1442.97 490.672 1431.89 501.765 1427.08 513.304C1424.71 508.008 1421.23 503.27 1416.36 499.256C1409.87 493.905 1401.64 490.393 1392.54 487.996C1394.33 484.93 1395.67 481.753 1396.88 478.464L1396.83 478.408ZM1436.94 532.759C1435.6 530.418 1433.34 529.86 1431.32 530.362C1431.2 529.024 1431.03 527.686 1430.79 526.348C1432.42 510.907 1447.6 495.856 1459.89 487.885C1462.21 486.379 1464.59 485.097 1466.96 483.982C1508.24 514.809 1508.24 575.849 1512.18 621.616C1516.35 670.448 1531.89 750.274 1487.6 785.282C1487.77 783.777 1488.01 782.216 1488.18 780.711C1498.44 694.864 1479.49 608.46 1436.82 532.703L1436.94 532.759ZM1349.41 412.351C1378.1 413.633 1390.85 435.819 1389.99 458.842C1369.29 441.672 1336.19 434.202 1309.99 442.397C1313.82 424.837 1324.42 411.18 1349.41 412.295V412.351ZM1370.62 456.11C1370.28 457.448 1369.93 458.786 1369.64 460.124C1368.31 458.507 1366.86 456.946 1365.47 455.664C1364.02 454.271 1362.39 453.156 1360.71 451.985C1364.02 453.1 1367.38 454.438 1370.68 455.943C1370.68 455.999 1370.62 456.054 1370.57 456.11H1370.62ZM1349.76 448.919C1349.87 449.198 1350.05 449.532 1350.39 449.699C1354.74 452.208 1358.63 455.33 1361.81 459.12C1364.25 461.963 1365.81 465.364 1367.84 468.43C1366.91 473.558 1366.22 478.687 1365.75 483.815C1353.06 482.923 1340.42 483.035 1329.82 483.035C1327.03 476.736 1325.06 470.269 1325.29 463.301C1325.53 457.113 1327.67 451.929 1329.64 446.299C1336.6 446.578 1343.26 447.47 1349.7 448.919H1349.76ZM1376.88 458.897C1380.71 460.904 1384.59 463.078 1388.59 465.587C1388.83 465.754 1389.06 465.81 1389.29 465.866C1388.19 472.778 1385.99 479.579 1382.57 485.766C1378.62 485.097 1374.68 484.596 1370.62 484.205C1373.29 475.955 1375.55 467.315 1376.88 458.897ZM1309.18 446.801C1313.64 446.466 1317.87 446.299 1321.99 446.243C1316.48 457.504 1318.11 472.387 1324.54 483.146C1319.5 483.146 1314.57 483.314 1309.7 483.592C1308.25 471.997 1307.38 458.73 1309.18 446.801ZM1303.27 428.795C1303.27 428.795 1303.73 428.628 1304.02 428.572C1295.85 445.519 1297.7 466.088 1302.86 483.982C1273.47 486.38 1247.73 493.905 1227.27 508.9C1230.11 466.869 1257.47 433.088 1303.27 428.795ZM1479.78 745.313C1479.08 770.677 1477.46 799.831 1469.52 825.808C1468.59 826.756 1468.18 828.094 1468.41 829.32C1465.34 838.574 1461.4 847.437 1456.3 855.464C1432.47 893.148 1384.65 905.523 1341.64 906.526C1302.98 907.474 1263.73 901.732 1226.29 892.925C1181.54 882.389 1138.64 871.965 1140.67 819.342C1143.68 739.348 1165.19 662.365 1178.52 583.877C1178.58 583.486 1178.52 583.152 1178.52 582.818C1179.91 579.361 1182.06 576.24 1184.72 573.564C1171.91 620.612 1189.65 675.298 1244.78 683.938C1242.87 690.516 1241.88 697.261 1242.81 704.229C1244.84 720.172 1257.42 733.551 1274.63 731.879C1275.62 731.767 1276.43 731.377 1276.89 730.82C1284.43 730.095 1292.49 723.907 1296.77 717.329C1310.45 696.425 1314.63 668.441 1312.02 643.579C1315.56 645.14 1318.63 641.405 1317.47 638.618C1318.05 638.228 1318.51 637.614 1318.69 636.834C1320.43 628.361 1321.64 617.658 1316.08 610.132C1315.27 609.073 1314.34 608.126 1313.35 607.289C1316.89 595.472 1306.57 580.922 1294.4 578.637C1281.82 576.24 1268.89 586.162 1269.65 598.315C1264.6 598.259 1259.79 599.318 1256.26 603.61C1249.53 611.638 1252.95 622.34 1257.47 630.423C1258.52 632.319 1261.18 631.037 1261.01 629.141C1261.07 629.197 1261.13 629.309 1261.24 629.364C1262.92 630.256 1264.72 630.814 1266.63 631.26C1263.04 647.258 1252.66 662.365 1246.75 678.085C1194.41 658.909 1179.39 612.195 1198.93 562.917C1220.08 509.569 1264.89 494.016 1321 493.348C1340.48 493.125 1372.19 490.895 1390.16 498.699C1429.81 515.98 1422.68 551.991 1411.72 584.657C1397.11 628.249 1372.31 689.791 1314.11 683.827C1307.56 683.158 1307.73 692.802 1314.11 693.638C1382.16 702.278 1414.1 622.619 1426.85 571.39C1428.82 563.363 1430.68 554.332 1431.43 545.134C1464.65 607.011 1481.86 675.465 1479.89 745.369L1479.78 745.313ZM1293.18 608.683C1300.6 609.742 1308.89 610.634 1311.5 618.606C1313.12 623.623 1312.19 629.476 1311.5 634.716C1311.21 634.549 1310.92 634.381 1310.57 634.27C1310.57 633.935 1310.51 633.601 1310.45 633.322C1309.87 630.368 1306.17 629.922 1304.02 631.427C1298.28 629.141 1292.37 627.358 1286.28 626.243C1281.76 625.406 1276.43 624.403 1271.44 624.515C1270.52 623.79 1269.12 623.846 1268.25 624.738C1265.7 625.072 1263.33 625.741 1261.24 627.023C1261.01 627.19 1260.84 627.357 1260.72 627.58C1260.08 624.626 1259.27 621.56 1259.15 618.606C1258.86 610.969 1266.28 606.119 1273.59 606.119C1279.96 606.119 1286.98 607.903 1293.3 608.795L1293.18 608.683ZM1274.34 598.705C1275.79 589.34 1286.51 581.981 1296.14 586.162C1304.02 589.618 1305.53 596.363 1305.99 603.387C1298.69 600.879 1289.88 600.823 1282.8 599.875C1280.08 599.541 1277.24 599.039 1274.34 598.649V598.705ZM1272.66 632.207C1276.49 632.542 1280.43 632.709 1284.08 633.434C1290.63 634.772 1296.83 636.89 1302.86 639.454C1304.02 654.784 1303.85 669.835 1300.14 685.053C1297.06 697.651 1284.49 739.46 1265.3 720.953C1264.14 719.838 1262.46 721.231 1263.1 722.569C1263.15 722.736 1263.27 722.848 1263.33 722.96C1237.13 711.811 1259.91 673.681 1266.81 657.682C1270.63 648.931 1272.83 641.071 1272.66 632.152V632.207ZM1548.52 707.184C1546.73 741.857 1533.16 827.481 1480.24 825.251C1482.73 816.109 1484.53 806.688 1485.92 797.267C1486.38 797.155 1486.91 796.988 1487.37 796.709C1543.65 760.531 1527.08 676.915 1522.09 621.783C1518.03 576.63 1518.03 508.622 1472.7 481.697C1485.4 477.293 1499.02 477.516 1512.47 482.254C1513.63 482.644 1514.73 482.422 1515.6 481.864C1534.96 516.203 1539.19 560.966 1543.6 598.593C1547.83 634.381 1550.32 671.117 1548.47 707.184H1548.52Z" fill="#F2F2F2"/>
<path d="M1296.37 649.823C1293.82 645.921 1288.25 644.415 1284.25 647.091C1283.79 647.091 1283.27 647.091 1282.75 647.314C1278.4 649.433 1278.28 655.453 1280.43 659.076C1283.09 663.424 1288.78 664.26 1293.06 661.696C1297.24 659.188 1299.09 653.948 1296.37 649.823ZM1289.47 656.456C1287.96 657.237 1286.4 656.902 1285.59 655.341C1284.72 653.669 1285.47 652.22 1286.28 650.659C1286.28 650.603 1286.28 650.492 1286.28 650.436C1289.82 650.157 1293.64 654.227 1289.41 656.401L1289.47 656.456Z" fill="#F2F2F2"/>
<path d="M1269.53 683.604C1268.49 683.214 1267.27 683.269 1266.17 684.161C1258.75 690.182 1268.89 703.115 1276.95 697.707C1284.08 692.969 1277.41 680.148 1269.53 683.604ZM1273.47 692.523C1271.85 693.917 1269.24 690.07 1270.75 688.621C1271.04 688.342 1271.15 688.064 1271.33 687.785C1272.14 688.008 1272.72 688.454 1273.24 689.401C1273.65 690.126 1274.28 691.798 1273.47 692.523Z" fill="#F2F2F2"/>
<path d="M1397.29 525.847C1394.45 515.478 1382.28 507.618 1372.07 505.11C1369.46 504.441 1368.48 508.064 1370.97 508.956C1375.78 510.629 1380.3 513.137 1384.01 516.593C1387.67 519.938 1389.64 523.952 1392.48 527.854C1394.16 530.139 1398.1 528.801 1397.29 525.903V525.847Z" fill="#F2F2F2"/>
<path d="M1372.25 516.37C1369.81 515.813 1369 519.046 1371.26 519.882C1377.81 522.446 1381.81 528.021 1382.62 534.655C1383.09 538.389 1389.23 538.557 1388.88 534.655C1388.07 525.903 1381.12 518.321 1372.25 516.37Z" fill="#F2F2F2"/>
<path d="M1355.38 763.486C1325.64 748.769 1282.4 746.317 1249.82 739.906C1222.81 734.61 1133.54 716.995 1151.28 773.241C1151.57 774.133 1152.15 774.635 1152.79 774.914C1152.09 775.694 1151.92 776.865 1153.19 777.478C1157.54 779.596 1162.06 781.547 1166.64 783.443C1151.16 841.919 1190.23 866.558 1246.11 875.477C1271.62 879.546 1311.85 886.793 1335.9 874.752C1360.19 862.6 1349.7 834.728 1363.55 815.997C1364.77 814.325 1364.48 812.708 1363.49 811.538C1364.19 811.538 1364.89 811.538 1365.52 811.538C1367.96 811.482 1369.29 809.921 1369.7 808.137C1370.74 807.747 1371.67 806.967 1372.19 805.629C1378.39 788.348 1372.88 772.071 1355.49 763.486H1355.38ZM1345.99 840.358C1340.31 874.028 1298.28 872.132 1269.94 869.847C1245.88 867.896 1217.42 864.272 1196.09 852.231C1169.07 837.013 1169.6 811.594 1172.2 785.672C1228.32 807.469 1296.19 812.876 1355.73 811.705C1348.89 820.791 1347.73 829.543 1345.93 840.302L1345.99 840.358ZM1364.02 802.786C1327.09 802.786 1290.46 801.058 1253.94 795.372C1220.66 790.188 1188.61 780.154 1155.57 774.356C1156.21 773.799 1156.61 772.963 1156.44 771.848C1146.52 719.336 1240.2 746.874 1265.41 752.058C1287.56 756.629 1375.26 762.538 1363.96 802.73L1364.02 802.786Z" fill="#F2F2F2"/>
<path d="M1174.35 751.724C1171.33 752.895 1167.22 753.452 1166.7 756.964C1166.18 760.42 1166.93 763.653 1168.9 766.608C1169.71 767.834 1172.15 767.054 1171.51 765.549C1170.35 762.873 1170.06 760.197 1170.7 757.41C1172.44 756.741 1174.23 756.016 1175.97 755.292C1178.06 754.4 1176.55 750.888 1174.41 751.724H1174.35Z" fill="#F2F2F2"/>
<path d="M1181.94 749.55C1176.61 752.393 1174.17 758.469 1175.28 764.043C1175.62 765.939 1178.81 765.493 1178.75 763.597C1178.58 759.249 1180.78 756.016 1184.55 753.898C1187.45 752.281 1184.84 747.989 1181.88 749.55H1181.94Z" fill="#F2F2F2"/>
<path d="M1416.19 862.767C1411.66 867.84 1408.42 873.136 1402.51 876.982C1396.3 880.94 1389.35 882.891 1381.99 883.504C1379.2 883.727 1379.09 887.685 1381.99 887.741C1396.54 888.131 1415.9 879.49 1420.53 865.22C1421.29 862.934 1417.93 860.872 1416.19 862.767Z" fill="#F2F2F2"/>
<path d="M1417.81 852.844C1409.46 857.081 1401.06 862.265 1393.41 867.561C1391.09 869.122 1393.06 872.411 1395.61 871.24C1404.07 867.282 1412.82 862.6 1420.65 857.583C1423.66 855.632 1421.06 851.228 1417.81 852.844Z" fill="#F2F2F2"/>
<path d="M1456.42 462.242C1445.05 460.96 1433.11 473.001 1429.81 482.366C1429.11 484.373 1432.18 485.488 1433.29 483.76C1436.18 479.244 1439.55 475.119 1444.18 472.109C1448.36 469.378 1453.23 468.541 1457.57 466.312C1459.78 465.197 1458.5 462.409 1456.42 462.186V462.242Z" fill="#F2F2F2"/>
<path d="M1436.94 459.511C1434.1 460.737 1431.43 462.186 1428.76 463.636C1426.79 464.695 1428.53 467.315 1430.5 466.479C1433.34 465.308 1436.18 464.138 1438.91 462.688C1441.17 461.518 1439.2 458.507 1436.94 459.455V459.511Z" fill="#F2F2F2"/>
<path d="M1277.41 449.31C1268.54 453.044 1260.37 461.741 1256.2 470.047C1255.39 471.719 1257.65 473.001 1258.75 471.496C1261.53 467.705 1264.37 464.026 1267.91 460.849C1271.44 457.671 1275.5 455.441 1279.5 452.821C1281.76 451.316 1279.85 448.306 1277.36 449.365L1277.41 449.31Z" fill="#F2F2F2"/>
<path d="M1291.79 455.051C1283.5 458.953 1275.5 463.524 1267.39 467.817C1265.82 468.653 1267.21 470.827 1268.78 470.102C1277.07 466.2 1285.59 462.521 1293.7 458.229C1295.85 457.114 1293.93 454.048 1291.79 455.051Z" fill="#F2F2F2"/>
<path d="M615.64 1434.08C646.158 1417.73 662.538 1381.03 637.582 1348.86C609.305 1312.45 555.608 1328.65 534.361 1362.6C532.584 1351.16 526.866 1339.79 519.218 1331.92C504.538 1316.69 481.591 1312.38 461.657 1320.03C429.285 1332.44 421.095 1376.65 446.514 1396.48C407.883 1391.28 357.663 1399.98 362.299 1447.38C365.853 1483.19 404.097 1501.62 437.706 1495.53C429.671 1504.81 424.881 1517.07 424.263 1528.81C423.027 1552.59 438.015 1573.09 460.962 1581.42C503.147 1596.72 541.469 1565.52 543.4 1527.47C567.351 1558.53 623.366 1560.24 647.704 1524.73C671.887 1489.28 651.567 1445.6 615.717 1434.08H615.64ZM569.36 1344.85C591.612 1334.96 618.035 1338.46 631.015 1359.85C653.962 1397.82 616.954 1431.33 578.477 1431.55C577.009 1424.94 574.228 1418.48 569.978 1412.38C568.047 1409.56 565.806 1407.03 563.488 1404.66C571.755 1397.23 581.49 1393.21 593.312 1391.65C598.179 1390.99 597.02 1383.04 592.153 1383.41C579.25 1384.37 567.043 1390.76 558.544 1400.12C550.74 1393.66 541.546 1389.28 531.734 1386.9C539.537 1368.77 550.2 1353.46 569.438 1344.92L569.36 1344.85ZM469.615 1329.09C486.69 1324.19 504.383 1329.76 514.814 1343.73C524.471 1356.66 523.003 1369.36 522.849 1384.15C522.849 1384.52 522.926 1384.82 523.003 1385.12C511.955 1383.78 500.52 1384.89 489.781 1388.31C489.395 1379.99 488.467 1371.52 487.308 1363.2C486.768 1359.11 480.046 1358.96 480.509 1363.2C481.514 1372.19 482.75 1381.25 484.604 1390.09C478.887 1392.4 473.324 1395.29 468.302 1398.94C467.066 1399.83 466.448 1400.94 466.139 1402.13C465.83 1402.13 465.598 1402.28 465.366 1402.35C466.448 1400.72 466.293 1398.34 464.207 1397.15C435.929 1380.43 434.152 1339.12 469.538 1329.02L469.615 1329.09ZM373.734 1442.1C374.197 1400.27 423.413 1404.06 454.318 1407.33C445.51 1414.09 441.647 1426.58 441.183 1439.5C429.748 1434.45 415.918 1433.19 403.866 1435.42C401.239 1435.94 401.857 1440.02 404.484 1439.95C418.236 1439.43 429.208 1442.18 441.338 1447.38C442.033 1457.86 444.737 1467.96 448.678 1475.02C450.377 1477.99 452.309 1480.81 454.395 1483.41C454.163 1483.49 454.009 1483.64 453.777 1483.71C421.713 1490.4 373.347 1483.79 373.811 1442.1H373.734ZM469.925 1572.13C450.377 1566.85 435.852 1551.18 436.007 1531.12C436.161 1512.69 446.514 1500.65 461.117 1490.62C467.22 1496.34 474.328 1500.58 481.977 1503.62C474.56 1511.57 472.011 1523.54 473.479 1533.79C473.942 1536.98 478.964 1536.02 479.041 1533.05C479.505 1522.2 483.754 1514.77 489.935 1506.22C503.765 1509.87 518.754 1509.49 533.047 1504.52C533.588 1507.41 534.361 1510.16 535.288 1512.76C538.378 1547.91 509.869 1582.9 469.77 1572.05L469.925 1572.13ZM470.852 1482.37C453.854 1466.62 438.324 1416.02 474.483 1409.56C476.646 1409.19 477.419 1407.63 477.342 1406.07C501.679 1395 529.648 1390.76 551.281 1410.38C575.773 1432.59 568.742 1469.15 541.623 1486.39C520.067 1500.06 490.09 1500.13 470.929 1482.37H470.852ZM638.973 1516.55C611.932 1559.2 559.007 1539.51 542.628 1500.36C552.749 1495.15 561.171 1487.65 567.506 1478.81C580.563 1482.52 589.989 1491.14 596.556 1503.4C598.874 1507.71 606.678 1504.74 604.823 1500.06C599.57 1486.24 586.203 1476.06 571.369 1472.79C576.7 1463.5 579.791 1453.17 579.636 1442.7C586.821 1442.85 593.852 1441.88 600.497 1440.02C635.496 1446.86 660.607 1482.37 638.973 1516.48V1516.55Z" fill="#F2F2F2"/>
<path d="M512.882 1485.05C505.388 1482.08 497.584 1481.71 490.399 1477.69C482.75 1473.46 476.878 1467.66 471.779 1460.83C469.924 1458.38 466.139 1460.46 467.529 1463.21C474.56 1477.62 495.189 1494.56 512.959 1490.99C516.436 1490.32 515.586 1486.09 512.959 1485.05H512.882Z" fill="#F2F2F2"/>
<path d="M528.875 1472.05C523.235 1472.57 518.136 1474.28 512.341 1473.61C505.387 1472.86 499.207 1469.89 493.953 1465.58C491.326 1463.43 487.772 1466.77 490.09 1469.3C499.129 1478.81 518.059 1485.87 530.575 1478.29C533.202 1476.65 532.429 1471.75 528.875 1472.12V1472.05Z" fill="#F2F2F2"/>
<path d="M1277.45 1359.04C1278.3 1357.33 1277.76 1355.1 1275.21 1354.21C1265.55 1350.64 1259.14 1341.95 1259.53 1331.99C1259.53 1330.06 1258.68 1328.8 1257.36 1327.98C1258.52 1322.26 1259.83 1316.46 1260.99 1310.74C1261.84 1306.36 1259.06 1302.94 1254.5 1302.57C1186.59 1296.48 1118.52 1294.02 1050.3 1295.66C1011.28 1296.55 953.801 1289.2 927.068 1323.6C894.773 1365.13 879.089 1430.22 862.323 1478.59C842.776 1534.91 822.919 1593.38 815.039 1652.52C814.189 1653.64 813.493 1654.75 812.875 1656.01C804.995 1672.95 823.692 1682.32 836.672 1686.92C839.222 1687.81 841.153 1686.63 842.158 1684.77C883.029 1699.33 926.759 1702.08 970.412 1703.12C1034.77 1704.68 1099.28 1705.5 1163.64 1705.79C1167.82 1705.79 1169.98 1702.97 1170.29 1699.93C1170.75 1699.63 1171.06 1699.26 1171.22 1698.81C1186.2 1643.53 1211 1592.26 1230.63 1538.32C1251.26 1481.63 1267.87 1423.83 1281.7 1365.2C1282.47 1361.93 1280.08 1359.71 1277.45 1359.19V1359.04ZM926.682 1352.87C952.564 1298.78 1028.67 1308.88 1081.82 1308.59C1136.83 1308.29 1191.77 1310.67 1246.55 1314.98C1225.22 1423.16 1192.46 1528 1153.75 1631.49C1151.67 1631.79 1149.74 1632.46 1147.88 1633.35C1063.9 1622.58 975.588 1620.35 891.682 1632.24C877.543 1634.24 846.484 1634.69 827.323 1643.53C859.85 1546.27 881.947 1446.64 926.682 1352.94V1352.87ZM834.663 1673.7C815.502 1656.76 861.627 1651.48 865.954 1650.66C880.016 1647.99 894.232 1645.83 908.448 1644.2C935.876 1641.01 963.458 1639.67 991.041 1639.3C1039.95 1638.63 1088.78 1642.49 1137.61 1643.09C1135.75 1646.13 1134.44 1649.55 1133.59 1652.89C1132.89 1652.15 1131.89 1651.7 1130.58 1651.7C1066.14 1651.93 1001.86 1652 937.421 1650.74C934.022 1650.74 934.022 1655.64 937.421 1655.87C1001.63 1659.88 1066.29 1661.59 1130.58 1659.73C1131.35 1659.73 1132.04 1659.51 1132.58 1659.13C1132.58 1659.65 1132.43 1660.17 1132.43 1660.69C1132.35 1667.31 1134.13 1673.47 1137.14 1679.12C1049.68 1682.76 964.386 1676.3 877.698 1664.93C874.762 1664.56 873.371 1668.64 876.462 1669.31C963.149 1687.89 1053.16 1691.98 1141.62 1687.37C1141.93 1687.37 1142.16 1687.22 1142.47 1687.15C1143.86 1688.85 1145.26 1690.49 1146.8 1692.05C1043.12 1690.79 935.49 1698.14 834.586 1673.77L834.663 1673.7ZM1271.81 1362.45C1256.2 1425.54 1237.27 1487.8 1214.4 1548.8C1198.1 1592.34 1162.64 1645.02 1166.42 1692.79C1165.65 1692.5 1164.73 1692.2 1163.72 1692.2C1162.18 1692.2 1160.55 1692.2 1158.93 1692.12C1151.59 1683.95 1144.33 1674.89 1143.4 1663.89C1142.55 1654.01 1147.11 1648.14 1153.44 1642.57C1156.61 1645.02 1162.48 1644.72 1164.49 1639.89C1203.67 1545.31 1231.79 1447.08 1253.27 1347.59C1257.36 1354.43 1264.16 1359.63 1272.43 1360.97C1272.12 1361.41 1271.81 1361.86 1271.66 1362.53L1271.81 1362.45Z" fill="#F2F2F2"/>
<path d="M1139.31 1510.83C1138.84 1508.75 1136.91 1507.12 1134.9 1506.6C1109.25 1499.69 1078.58 1502.29 1051.92 1500.8C1013.99 1498.65 974.816 1493.67 936.88 1494.63C925.368 1494.93 919.574 1493.37 914.397 1503.7C912.234 1507.93 915.479 1519.9 915.556 1522.87C916.097 1546.27 908.834 1566.63 896.009 1586.25C894.927 1587.96 894.927 1589.52 895.623 1590.93C894.85 1590.93 894.077 1590.93 893.305 1591C889.21 1591.22 889.133 1597.17 893.305 1597.17C931.395 1597.24 969.408 1596.95 1007.42 1596.35C1029.13 1595.98 1050.92 1595.53 1072.63 1595.09C1085.61 1594.79 1110.41 1598.43 1122.39 1593.83C1130.11 1590.85 1127.56 1591.15 1131.97 1584.91C1141.08 1572.13 1142.63 1526.29 1139.38 1510.83H1139.31ZM1123.24 1558.16C1114.12 1589.81 1086.69 1583.27 1056.33 1584.24C1006.42 1585.8 956.505 1587.81 906.671 1590.41C915.402 1576.96 922.201 1563.51 925.214 1547.68C929.232 1526.88 917.101 1509.42 944.607 1506.82C990.809 1502.44 1043.81 1512.62 1090.32 1515.22C1105.54 1516.03 1120.84 1512.47 1126.64 1532.23C1128.18 1537.58 1124.86 1552.74 1123.31 1558.24L1123.24 1558.16Z" fill="#F2F2F2"/>
<path d="M918.029 1607.72C902.499 1606.9 886.66 1608.02 871.131 1608.31C867.963 1608.31 867.963 1612.99 871.131 1612.99C886.66 1613.29 902.499 1614.41 918.029 1613.59C921.892 1613.37 921.892 1607.94 918.029 1607.79V1607.72Z" fill="#F2F2F2"/>
<path d="M912.543 1620.94C900.567 1620.72 888.592 1621.24 876.693 1621.54C873.448 1621.54 873.448 1626.29 876.693 1626.37C888.669 1626.67 900.645 1627.19 912.543 1626.96C916.483 1626.89 916.483 1621.09 912.543 1621.02V1620.94Z" fill="#F2F2F2"/>
<path d="M1131.66 1479.33C1116.9 1476.13 1101.37 1475.84 1086.38 1477.62C1082.36 1478.07 1082.13 1484.01 1086.38 1483.86C1101.06 1483.27 1115.05 1484.53 1129.49 1486.76C1134.44 1487.5 1136.68 1480.44 1131.58 1479.33H1131.66Z" fill="#F2F2F2"/>
<path d="M1139.85 1466.47C1129.42 1463.73 1118.52 1463.73 1107.94 1465.43C1105.31 1465.88 1105.93 1470.19 1108.56 1469.89C1118.75 1468.78 1128.33 1469.74 1138.3 1471.97C1142.01 1472.79 1143.56 1467.52 1139.85 1466.55V1466.47Z" fill="#F2F2F2"/>
<path d="M1034 1318.25C1013.91 1316.17 991.968 1318.62 972.498 1323.89C969.253 1324.79 970.644 1329.24 973.889 1328.72C994.209 1325.38 1013.52 1324.56 1034 1324.56C1038.32 1324.56 1038.09 1318.69 1034 1318.25Z" fill="#F2F2F2"/>
<path d="M1033.92 1330.28C1019.78 1332.07 1005.64 1333.78 991.582 1336C987.873 1336.6 988.723 1342.69 992.509 1342.39C1006.34 1341.35 1020.17 1339.79 1034 1338.38C1039.33 1337.86 1039.25 1329.61 1034 1330.36L1033.92 1330.28Z" fill="#F2F2F2"/>
<path d="M1180.41 1474.72C1177.47 1473.53 1175.08 1473.09 1171.99 1472.34C1171.6 1472.27 1171.45 1472.79 1171.83 1472.86C1174.77 1473.76 1177.16 1474.65 1180.25 1475.09C1180.49 1475.09 1180.64 1474.8 1180.41 1474.72Z" fill="#F2F2F2"/>
<path d="M388.579 1859.08C355.448 1823.25 296.223 1811.67 252.871 1836.13C258.691 1825.18 263.828 1813.99 266.903 1801.7C274.94 1769.78 270.846 1734.62 249.437 1708.18C229.357 1683.38 199.921 1672.18 167.871 1675.66C175.853 1630.13 175.63 1575.67 132.238 1548.09C132.711 1546.13 132.018 1543.83 129.727 1542.81C109.671 1534.01 84.1817 1550.18 82.1682 1570.42C81.8515 1573.3 85.7283 1574.82 87.55 1573.08C87.686 1573.73 87.9914 1574.35 88.622 1575.01C96.7718 1582.65 104.278 1590.59 110.579 1599.34C84.4675 1617.77 58.4243 1636.52 33.5609 1656.36C28.3732 1650.08 23.3615 1643.28 18.3766 1636.28C16.4708 1633.56 13.4083 1634.26 11.729 1636.17C7.03695 1631.59 0.0161135 1630.54 -6.41356 1632.15C-16.4273 1634.66 -22.4667 1643.04 -27.3677 1651.14C-28.7012 1653.36 -27.5139 1655.67 -25.6906 1656.47C-13.7954 1693.9 17.3586 1721.61 56.329 1732.73C74.9602 1738.08 95.9312 1735.56 116.8 1732.55C95.5424 1786.23 92.7407 1923.66 186.371 1884.61C186.493 1884.52 186.615 1884.43 186.737 1884.34C184.194 1892.93 182.811 1901.5 183.249 1910.02C185.142 1946.46 208.139 1975.95 244.601 1986.03C246.668 1986.65 248.484 1986.23 250.029 1985.35C262.388 1985.14 275.628 1971.74 271.351 1959.68C270.503 1957.31 267.168 1956.7 265.136 1957.94C261.645 1955.56 258.54 1953.18 255.496 1950.75C285.392 1927.32 314.847 1903.47 344.872 1880.33C345.238 1880.05 345.447 1879.71 345.705 1879.42C353.236 1883.76 360.314 1889.48 366.932 1897.05C369.712 1900.24 373.764 1898.71 375.022 1895.79C382.26 1896.02 389.393 1893.22 393.903 1887.3C399.678 1879.68 400.151 1867.09 393.14 1860C391.927 1858.74 390.131 1858.58 388.593 1858.98L388.579 1859.08ZM92.5152 1570.02C91.3425 1569.3 90.2313 1569.38 89.3574 1569.75C94.6825 1557.1 105.873 1550.6 119.052 1550.43C119.331 1551.26 119.839 1552.01 120.761 1552.54C167.968 1580 163.487 1630.82 160.784 1676.82C153.236 1678.14 145.851 1679.9 138.439 1681.88C147.3 1655.94 140.01 1625.04 123.99 1600.79C125.026 1600.01 126.062 1599.23 127.146 1598.52C131.874 1595.16 126.32 1588.31 121.544 1591.6C120.63 1592.28 119.716 1592.97 118.754 1593.6C111.233 1584.07 102.331 1575.85 92.5152 1570.02ZM115.618 1606.77C118.982 1612.26 122.029 1618.08 124.357 1624.34C131.925 1644.57 130.296 1663.11 129.638 1683.95C129.686 1684.01 129.672 1684.11 129.659 1684.21C122.477 1686.11 115.2 1687.89 107.862 1688.86C94.2499 1690.67 82.838 1689.52 72.8205 1686.1C91.4882 1673.72 110.406 1660.68 127.447 1646.41C130.901 1643.54 126.866 1638.56 123.127 1641.08C103.836 1654.02 85.2649 1669.06 67.6356 1684.05C55.8078 1678.88 46.0515 1670.46 37.1142 1660.39C63.9039 1643.52 89.9404 1625.25 115.774 1606.85L115.618 1606.77ZM124.707 1731.43C131.212 1730.51 137.656 1729.64 143.903 1729.01C128.431 1758.4 119.203 1793.56 134.055 1824.72C137.339 1831.68 142.29 1838.52 148.196 1844.36C148.338 1844.54 148.481 1844.71 148.732 1844.9C162.014 1857.56 180.233 1864.82 198.09 1856.15C198.151 1856.11 198.212 1856.06 198.273 1856.02C194.361 1864.13 190.666 1872.26 187.961 1880.41C187.472 1879.08 186.279 1878.09 184.463 1878.51C93.6944 1898.83 110.366 1782.29 124.633 1731.58L124.707 1731.43ZM196.725 1850.96C181.338 1853.73 168.596 1849.24 158.826 1840.92C180.861 1827.62 202.468 1812.95 223.092 1797.78C219.261 1815.91 208.932 1834.47 199.687 1853.17C199.585 1851.83 198.527 1850.65 196.725 1850.96ZM154.514 1836.81C147.401 1829.23 142.441 1819.48 139.528 1809.23C139.65 1809.14 139.927 1809.12 140.049 1809.03C165.897 1792.21 192.321 1775.62 216.996 1757.24C223.664 1768.26 225.405 1779.48 224.152 1790.87C222.979 1790.15 221.353 1789.95 219.795 1790.93C197.469 1805.2 175.273 1820.6 154.392 1836.9L154.514 1836.81ZM138.216 1803.62C137.55 1800.26 137.053 1796.86 136.943 1793.46C136.579 1785.63 137.455 1778.01 139.063 1770.68C155.841 1758.87 172.693 1747.76 190.597 1737.46C192.019 1736.68 192.351 1735.39 191.943 1734.28C199.27 1737.65 205.996 1742.69 211.943 1749.91C212.133 1750.15 212.275 1750.32 212.418 1750.5C186.888 1766.98 162.586 1785.46 138.23 1803.52L138.216 1803.62ZM186.216 1732.17C170.297 1741.17 155.023 1751.57 140.915 1763.18C144.384 1751.26 149.514 1739.69 154.846 1728.26C165.966 1727.84 176.646 1728.7 186.446 1732.09C186.385 1732.14 186.324 1732.18 186.263 1732.23L186.216 1732.17ZM258.802 1972C256.974 1974.22 254.854 1975.71 252.544 1976.97C251.907 1975.94 250.93 1974.98 249.297 1974.41C201.92 1957.63 187.851 1910.63 205.673 1867.33C213.4 1848.45 227.145 1832.42 234.249 1813.25C244.721 1785.07 238.251 1755.07 215.429 1734.02C192.811 1713.1 165.969 1711.64 136.584 1717.07C69.3442 1729.57 15.1728 1715.52 -18.7943 1653.38C-18.9842 1653.15 -19.174 1652.91 -19.3639 1652.68C-12.7281 1644.79 -3.66687 1636.02 6.64447 1643.56C8.55624 1644.95 10.65 1644.51 12.1264 1643.31C31.0437 1672.84 54.5062 1700 93.3344 1700.31C115.283 1700.44 135.965 1691.64 157.186 1687.61C202.107 1679.12 241.096 1698.6 255.503 1742.15C270.187 1786.53 237.202 1832.98 223.418 1874.85C221.914 1875.42 220.41 1875.98 219.014 1876.55C214.949 1878.18 217.162 1883.21 220.943 1882.92C213.938 1908.98 216.494 1933.06 245.116 1953.53C244.305 1955.55 246.407 1958.02 248.554 1956.32C248.676 1956.23 248.737 1956.19 248.859 1956.09C252.818 1958.69 257.115 1961.21 262.03 1963.65C262.125 1963.77 262.294 1963.74 262.402 1963.75C261.638 1966.68 260.841 1969.44 258.681 1972.09L258.802 1972ZM230.8 1880.34C251.607 1874.84 273.45 1869.4 294.422 1868.58C271.345 1883.13 250.193 1899.82 230.892 1918.79C226.65 1906.9 226.642 1894.19 230.909 1880.36L230.8 1880.34ZM251.259 1947.33C242.818 1939.81 236.721 1932.04 232.826 1923.84C232.887 1923.79 232.948 1923.75 233.009 1923.7C254.668 1904.38 277.832 1887.03 302.8 1871.91C304.236 1871.02 304.567 1869.74 304.221 1868.58C316.113 1869 327.56 1871.16 338.439 1876.01C308.23 1898.45 278.768 1921.92 251.198 1947.37L251.259 1947.33ZM387.123 1882.68C384.057 1887.24 378.739 1889.62 373.257 1889.87C342.086 1845.69 280.82 1854.56 234.298 1870.76C236.429 1865.77 239.021 1860.63 242.074 1855.33C243.496 1852.85 244.917 1850.37 246.325 1848C246.664 1847.93 246.942 1847.91 247.294 1847.74C292.721 1824.27 348.025 1829.56 382.981 1867.89C384.574 1869.62 386.682 1869.92 388.403 1869.39C389.923 1873.8 390.224 1878.29 387.171 1882.74L387.123 1882.68Z" fill="#F2F2F2"/>
<path d="M331.169 1845.39C314.836 1842.27 297.748 1844.14 282.261 1849.81C279.375 1850.84 281.241 1854.72 284.039 1853.94C299.384 1849.79 314.665 1849.56 330.279 1852.27C334.853 1853.08 335.683 1846.25 331.169 1845.39Z" fill="#F2F2F2"/>
<path d="M159.99 1860.86C154.271 1860.81 148.95 1858.96 144.645 1855.21C140.136 1851.34 139.029 1846.71 136.465 1841.85C135.006 1839.08 130.31 1839.2 129.913 1842.7C128.363 1857.24 147.092 1866.94 159.973 1865.68C162.764 1865.38 162.85 1860.89 159.99 1860.86Z" fill="#F2F2F2"/>
<path d="M138.114 1595.01C139.347 1605.48 144.023 1616.58 147.18 1626.64C148.049 1629.29 152.663 1628.09 152.133 1625.38C150.067 1614.97 148.792 1603.12 144.774 1593.32C143.302 1589.81 137.706 1591.36 138.114 1595.01Z" fill="#F2F2F2"/>
<path d="M1595.51 2142.93C1551.7 2088.03 1506.66 2034.01 1459.99 1981.41C1436.89 1955.33 1413.25 1929.62 1389.37 1904.13C1375.62 1889.5 1353.99 1854.13 1332.04 1850.41C1313.97 1847.37 1303.3 1864.38 1293.26 1875.38C1268.77 1902.2 1245.2 1929.99 1221.25 1957.26C1169.79 2015.73 1116.79 2073.24 1067.89 2133.72C1067.73 2133.94 1067.73 2134.09 1067.58 2134.32C1064.95 2136.4 1065.65 2140.93 1069.35 2142.04C1070.51 2142.79 1071.98 2143.08 1073.45 2142.56C1157.05 2150.07 1241.88 2149.55 1325.79 2151.92C1410.85 2154.3 1495.92 2157.94 1581.06 2158.69C1585.15 2158.69 1587.32 2156.01 1587.7 2152.96C1593.58 2153.93 1600.07 2148.51 1595.58 2142.93H1595.51ZM1338.23 1870.25C1348.27 1873.45 1362.49 1895.74 1369.13 1902.8C1374.85 1908.89 1380.49 1915.06 1386.13 1921.22C1350.36 1941.28 1308.87 1937.64 1276.26 1913.05C1292.87 1890.91 1315.36 1862.9 1338.23 1870.25ZM1175.9 2132.83C1144.99 2132.16 1114.17 2131.94 1083.34 2132.83C1105.44 2109.35 1126.91 2085.35 1148.16 2061.13C1169.95 2080.22 1177.68 2104.74 1175.82 2132.68C1175.82 2132.75 1175.82 2132.83 1175.82 2132.9L1175.9 2132.83ZM1186.48 2133.13C1193.21 2103.7 1177.6 2072.87 1151.95 2056.75C1168.02 2038.39 1184.01 2020.04 1200.16 2001.76C1220.71 1978.36 1241.34 1954.96 1261.89 1931.62C1264.52 1928.58 1267.61 1924.64 1270.93 1920.18C1303.77 1950.35 1356.46 1953.91 1394.24 1930.06C1396.02 1932 1397.79 1933.85 1399.57 1935.79C1419.74 1957.85 1439.67 1980.14 1459.45 2002.58C1480.7 2026.8 1501.63 2051.25 1522.19 2075.99C1521.72 2076.06 1521.26 2076.14 1520.87 2076.36C1497.62 2088.62 1484.87 2116.85 1489.19 2141.89C1434.73 2140.33 1380.18 2139.22 1325.71 2137.73C1279.43 2136.47 1232.92 2134.32 1186.41 2133.13H1186.48ZM1498.62 2142.12C1497.46 2118.49 1507.27 2099.47 1527.13 2084.16C1527.59 2083.87 1527.83 2083.42 1528.06 2083.05C1545.05 2103.55 1561.98 2124.21 1578.59 2145.01C1551.93 2143.83 1525.28 2142.86 1498.54 2142.12H1498.62Z" fill="#F2F2F2"/>
<path d="M1277.42 2116.33C1258.8 2116.93 1240.88 2116.04 1222.26 2114.85C1219.71 2114.7 1219.24 2118.49 1221.64 2119.08C1239.41 2123.39 1259.19 2124.36 1277.42 2123.1C1281.9 2122.8 1281.98 2116.19 1277.42 2116.33Z" fill="#F2F2F2"/>
<path d="M1282.98 2106.08C1269.39 2104.6 1255.32 2103.93 1241.65 2103.63C1238.25 2103.55 1238.48 2108.24 1241.65 2108.61C1255.25 2110.32 1269.23 2111.88 1282.98 2112.47C1287.31 2112.69 1287.16 2106.53 1282.98 2106.08Z" fill="#F2F2F2"/>
<path d="M1369.44 1949.75C1358.39 1957.26 1349.43 1962.83 1335.37 1963.65C1332.04 1963.87 1332.04 1968.55 1335.37 1968.63C1348.5 1969 1364.57 1964.61 1373.3 1954.51C1375.39 1952.06 1372.61 1947.53 1369.44 1949.75Z" fill="#F2F2F2"/>
<path d="M1382.73 1959.34C1370.68 1965.73 1359.16 1969.15 1345.57 1971.15C1341.7 1971.75 1342.71 1977.62 1346.49 1977.62C1360.48 1977.47 1375 1973.31 1387.05 1966.47C1391.77 1963.8 1387.6 1956.81 1382.73 1959.34Z" fill="#F2F2F2"/>
<path d="M380.416 2413.14C364.269 2368.18 346.344 2323.46 324.324 2280.81C335.759 2254.06 345.726 2223.82 348.507 2194.69C351.057 2195.51 353.529 2196.4 356.079 2197.22C359.633 2198.41 361.951 2195.73 362.105 2192.91C372.381 2188.9 378.021 2175.3 372.072 2165.42C371.145 2163.86 369.677 2163.34 368.286 2163.49C367.745 2162.82 367.05 2162.22 366.046 2161.93C342.326 2154.79 318.53 2147.66 294.424 2141.57C292.261 2141.05 290.793 2142.24 290.252 2143.72C280.131 2145.88 276.268 2159.18 281.599 2167.28C280.981 2168.69 281.212 2170.32 282.989 2171.07C286.08 2172.33 289.17 2173.52 292.261 2174.71C282.68 2202.79 273.641 2231.77 266.687 2260.52C266.146 2260.52 265.528 2260.67 264.91 2260.97C217.781 2282.74 159.989 2305.62 121.667 2340.69C118.499 2343.59 120.122 2348.72 124.217 2349.91C207.35 2373.24 290.406 2396.57 373.54 2419.82C377.48 2420.94 381.962 2417.07 380.571 2413.06L380.416 2413.14ZM287.78 2165.87C287.78 2165.87 287.78 2165.49 287.625 2165.35C283.917 2158.73 288.398 2152.79 294.424 2149.74C294.733 2149.59 294.965 2149.37 295.197 2149.15C317.757 2156.95 340.627 2163.93 363.573 2170.77C364.192 2170.99 364.732 2170.99 365.273 2170.92C368.055 2177.31 363.96 2184.59 357.701 2187.41C334.6 2179.76 311.422 2171.88 287.78 2165.79V2165.87ZM267.692 2268.33C269.932 2269.74 273.486 2269.22 274.722 2266.02C285.462 2237.79 293.42 2207.25 299.137 2177.53C313.431 2182.95 327.956 2187.86 342.481 2192.69C332.205 2220.77 324.479 2250.12 315.053 2278.5C314.744 2279.47 314.821 2280.29 315.053 2280.96C314.358 2282.29 314.126 2283.85 314.899 2285.56C333.055 2325.46 350.593 2365.29 365.814 2406.23C289.557 2384.83 213.377 2363.43 137.119 2342.11C174.668 2311.34 225.97 2292.84 267.769 2268.25L267.692 2268.33Z" fill="#F2F2F2"/>
<path d="M343.099 2378.88C333.75 2359.86 326.488 2340.99 324.17 2319.96C323.629 2314.61 314.821 2314.61 315.439 2319.96C315.516 2320.86 315.671 2321.75 315.826 2322.64C313.894 2321.67 311.885 2321.08 309.567 2320.86C306.863 2320.56 305.704 2323.98 306.941 2325.83C304.236 2324.94 301.841 2323.23 300.45 2320.71C300.528 2319.89 300.141 2319.07 299.523 2318.48C299.523 2318.33 299.446 2318.25 299.369 2318.11C298.751 2315.36 295.042 2316.1 294.579 2318.48C290.175 2321.52 286.234 2324.79 280.208 2323.53C273.177 2322.04 269.623 2315.28 269.932 2308.82C270.164 2308.3 270.396 2307.85 270.627 2307.26C271.864 2303.69 266.764 2302.35 264.756 2304.88C261.202 2309.34 257.184 2313.28 250.771 2312.91C244.668 2312.61 240.032 2308.45 237.559 2303.39C237.328 2302.95 237.019 2302.65 236.632 2302.43C237.946 2300.94 236.4 2298.64 234.314 2299.61C212.527 2309.71 191.511 2321.15 170.728 2333.04C168.101 2334.53 168.487 2337.5 170.187 2339.06C169.569 2340.32 169.878 2342.03 171.81 2342.55C226.434 2357.71 281.83 2370.34 336.532 2385.42C338.927 2386.09 340.704 2384.83 341.476 2383.04C343.022 2382.45 344.181 2380.82 343.176 2378.81L343.099 2378.88ZM176.909 2338.24C195.915 2327.76 214.613 2316.92 232.692 2305.03C232.692 2305.1 232.692 2305.18 232.692 2305.25C236.787 2318.11 254.248 2322.86 264.369 2315.65C265.605 2321.75 269.932 2327.24 276.19 2329.62C282.912 2332.15 292.106 2330.81 297.283 2325.68C301.609 2331.48 310.108 2334.23 317.139 2331.48C319.998 2347.08 325.174 2362.39 333.596 2375.99C281.985 2361.5 229.756 2347.45 176.832 2338.24H176.909Z" fill="#F2F2F2"/>
<path d="M305.395 2287.64C302.768 2281.92 296.201 2278.73 290.175 2280.73C291.334 2279.17 289.711 2276.8 287.625 2277.84C281.521 2281.03 277.967 2288.53 280.208 2295C282.526 2301.83 290.329 2304.88 297.283 2302.87C304.159 2300.94 308.331 2294.11 305.395 2287.57V2287.64ZM294.27 2297C285.462 2298.64 283.221 2288.83 287.471 2283.33C287.471 2285.04 288.861 2286.9 290.87 2286.08C294.27 2284.75 297.978 2286.9 299.214 2290.1C300.528 2293.59 297.746 2296.34 294.347 2297H294.27Z" fill="#F2F2F2"/>
<path d="M304.159 2246.63C301.069 2241.87 293.111 2238.46 288.166 2242.69C287.548 2243.21 287.393 2243.73 287.393 2244.33C283.53 2247.15 281.753 2252.65 283.916 2256.88C286.698 2262.31 294.192 2263.79 299.678 2261.42C305.782 2258.81 307.713 2251.98 304.159 2246.56V2246.63ZM296.896 2256.14C294.424 2257.33 290.638 2257.03 288.784 2254.88C286.312 2252.05 288.243 2248.56 290.87 2246.56C293.96 2246.11 296.51 2246.7 298.442 2249.3C300.219 2251.76 299.755 2254.73 296.896 2256.07V2256.14Z" fill="#F2F2F2"/>
<path d="M324.865 2211.93C325.483 2208.07 326.101 2204.13 326.565 2200.19C326.797 2198.33 323.629 2198.04 323.165 2199.75C322.161 2203.68 321.311 2207.7 320.461 2211.63C319.689 2215.2 318.452 2218.84 318.839 2222.48C318.993 2224.04 321.388 2225.08 322.238 2223.37C324.093 2219.81 324.247 2215.72 324.865 2211.86V2211.93Z" fill="#F2F2F2"/>
<path d="M316.83 2202.42C317.294 2200.19 314.049 2199.3 313.276 2201.53C311.035 2207.99 308.717 2214.53 307.095 2221.22C306.4 2224.19 310.881 2225.38 311.808 2222.48C313.894 2216.02 315.362 2209.18 316.753 2202.5L316.83 2202.42Z" fill="#F2F2F2"/>
<path d="M238.332 2338.76C228.52 2337.5 219.017 2336.9 209.436 2334.3C207.196 2333.71 206.423 2336.83 208.509 2337.57C217.703 2340.92 228.443 2343.89 238.409 2343.52C241.654 2343.37 241.423 2339.21 238.409 2338.76H238.332Z" fill="#F2F2F2"/>
<path d="M236.941 2330.51C233.542 2329.62 229.988 2328.95 226.511 2328.29C224.502 2327.91 223.73 2330.59 225.661 2331.26C229.061 2332.37 232.383 2333.49 235.86 2334.38C238.409 2335.05 239.491 2331.26 236.941 2330.51Z" fill="#F2F2F2"/>
<path d="M1182.94 2286.97C1160.59 2270.72 1099.1 2257.34 1075.88 2281.84C1060.42 2233.05 1009.02 2205 957.685 2206.93C955.677 2206.99 954.696 2208.22 954.436 2209.71C953.684 2210.15 953.021 2210.79 952.62 2211.59C946.548 2223.84 941.734 2238.14 937.924 2252.4C933.938 2227.11 925.255 2200.73 906.342 2188.35C828.706 2137.77 753.775 2326.42 743.076 2371.55C742.505 2374.04 744.154 2375.52 746.269 2375.81C746.97 2392.68 765.07 2404.61 782.595 2402.5C808.28 2399.4 823.719 2376.18 827.989 2353.42C836.283 2344.13 852.945 2345.05 855.776 2360.7C858.775 2376.98 844.453 2387.72 836.78 2400.26C835.651 2402.07 836.104 2404.07 837.302 2405.22C834.721 2410.71 832.862 2416.47 833.848 2420.88C835.533 2428.97 846.423 2437.39 853.188 2441.61C870.273 2452.14 891.337 2453.62 909.843 2445.68C910.115 2445.62 910.297 2445.36 910.568 2445.3C910.738 2445.92 911.051 2446.59 911.537 2447.25C935.118 2479.22 998.162 2491.17 1036.06 2471.15C1051.44 2496.47 1087.69 2505.96 1116.11 2498.85C1153.09 2489.54 1168.43 2460.09 1182.28 2428.75C1184.1 2424.56 1179.55 2421.63 1175.99 2422.71C1177.24 2421.42 1177.41 2419.1 1175.75 2417.86C1163.6 2408.66 1147.17 2402.74 1132.91 2397.22C1129.8 2396.09 1127.45 2397.45 1126.35 2399.6C1124.88 2399.77 1123.49 2400.78 1123.09 2402.62C1121.16 2411.92 1111.18 2420.04 1101.02 2418.56C1087.94 2416.73 1085.59 2403 1087.2 2392.86C1087.28 2392.65 1087.14 2392.36 1087.15 2392.13C1090.41 2381.16 1094.24 2370.4 1100.43 2360.57C1104.39 2354.31 1109.44 2347.57 1116.62 2344.47C1135.28 2336.34 1149.26 2355.98 1139.96 2371.82C1139.69 2372.28 1139.57 2372.79 1139.38 2373.28C1136.13 2374.4 1135.1 2379.11 1139.13 2380.82C1155.46 2387.81 1178.09 2395.19 1196.1 2391.43C1197.45 2391.13 1198.5 2390.16 1199.18 2389.06C1201.43 2389.64 1203.75 2389.22 1205.14 2386.94C1225.03 2353.28 1215.12 2310.32 1182.92 2286.81L1182.94 2286.97ZM858.637 2431.36C851.772 2427.19 845.219 2422.01 846.03 2413.89C846.464 2409.44 848.183 2404.66 849.631 2399.94C865.381 2384.95 876.115 2357.95 856.854 2342.26C846.218 2333.61 830.634 2336.67 822.784 2345.88C820.253 2345.59 817.572 2346.52 816.765 2349.41C812.035 2365.16 806.072 2381.74 789.071 2388.81C773.536 2395.3 756.314 2387.43 752.18 2371.93C769.233 2336.67 783.221 2301.01 804.165 2267.41C814.086 2251.48 824.47 2235 836.934 2220.8C853.166 2196.2 877.493 2193.4 909.772 2212.33C913.065 2218.85 915.587 2225.66 917.34 2232.73C938.701 2299.65 919.831 2370.73 900.722 2435.91C886.75 2440.75 871.239 2439.22 858.538 2431.4L858.637 2431.36ZM1029.1 2459.47C995.421 2475.71 945.712 2464.72 919.982 2440.71C918.289 2439.14 916.274 2438.8 914.545 2439.21C928.953 2391.38 942.228 2342.02 941.21 2291.83C941.103 2286.86 940.855 2281.21 940.499 2275.2C949.616 2256.91 957.779 2235.17 961.657 2215.29C999.463 2220.42 1035.39 2234.09 1055.24 2267.56C1067.88 2288.93 1073.91 2318.87 1050.92 2336.31C1036.32 2347.35 1015.86 2347.67 998.412 2350.84C996.439 2351.24 995.141 2352.43 994.294 2353.95C990.042 2354.47 988.345 2360.44 993.147 2362.51C1011.93 2370.4 1030.83 2379.68 1042.16 2396.85C1055.89 2417.75 1054.64 2447.1 1029.23 2459.36L1029.1 2459.47ZM1148.87 2374.99C1161.33 2354.51 1143.58 2326.81 1117.5 2333.43C1093.82 2339.41 1081.81 2367.77 1078.68 2391.42C1070.42 2405.65 1081.61 2425.23 1097.79 2428.43C1112.58 2431.36 1127.02 2421.37 1129.95 2407.66C1143.57 2413.98 1158.57 2421.2 1173.5 2423.56C1173.97 2423.65 1174.22 2423.42 1174.59 2423.32C1174.24 2423.59 1173.91 2423.78 1173.6 2424.15C1155.87 2445.01 1152.93 2471.52 1124.36 2483.82C1092.8 2497.42 1067.44 2484.82 1042.18 2467.58C1044.67 2465.87 1047.05 2464.03 1049.26 2461.98C1088.37 2425.71 1053.69 2381.03 1015.2 2361.5C1055.41 2356.14 1087.9 2332.64 1077.9 2288.86C1102.78 2274.81 1146.93 2279.16 1168.97 2292.21C1201.24 2311.37 1212.32 2349.27 1194.92 2381.63C1194.81 2381.9 1194.71 2382.18 1194.67 2382.49C1187.25 2380.97 1179.57 2380.95 1172.09 2379.81C1164.29 2378.63 1156.54 2376.92 1148.9 2374.92L1148.87 2374.99Z" fill="#F2F2F2"/>
<path d="M882 2277.69C876.473 2273.69 865.595 2271.31 857.574 2273.62C857.502 2273.6 857.33 2273.62 857.23 2273.66C857.23 2273.66 857.031 2273.74 857.003 2273.81C854.55 2274.59 852.392 2275.87 850.775 2277.66C842.925 2284.57 840.787 2296.9 845.695 2306.24C852.776 2319.71 870.497 2320.46 881.782 2311.54C893.067 2302.63 894.173 2286.42 882.072 2277.72L882 2277.69ZM875.032 2303.52C868.219 2309.06 857.612 2308.92 853.75 2300.28C851.877 2296.02 851.905 2291.34 853.549 2287.18C853.549 2287.18 853.721 2287.16 853.821 2287.12C857.263 2285.51 859.57 2283.02 863.623 2282.59C866.889 2282.27 870.431 2282.93 873.4 2284.41C881.757 2288.57 882 2297.8 875.105 2303.54L875.032 2303.52Z" fill="#F2F2F2"/>
<path d="M961.458 2392.35C960.213 2391.74 958.604 2391.63 957.199 2392.47C955.315 2393.05 954.152 2394.53 953.766 2396.14C948.818 2403.24 947.459 2412.75 947.498 2421.03C947.498 2423.34 949.029 2424.69 950.773 2425.09C950.815 2425.82 951.057 2426.46 951.914 2427.01C965.97 2435.16 990.46 2441.16 1002.18 2426.12C1016.58 2407.62 977.042 2393.91 961.341 2392.23L961.458 2392.35ZM991.382 2423.54C981.277 2431.13 966.469 2425.73 955.676 2422.51C955.758 2422.3 955.813 2422.16 955.922 2421.88C956.882 2414.84 959.638 2408.69 961.898 2402.13C968.297 2402.87 974.522 2404.27 980.416 2407.14C986.309 2410 1000.27 2416.92 991.382 2423.54Z" fill="#F2F2F2"/>
<path d="M995.175 2270.04C993.833 2268.83 991.02 2268.84 990.37 2270.9C990.178 2271.39 990.014 2271.81 989.894 2272.32C988.524 2273.49 988.138 2275.1 988.494 2276.5C987.34 2280.05 986.186 2283.6 985.005 2287.22C983.475 2292.15 981.203 2297.28 981.155 2302.43C981.13 2304.17 982.851 2305.67 984.55 2305.97C994.176 2318.23 1019.45 2312.82 1024.01 2298.12C1028.78 2282.46 1010.99 2266.19 995.175 2270.04ZM1002.27 2303.78C997.062 2304.42 993.161 2303 989.547 2300.01C991.987 2293.82 993.218 2286.72 994.384 2280C994.584 2279.91 994.8 2279.99 995 2279.9C1004.14 2276.64 1017.34 2285.28 1014.37 2295.32C1012.86 2300.41 1007.38 2303.18 1002.27 2303.78Z" fill="#F2F2F2"/>
<path d="M1163.79 2350.16C1164.26 2344.77 1160.64 2338.68 1157.87 2334.17C1154.79 2328.99 1151.14 2324.41 1146.68 2320.23C1144.51 2318.17 1140.8 2320.87 1142.88 2323.14C1146.65 2327.21 1149.86 2331.64 1152.19 2336.63C1154.41 2341.25 1154.66 2346.91 1157.24 2351.26C1158.84 2353.91 1163.37 2353.74 1163.76 2350.23L1163.79 2350.16Z" fill="#F2F2F2"/>
<path d="M1159.17 2317.88C1157.07 2316.71 1153.89 2319.13 1155.9 2321.14C1163.62 2328.8 1166.84 2336.57 1165.67 2347.27C1165.1 2352.07 1172.42 2352.59 1173.32 2347.99C1175.37 2337.14 1169.31 2323.4 1159.17 2317.88Z" fill="#F2F2F2"/>
<path d="M1011.09 2432.24C1006.93 2435.01 1003.87 2438.18 998.741 2439.65C993.644 2441.05 988.473 2440.75 983.488 2438.93C980.165 2437.72 978.501 2442.36 981.57 2443.8C992.383 2448.85 1010.28 2447.28 1016.41 2435.93C1018.13 2432.82 1013.55 2430.59 1011.09 2432.24Z" fill="#F2F2F2"/>
<path d="M1019.75 2440.64C1012.14 2442.55 1004.84 2447.44 997.873 2450.86C994.901 2452.32 996.873 2456.53 999.98 2455.36C1007.31 2452.71 1016.02 2450.72 1022.53 2446.58C1025.5 2444.73 1023.09 2439.72 1019.71 2440.55L1019.75 2440.64Z" fill="#F2F2F2"/>
<path d="M864.307 2254.47C850.923 2247.75 832.322 2259.09 831.433 2273.07C831.288 2275.32 834.865 2276.3 835.598 2274.03C839.107 2262.83 850.421 2257.82 861.638 2261.44C866.416 2262.94 868.638 2256.68 864.351 2254.56L864.307 2254.47Z" fill="#F2F2F2"/>
<path d="M856.156 2235.12C852.12 2235.71 848.037 2236.85 844.037 2237.77C840.407 2238.59 836.616 2239.2 833.038 2240.51C831.001 2241.28 831.521 2244.57 833.745 2244.59C837.534 2244.62 841.253 2243.99 844.99 2243.52C845.334 2243.49 845.605 2243.43 845.949 2243.4C846.776 2244.65 848.256 2245.51 850.121 2244.76C852.757 2243.73 855.492 2242.67 858.128 2241.64C862.031 2240.13 860.047 2234.47 856.039 2235L856.156 2235.12Z" fill="#F2F2F2"/>
</g>
</svg>
